<mxfile host="app.diagrams.net" agent="Mozilla/5.0 (Windows NT 10.0; Win64; x64) AppleWebKit/537.36 (KHTML, like Gecko) Chrome/134.0.0.0 Safari/537.36" version="26.1.3">
  <diagram name="第 1 页" id="kClTr-sAUO54ppgM1FXn">
    <mxGraphModel dx="1593" dy="1187" grid="0" gridSize="10" guides="1" tooltips="1" connect="1" arrows="1" fold="1" page="0" pageScale="1" pageWidth="827" pageHeight="1169" math="0" shadow="0">
      <root>
        <mxCell id="0" />
        <mxCell id="1" parent="0" />
        <mxCell id="5CWj5tkC7nydaLDc7qxZ-1" value="" style="rounded=0;whiteSpace=wrap;html=1;" parent="1" vertex="1">
          <mxGeometry x="22" y="-151" width="1120" height="887" as="geometry" />
        </mxCell>
        <mxCell id="5CWj5tkC7nydaLDc7qxZ-3" value="conv_adder" style="text;html=1;align=center;verticalAlign=middle;whiteSpace=wrap;rounded=0;" parent="1" vertex="1">
          <mxGeometry x="62" y="-149" width="81" height="30" as="geometry" />
        </mxCell>
        <mxCell id="5CWj5tkC7nydaLDc7qxZ-4" value="conv1x1_pix0" style="rounded=0;whiteSpace=wrap;html=1;" parent="1" vertex="1">
          <mxGeometry x="67.5" y="-75" width="93" height="38" as="geometry" />
        </mxCell>
        <mxCell id="5CWj5tkC7nydaLDc7qxZ-5" value="" style="verticalLabelPosition=bottom;verticalAlign=top;html=1;shape=mxgraph.flowchart.summing_function;" parent="1" vertex="1">
          <mxGeometry x="79" y="19" width="70" height="70" as="geometry" />
        </mxCell>
        <mxCell id="5CWj5tkC7nydaLDc7qxZ-6" value="conv1x1_pix1" style="rounded=0;whiteSpace=wrap;html=1;" parent="1" vertex="1">
          <mxGeometry x="173" y="-75" width="93" height="38" as="geometry" />
        </mxCell>
        <mxCell id="5CWj5tkC7nydaLDc7qxZ-7" value="conv1x1_pix2" style="rounded=0;whiteSpace=wrap;html=1;" parent="1" vertex="1">
          <mxGeometry x="279" y="-75" width="93" height="38" as="geometry" />
        </mxCell>
        <mxCell id="5CWj5tkC7nydaLDc7qxZ-8" value="conv1x1_pix3" style="rounded=0;whiteSpace=wrap;html=1;" parent="1" vertex="1">
          <mxGeometry x="385" y="-75" width="93" height="38" as="geometry" />
        </mxCell>
        <mxCell id="5CWj5tkC7nydaLDc7qxZ-9" value="conv1x1_pix4" style="rounded=0;whiteSpace=wrap;html=1;" parent="1" vertex="1">
          <mxGeometry x="491" y="-75" width="93" height="38" as="geometry" />
        </mxCell>
        <mxCell id="5CWj5tkC7nydaLDc7qxZ-11" value="conv1x1_pix8" style="rounded=0;whiteSpace=wrap;html=1;" parent="1" vertex="1">
          <mxGeometry x="915" y="-75" width="93" height="38" as="geometry" />
        </mxCell>
        <mxCell id="5CWj5tkC7nydaLDc7qxZ-12" value="conv1x1_pix7" style="rounded=0;whiteSpace=wrap;html=1;" parent="1" vertex="1">
          <mxGeometry x="809" y="-75" width="93" height="38" as="geometry" />
        </mxCell>
        <mxCell id="5CWj5tkC7nydaLDc7qxZ-13" value="conv1x1_pix6" style="rounded=0;whiteSpace=wrap;html=1;" parent="1" vertex="1">
          <mxGeometry x="703" y="-75" width="93" height="38" as="geometry" />
        </mxCell>
        <mxCell id="5CWj5tkC7nydaLDc7qxZ-14" value="conv1x1_pix5" style="rounded=0;whiteSpace=wrap;html=1;" parent="1" vertex="1">
          <mxGeometry x="597" y="-75" width="93" height="38" as="geometry" />
        </mxCell>
        <mxCell id="5CWj5tkC7nydaLDc7qxZ-15" value="" style="verticalLabelPosition=bottom;verticalAlign=top;html=1;shape=mxgraph.flowchart.summing_function;" parent="1" vertex="1">
          <mxGeometry x="290.5" y="19" width="70" height="70" as="geometry" />
        </mxCell>
        <mxCell id="5CWj5tkC7nydaLDc7qxZ-16" value="" style="verticalLabelPosition=bottom;verticalAlign=top;html=1;shape=mxgraph.flowchart.summing_function;" parent="1" vertex="1">
          <mxGeometry x="502.5" y="19" width="70" height="70" as="geometry" />
        </mxCell>
        <mxCell id="5CWj5tkC7nydaLDc7qxZ-67" style="edgeStyle=none;curved=1;rounded=0;orthogonalLoop=1;jettySize=auto;html=1;exitX=0.5;exitY=1;exitDx=0;exitDy=0;exitPerimeter=0;entryX=0.5;entryY=0;entryDx=0;entryDy=0;fontSize=12;startSize=8;endSize=8;" parent="1" source="5CWj5tkC7nydaLDc7qxZ-17" target="5CWj5tkC7nydaLDc7qxZ-66" edge="1">
          <mxGeometry relative="1" as="geometry" />
        </mxCell>
        <mxCell id="5CWj5tkC7nydaLDc7qxZ-89" value="[23:0]" style="edgeLabel;html=1;align=center;verticalAlign=middle;resizable=0;points=[];fontSize=12;" parent="5CWj5tkC7nydaLDc7qxZ-67" vertex="1" connectable="0">
          <mxGeometry x="-0.1767" y="2" relative="1" as="geometry">
            <mxPoint as="offset" />
          </mxGeometry>
        </mxCell>
        <mxCell id="5CWj5tkC7nydaLDc7qxZ-17" value="" style="verticalLabelPosition=bottom;verticalAlign=top;html=1;shape=mxgraph.flowchart.summing_function;" parent="1" vertex="1">
          <mxGeometry x="79" y="505" width="70" height="70" as="geometry" />
        </mxCell>
        <mxCell id="5CWj5tkC7nydaLDc7qxZ-21" value="" style="verticalLabelPosition=bottom;verticalAlign=top;html=1;shape=mxgraph.flowchart.summing_function;" parent="1" vertex="1">
          <mxGeometry x="714.5" y="19" width="70" height="70" as="geometry" />
        </mxCell>
        <mxCell id="5CWj5tkC7nydaLDc7qxZ-22" value="" style="verticalLabelPosition=bottom;verticalAlign=top;html=1;shape=mxgraph.flowchart.summing_function;" parent="1" vertex="1">
          <mxGeometry x="502.5" y="203" width="70" height="70" as="geometry" />
        </mxCell>
        <mxCell id="5CWj5tkC7nydaLDc7qxZ-23" value="" style="verticalLabelPosition=bottom;verticalAlign=top;html=1;shape=mxgraph.flowchart.summing_function;" parent="1" vertex="1">
          <mxGeometry x="79" y="203" width="70" height="70" as="geometry" />
        </mxCell>
        <mxCell id="5CWj5tkC7nydaLDc7qxZ-39" style="edgeStyle=none;curved=1;rounded=0;orthogonalLoop=1;jettySize=auto;html=1;exitX=0.5;exitY=1;exitDx=0;exitDy=0;exitPerimeter=0;entryX=0.5;entryY=0;entryDx=0;entryDy=0;entryPerimeter=0;fontSize=12;startSize=8;endSize=8;" parent="1" source="5CWj5tkC7nydaLDc7qxZ-5" target="5CWj5tkC7nydaLDc7qxZ-23" edge="1">
          <mxGeometry relative="1" as="geometry" />
        </mxCell>
        <mxCell id="5CWj5tkC7nydaLDc7qxZ-80" value="[20:0]" style="edgeLabel;html=1;align=center;verticalAlign=middle;resizable=0;points=[];fontSize=12;" parent="5CWj5tkC7nydaLDc7qxZ-39" vertex="1" connectable="0">
          <mxGeometry x="-0.2099" y="-1" relative="1" as="geometry">
            <mxPoint as="offset" />
          </mxGeometry>
        </mxCell>
        <mxCell id="5CWj5tkC7nydaLDc7qxZ-42" style="edgeStyle=none;curved=1;rounded=0;orthogonalLoop=1;jettySize=auto;html=1;exitX=0.5;exitY=1;exitDx=0;exitDy=0;entryX=0.5;entryY=0;entryDx=0;entryDy=0;entryPerimeter=0;fontSize=12;startSize=8;endSize=8;" parent="1" source="5CWj5tkC7nydaLDc7qxZ-4" target="5CWj5tkC7nydaLDc7qxZ-5" edge="1">
          <mxGeometry relative="1" as="geometry" />
        </mxCell>
        <mxCell id="5CWj5tkC7nydaLDc7qxZ-68" value="[19:0]" style="edgeLabel;html=1;align=center;verticalAlign=middle;resizable=0;points=[];fontSize=12;" parent="5CWj5tkC7nydaLDc7qxZ-42" vertex="1" connectable="0">
          <mxGeometry x="-0.1455" y="-1" relative="1" as="geometry">
            <mxPoint x="1" y="-3" as="offset" />
          </mxGeometry>
        </mxCell>
        <mxCell id="5CWj5tkC7nydaLDc7qxZ-44" style="edgeStyle=none;curved=0;rounded=0;orthogonalLoop=1;jettySize=auto;html=1;exitX=0.5;exitY=1;exitDx=0;exitDy=0;entryX=1;entryY=0.5;entryDx=0;entryDy=0;entryPerimeter=0;fontSize=12;startSize=8;endSize=8;" parent="1" source="5CWj5tkC7nydaLDc7qxZ-6" target="5CWj5tkC7nydaLDc7qxZ-5" edge="1">
          <mxGeometry relative="1" as="geometry">
            <Array as="points">
              <mxPoint x="220" y="54" />
            </Array>
          </mxGeometry>
        </mxCell>
        <mxCell id="5CWj5tkC7nydaLDc7qxZ-73" value="[19:0]" style="edgeLabel;html=1;align=center;verticalAlign=middle;resizable=0;points=[];fontSize=12;" parent="5CWj5tkC7nydaLDc7qxZ-44" vertex="1" connectable="0">
          <mxGeometry x="-0.5222" y="-2" relative="1" as="geometry">
            <mxPoint as="offset" />
          </mxGeometry>
        </mxCell>
        <mxCell id="5CWj5tkC7nydaLDc7qxZ-45" value="" style="verticalLabelPosition=bottom;verticalAlign=top;html=1;shape=mxgraph.flowchart.summing_function;" parent="1" vertex="1">
          <mxGeometry x="79" y="354" width="70" height="70" as="geometry" />
        </mxCell>
        <mxCell id="5CWj5tkC7nydaLDc7qxZ-46" style="edgeStyle=none;curved=1;rounded=0;orthogonalLoop=1;jettySize=auto;html=1;exitX=0.5;exitY=1;exitDx=0;exitDy=0;exitPerimeter=0;entryX=0.5;entryY=0;entryDx=0;entryDy=0;entryPerimeter=0;fontSize=12;startSize=8;endSize=8;" parent="1" source="5CWj5tkC7nydaLDc7qxZ-23" target="5CWj5tkC7nydaLDc7qxZ-45" edge="1">
          <mxGeometry relative="1" as="geometry" />
        </mxCell>
        <mxCell id="5CWj5tkC7nydaLDc7qxZ-84" value="[21:0]" style="edgeLabel;html=1;align=center;verticalAlign=middle;resizable=0;points=[];fontSize=12;" parent="5CWj5tkC7nydaLDc7qxZ-46" vertex="1" connectable="0">
          <mxGeometry x="-0.2288" y="1" relative="1" as="geometry">
            <mxPoint as="offset" />
          </mxGeometry>
        </mxCell>
        <mxCell id="5CWj5tkC7nydaLDc7qxZ-48" style="edgeStyle=none;curved=1;rounded=0;orthogonalLoop=1;jettySize=auto;html=1;exitX=0.5;exitY=1;exitDx=0;exitDy=0;entryX=0.5;entryY=0;entryDx=0;entryDy=0;entryPerimeter=0;fontSize=12;startSize=8;endSize=8;" parent="1" source="5CWj5tkC7nydaLDc7qxZ-7" target="5CWj5tkC7nydaLDc7qxZ-15" edge="1">
          <mxGeometry relative="1" as="geometry" />
        </mxCell>
        <mxCell id="5CWj5tkC7nydaLDc7qxZ-74" value="[19:0]" style="edgeLabel;html=1;align=center;verticalAlign=middle;resizable=0;points=[];fontSize=12;" parent="5CWj5tkC7nydaLDc7qxZ-48" vertex="1" connectable="0">
          <mxGeometry x="-0.2178" y="-1" relative="1" as="geometry">
            <mxPoint as="offset" />
          </mxGeometry>
        </mxCell>
        <mxCell id="5CWj5tkC7nydaLDc7qxZ-49" style="edgeStyle=none;curved=0;rounded=0;orthogonalLoop=1;jettySize=auto;html=1;exitX=0.5;exitY=1;exitDx=0;exitDy=0;entryX=1;entryY=0.5;entryDx=0;entryDy=0;entryPerimeter=0;fontSize=12;startSize=8;endSize=8;" parent="1" source="5CWj5tkC7nydaLDc7qxZ-8" target="5CWj5tkC7nydaLDc7qxZ-15" edge="1">
          <mxGeometry relative="1" as="geometry">
            <Array as="points">
              <mxPoint x="432" y="54" />
            </Array>
          </mxGeometry>
        </mxCell>
        <mxCell id="5CWj5tkC7nydaLDc7qxZ-75" value="[19:0]" style="edgeLabel;html=1;align=center;verticalAlign=middle;resizable=0;points=[];fontSize=12;" parent="5CWj5tkC7nydaLDc7qxZ-49" vertex="1" connectable="0">
          <mxGeometry x="-0.5762" y="-2" relative="1" as="geometry">
            <mxPoint as="offset" />
          </mxGeometry>
        </mxCell>
        <mxCell id="5CWj5tkC7nydaLDc7qxZ-50" style="edgeStyle=none;curved=1;rounded=0;orthogonalLoop=1;jettySize=auto;html=1;exitX=0.5;exitY=1;exitDx=0;exitDy=0;entryX=0.5;entryY=0;entryDx=0;entryDy=0;entryPerimeter=0;fontSize=12;startSize=8;endSize=8;" parent="1" source="5CWj5tkC7nydaLDc7qxZ-9" target="5CWj5tkC7nydaLDc7qxZ-16" edge="1">
          <mxGeometry relative="1" as="geometry" />
        </mxCell>
        <mxCell id="5CWj5tkC7nydaLDc7qxZ-76" value="[19:0]" style="edgeLabel;html=1;align=center;verticalAlign=middle;resizable=0;points=[];fontSize=12;" parent="5CWj5tkC7nydaLDc7qxZ-50" vertex="1" connectable="0">
          <mxGeometry x="-0.197" y="-2" relative="1" as="geometry">
            <mxPoint as="offset" />
          </mxGeometry>
        </mxCell>
        <mxCell id="5CWj5tkC7nydaLDc7qxZ-51" style="edgeStyle=none;curved=0;rounded=0;orthogonalLoop=1;jettySize=auto;html=1;exitX=0.5;exitY=1;exitDx=0;exitDy=0;entryX=1;entryY=0.5;entryDx=0;entryDy=0;entryPerimeter=0;fontSize=12;startSize=8;endSize=8;" parent="1" source="5CWj5tkC7nydaLDc7qxZ-14" target="5CWj5tkC7nydaLDc7qxZ-16" edge="1">
          <mxGeometry relative="1" as="geometry">
            <Array as="points">
              <mxPoint x="644" y="54" />
            </Array>
          </mxGeometry>
        </mxCell>
        <mxCell id="5CWj5tkC7nydaLDc7qxZ-77" value="[19:0]" style="edgeLabel;html=1;align=center;verticalAlign=middle;resizable=0;points=[];fontSize=12;" parent="5CWj5tkC7nydaLDc7qxZ-51" vertex="1" connectable="0">
          <mxGeometry x="-0.4528" y="-2" relative="1" as="geometry">
            <mxPoint as="offset" />
          </mxGeometry>
        </mxCell>
        <mxCell id="5CWj5tkC7nydaLDc7qxZ-52" style="edgeStyle=none;curved=1;rounded=0;orthogonalLoop=1;jettySize=auto;html=1;exitX=0.5;exitY=1;exitDx=0;exitDy=0;entryX=0.5;entryY=0;entryDx=0;entryDy=0;entryPerimeter=0;fontSize=12;startSize=8;endSize=8;" parent="1" source="5CWj5tkC7nydaLDc7qxZ-13" target="5CWj5tkC7nydaLDc7qxZ-21" edge="1">
          <mxGeometry relative="1" as="geometry" />
        </mxCell>
        <mxCell id="5CWj5tkC7nydaLDc7qxZ-78" value="[19:0]" style="edgeLabel;html=1;align=center;verticalAlign=middle;resizable=0;points=[];fontSize=12;" parent="5CWj5tkC7nydaLDc7qxZ-52" vertex="1" connectable="0">
          <mxGeometry x="-0.1372" y="1" relative="1" as="geometry">
            <mxPoint as="offset" />
          </mxGeometry>
        </mxCell>
        <mxCell id="5CWj5tkC7nydaLDc7qxZ-53" style="edgeStyle=none;curved=0;rounded=0;orthogonalLoop=1;jettySize=auto;html=1;exitX=0.5;exitY=1;exitDx=0;exitDy=0;entryX=1;entryY=0.5;entryDx=0;entryDy=0;entryPerimeter=0;fontSize=12;startSize=8;endSize=8;" parent="1" source="5CWj5tkC7nydaLDc7qxZ-12" target="5CWj5tkC7nydaLDc7qxZ-21" edge="1">
          <mxGeometry relative="1" as="geometry">
            <Array as="points">
              <mxPoint x="856" y="54" />
            </Array>
          </mxGeometry>
        </mxCell>
        <mxCell id="5CWj5tkC7nydaLDc7qxZ-79" value="[19:0]" style="edgeLabel;html=1;align=center;verticalAlign=middle;resizable=0;points=[];fontSize=12;" parent="5CWj5tkC7nydaLDc7qxZ-53" vertex="1" connectable="0">
          <mxGeometry x="-0.5072" y="-1" relative="1" as="geometry">
            <mxPoint as="offset" />
          </mxGeometry>
        </mxCell>
        <mxCell id="5CWj5tkC7nydaLDc7qxZ-57" style="edgeStyle=none;curved=1;rounded=0;orthogonalLoop=1;jettySize=auto;html=1;exitX=0.5;exitY=1;exitDx=0;exitDy=0;exitPerimeter=0;entryX=0.5;entryY=0;entryDx=0;entryDy=0;entryPerimeter=0;fontSize=12;startSize=8;endSize=8;" parent="1" source="5CWj5tkC7nydaLDc7qxZ-16" target="5CWj5tkC7nydaLDc7qxZ-22" edge="1">
          <mxGeometry relative="1" as="geometry" />
        </mxCell>
        <mxCell id="5CWj5tkC7nydaLDc7qxZ-82" value="[20:0]" style="edgeLabel;html=1;align=center;verticalAlign=middle;resizable=0;points=[];fontSize=12;" parent="5CWj5tkC7nydaLDc7qxZ-57" vertex="1" connectable="0">
          <mxGeometry x="-0.1517" y="-1" relative="1" as="geometry">
            <mxPoint as="offset" />
          </mxGeometry>
        </mxCell>
        <mxCell id="5CWj5tkC7nydaLDc7qxZ-58" style="edgeStyle=none;curved=0;rounded=0;orthogonalLoop=1;jettySize=auto;html=1;exitX=0.5;exitY=1;exitDx=0;exitDy=0;exitPerimeter=0;entryX=1;entryY=0.5;entryDx=0;entryDy=0;entryPerimeter=0;fontSize=12;startSize=8;endSize=8;" parent="1" source="5CWj5tkC7nydaLDc7qxZ-21" target="5CWj5tkC7nydaLDc7qxZ-22" edge="1">
          <mxGeometry relative="1" as="geometry">
            <Array as="points">
              <mxPoint x="750" y="238" />
            </Array>
          </mxGeometry>
        </mxCell>
        <mxCell id="5CWj5tkC7nydaLDc7qxZ-83" value="[20:0]" style="edgeLabel;html=1;align=center;verticalAlign=middle;resizable=0;points=[];fontSize=12;" parent="5CWj5tkC7nydaLDc7qxZ-58" vertex="1" connectable="0">
          <mxGeometry x="-0.6667" y="-1" relative="1" as="geometry">
            <mxPoint as="offset" />
          </mxGeometry>
        </mxCell>
        <mxCell id="5CWj5tkC7nydaLDc7qxZ-59" style="edgeStyle=none;curved=0;rounded=0;orthogonalLoop=1;jettySize=auto;html=1;exitX=0.5;exitY=1;exitDx=0;exitDy=0;exitPerimeter=0;entryX=1;entryY=0.5;entryDx=0;entryDy=0;entryPerimeter=0;fontSize=12;startSize=8;endSize=8;" parent="1" source="5CWj5tkC7nydaLDc7qxZ-15" target="5CWj5tkC7nydaLDc7qxZ-23" edge="1">
          <mxGeometry relative="1" as="geometry">
            <Array as="points">
              <mxPoint x="326" y="235" />
            </Array>
          </mxGeometry>
        </mxCell>
        <mxCell id="5CWj5tkC7nydaLDc7qxZ-81" value="[20:0]" style="edgeLabel;html=1;align=center;verticalAlign=middle;resizable=0;points=[];fontSize=12;" parent="5CWj5tkC7nydaLDc7qxZ-59" vertex="1" connectable="0">
          <mxGeometry x="-0.6974" y="-2" relative="1" as="geometry">
            <mxPoint as="offset" />
          </mxGeometry>
        </mxCell>
        <mxCell id="5CWj5tkC7nydaLDc7qxZ-60" style="edgeStyle=none;curved=0;rounded=0;orthogonalLoop=1;jettySize=auto;html=1;exitX=0.5;exitY=1;exitDx=0;exitDy=0;exitPerimeter=0;entryX=1;entryY=0.5;entryDx=0;entryDy=0;entryPerimeter=0;fontSize=12;startSize=8;endSize=8;" parent="1" source="5CWj5tkC7nydaLDc7qxZ-22" target="5CWj5tkC7nydaLDc7qxZ-45" edge="1">
          <mxGeometry relative="1" as="geometry">
            <Array as="points">
              <mxPoint x="538" y="385" />
            </Array>
          </mxGeometry>
        </mxCell>
        <mxCell id="5CWj5tkC7nydaLDc7qxZ-85" value="[21:0]" style="edgeLabel;html=1;align=center;verticalAlign=middle;resizable=0;points=[];fontSize=12;" parent="5CWj5tkC7nydaLDc7qxZ-60" vertex="1" connectable="0">
          <mxGeometry x="-0.844" y="1" relative="1" as="geometry">
            <mxPoint as="offset" />
          </mxGeometry>
        </mxCell>
        <mxCell id="5CWj5tkC7nydaLDc7qxZ-61" style="edgeStyle=none;curved=1;rounded=0;orthogonalLoop=1;jettySize=auto;html=1;exitX=0.5;exitY=1;exitDx=0;exitDy=0;exitPerimeter=0;entryX=0.5;entryY=0;entryDx=0;entryDy=0;entryPerimeter=0;fontSize=12;startSize=8;endSize=8;" parent="1" source="5CWj5tkC7nydaLDc7qxZ-45" target="5CWj5tkC7nydaLDc7qxZ-17" edge="1">
          <mxGeometry relative="1" as="geometry" />
        </mxCell>
        <mxCell id="5CWj5tkC7nydaLDc7qxZ-86" value="[22:0]" style="edgeLabel;html=1;align=center;verticalAlign=middle;resizable=0;points=[];fontSize=12;" parent="5CWj5tkC7nydaLDc7qxZ-61" vertex="1" connectable="0">
          <mxGeometry x="-0.1438" y="2" relative="1" as="geometry">
            <mxPoint as="offset" />
          </mxGeometry>
        </mxCell>
        <mxCell id="5CWj5tkC7nydaLDc7qxZ-62" style="edgeStyle=none;curved=0;rounded=0;orthogonalLoop=1;jettySize=auto;html=1;exitX=0.5;exitY=1;exitDx=0;exitDy=0;entryX=1;entryY=0.5;entryDx=0;entryDy=0;entryPerimeter=0;fontSize=12;startSize=8;endSize=8;" parent="1" source="5CWj5tkC7nydaLDc7qxZ-11" target="5CWj5tkC7nydaLDc7qxZ-17" edge="1">
          <mxGeometry relative="1" as="geometry">
            <Array as="points">
              <mxPoint x="962" y="535" />
            </Array>
          </mxGeometry>
        </mxCell>
        <mxCell id="5CWj5tkC7nydaLDc7qxZ-88" value="[19:0]" style="edgeLabel;html=1;align=center;verticalAlign=middle;resizable=0;points=[];fontSize=12;" parent="5CWj5tkC7nydaLDc7qxZ-62" vertex="1" connectable="0">
          <mxGeometry x="0.9417" y="2" relative="1" as="geometry">
            <mxPoint as="offset" />
          </mxGeometry>
        </mxCell>
        <mxCell id="5CWj5tkC7nydaLDc7qxZ-66" value="ps_sum" style="rounded=0;whiteSpace=wrap;html=1;" parent="1" vertex="1">
          <mxGeometry x="67.5" y="620" width="93" height="38" as="geometry" />
        </mxCell>
        <mxCell id="RvNwwFKHoACzrDZrQgTG-1" value="" style="shape=image;verticalLabelPosition=bottom;labelBackgroundColor=default;verticalAlign=top;aspect=fixed;imageAspect=0;image=data:image/png,iVBORw0KGgoAAAANSUhEUgAAArwAAAHrCAYAAAAt2U6RAAAAAXNSR0IArs4c6QAAAARnQU1BAACxjwv8YQUAAAAJcEhZcwAADsMAAA7DAcdvqGQAAP+lSURBVHhe7J0FmBVlF8fP9rJBd3eXdElJd6gIqIiKgIBioiCCYuCngmI3AlIi0iAt3Uh3d9cumzDf/M/OXGbvzq3du7t3757f87y703d6/u95z3uOz/379xUSBEEQBEEQMiVxd+No2eiV1OSNhyk0T4g2lUhRFPLx8aE5g+ZTiUbF6ObZ23Tz1E3q/HUHWjpyBV07ep18fImCswZTjpI51PUbkaLKyhXvr6YidQvTzTM3qe4LtSk2IpbWf7mR/IL81OJPDYfUo8XDllLbT1rRtok7qGyr0uQX4Edrx2+grAXDqcHgenTt2HXa9/d+unMxgrd7af8VOrbyOAWGBlDusrmocrdKFBcdT9vV9e/F3qO8FfJQmZal6crBK7Ttt510/cR18ld/KygsiIo3KkrqbgqCIAiCIAiZlYCQAGrzUUta9fEauqWKWh2I3YhLEeQf6E+lWpSiInUKU+HahVhUXj5whXKXy0WPT36Uom5G043jN6CQWZTmKZ+Lzmw+Q3X61WahGhgWSM1GNKG716Iof+V89M/wZVRMFaGg+hNVKfLqXdo7Zz8p9xSKjYyjfXMPqEI1kBq/3ojaf9aGrp+8qYrra/x7OYrnYLF7X1321plblLtMLhbcZ7edp3tx99Xfu8z7V6p5KWo/ri1FXrtL53ZeIL9Ro0aN5l8UBEEQBEEQMiU+vj4UcyeG1o7bQFUfraxOSJh+YOEhCgoPpPOqaNw9fQ81G96EYiJi6eyWs7xIzO0YFp4QzeXalqXdM/ZSQGgA5a2Ql7e3dMQy2jd7H7Qw1exTnY6vPqEKYx8KyOLPQnnPzL0sSgOzBFBwtiAKDA2k+Jh4Orf9PF0/cYMtvUeXHVN/J5pylcpFVbpXohNrTtKCVxarovsqVe5agc7vvkihubKowjmSQnKF0MW9l8lH/b2716Mo4uIdCs0dKhZeQRAEQRCEzMpdVWzumPQfLRu5gscf/72bRewCuDvE3Y2nWs88RPmq5CNfP1/KWSIHlWhagq6fukFHVhyne/H3qcqjlej8fxcoLH8YW2zhpnBw3kG6evQaBYYH0cZvNtPVw9fYQhwXHceuCifXnqb81fOzaAa5SuWkbIWzUXxUPN2/d5/dHM5uPcduDkXqFqF7qhCGKwQEb8lmxcnHj1gsYz1F3enrx29QfnUfi9QpxJbeUxtO8/5W6FiexIdXEARBEAQhk3Jy/Sla87/11HvWE6rATGoHXfP5Orasntl0hoKyBrGFF8BX99TG0xRxKZLdCiA098zaR9F3YsjX14fKti5N+/4+wO4F8P0NCg2kLDmyULl2ZSgsXxjPy1EiO0VeuUuNX2vIFmYjN07eoK0/b1eFbQk6MP8QdfyiHYtk/yz+tPfPvXR89Um2GsPnuOHQ+rT3r/28Tw0G11X/E51W9xcW5jzlc1Pe8nnEwisIgiAIgpBZKd6wGHX7sRMtfG0xXdx7iaehs5rO9aPXyT/Yn6o+UYWyZA/Wpia4QGDdyt0qstgF0bdj6H7sPVVk5qErh66ymI2PuUcFquanSupyHca3VYVwGTow76DFhxcd0nSxe3LdKfbhxe/DV7dO/9rsK4wOaZgXnj+Mtv+2g64eua5Ov0yxd2MpLG8YhecLp8AQfwrIEpDgMxwaQKUfKUmVulRgsYvtieAVBEEQBEHIpEAMwuLaaUJ7WvzGUjrx70nurAbgzhBeIJwF6faJOznCgi3g1xsbGcPuChCmJZuUoMZvNKRiDYtyZzP442I753acp6yFs9Lp9aepCnyFDcCt4tiq45bfz14kG2UtmJWCswZxZzhQqGZBdnVo9FpDajqsMTUb3pj9gX0D/Xm5mydv8HI6eqQJEbyCIAiCIAiZFIjBS3sv06LXl1C9QbWpeKNi2pyE6A3ndlygkFxZ2EUBLg3WwAIL4E6A8GBwAL597g7dPH2LIq5Esi9vuTZlWIye2XaOhS+svrlK5+JIDLAEb/99J234ehNd2XWN1o1bT3v+2ke7/9xL9+Pvs3BG57agbMEslnOXykWVulZQt1uGchTPztvD78TejiEfPx+6eyOa9+fy/iu0euwai3gWH15BEARBEIRMyrJ3V3A823b/a61NecDtC3do/9wD3EntyNJjbK2FCwMiJ9xTRSusuctHr6Q+856k6NvRqnD9j5R79zl6AjqaKdyVzIc7oCEmbrz6OxCx2VWhmrtUTirdohT72U7vPYuurL9KkUok+fv4k6/iSy0/a0a1nq3J+/Hvp2u5Mxusz9kKZ2UfXWyTFPwCcce022dvcei06FsxVPeFWgnr/W8tHVt5gsqoYl0svIIgCIIgCJmUWs/VpJDsWWjzD1u1KQ98eLMWCKeD8w+Tf3AAdzbz9fdlKy5E7or3V9Hqj9dy7FtGXQVWXqyau0xOCssbSuF5w7hTGcRqWL5QylkyBwteuDYgsgMICg9SBXNvCi0fQll8QijIJ5jafNXKInbjouI4DjAstRDR4WrJViQrZS2UMJy1QBhlL5qNAkIC1eX82H8XQFxHXFYFNNww1H2SOLyCIAiCIAiZFHREK/5wMRahi9/8h3KUyMFCF8RGxtLdG1FUoEo+jpgAwVnwoQJs5UUYsqqPV+awYEXrFWGL65nNZ1lgYj6stwhBVqR2YQrLHUK5yuTiefmr5aO7V+7S9WPXLe4TkVciadmolVSuaxm6c+s2xauiulLnCjwPUR5iI+I4pFmLUc1YIEfdiKYaT1WnwrUKqb9RmPfpzsU7qiBXhXTMPSpYvQBdPXJN3SeF2o5tScXqFxELryAIgiAIQmYn4mIER0PIXjirNoU4CQQSTJxYe5IaDKlH0bcS/GPPbD3HIcmWqyL15umbPA3WX/j8KvfvU+zdOJ62b85+2vTDVloyYjn998duFsa5S+diyys6rkEgA4jVx37vRo/+0oWG7h6sLleYp4MzW87x9rIXy8bj2KeAEH9a8tYyuq9bl1UgkhEvGKIc3Dxzi+Px6oiFVxAEQRAEIbOiEK0Zt558/HypwaC6LCiNXD9+nR7qVY1Wj13L7glF6xahuS/O5/8QtIitG5wtmMOIIfEDXBzg2oAsZ7AKI0Mb3BvgyoBQYvkq5eNkF36BfpxAIqe6HsKY5SmXm38PrguFayYI1e2/76CY27Hqsr5UpmVpVVT70YYJm9jNIV/FPHRs1Qm6fuI6p0NGJjb4ERdvVJyt1lju2IrjFKiKcFiFxcIrCIIgCIKQSTn8zxE6u+Uc5SiaXZuSmMCQQLamtvm4JVuBQfZi2bkzW2ieUFXg3qNcJXPydLgsQBRf2ndJFcSFKW/53FSoRgF2X9j7937a9N0WjvSQXf2ti7svcRzfgwsP0X/TdtPt83fY/xeh0M5sPkNbft4G9cti+Mzmcxyi7MKuC1RE3S4iNyBxxc5JO7lTGgQ1wX/4PlG2QgkW6tsXblPJpsXp0OIjNOu5vyVKgyAIgiAIQmYGkRKOLDtG53dcoJylc1CtZ2poc4h2TP6P8pTNRZcOXKFT609T208Sojls+GoTZ0hD5zCk8S3RuDjdvXqXtv2+g63FNZ+qTud3XaTZ/eayXzA6lNUfXJeCwgPp5JrT6BlHN8/e4vXiY+J5HyCeEXEBVmMkkYB1Ge4PsP7euRRBVR+tzGHMrhy8Snkr56FrR66xdTlLziwUfTOa3Srg24swZhDy1XpU4X0F4tIgCIIgCIKQiYFlFv676KR29dA1KtmkuDaHuNMa0vYi4QNcA/yD/ChXqZwUGxFLy99bTbum7eZoCYUeKsg+vPDLhUA9pArO6j2rUc4S2bnjWqsPHmEf4GPLT5B/sB9lK5SNmo1owv67cIWA0A3NleD6cPf6XU5yUb1nVarQoTwdXnKEwnKH0mVV6FbrVZVKNSvBvwFXhrzl8tDZbec4GQX2AYky7sXG08r3V3OyjJtnbqvL5hKXBkEQBEEQhMyKHoIMrgUQno+825THdUo1LcHW1xIPF6dL+y7T8X9P8vSb525TyzGP0BNTH6PTG8/QgfmHeDqiN8BXN1gVx1cPX6WKnStwoghYh0+rYjhnmRyUu2xuCs4erI6fYd9cpBdGVIczW86ywG40tCGVbVmKoyz4BvhS8xFNORpEnvK5OBsbhDmo+lhlOqluFx3hMA3RGsCWH7ZR5287Uo8pj3L0CaQbFpcGQRAEQRCETMyOKf/RgTkHqfesJ7QpiVk7fgPdPHWT2nzUkv4eOI8em9iNO5fNG7KQ3RLObT9Prx14ydLhbd0XGyhHiex0btt5ajWmBacLhiBGB7Jcqtit+XR1Wj9hI/sA+wf7s7UYsXphHUZMXbg26C4NWAauEk2GPUxrPltH9+MVthDXfr4mXdh1kTOtwdIL9wUkyNj62w66qU6LjYyjIyuOUeevOqhivZi4NAiCIAiCIGRm4DMLoblj0i46tf4U+83mLpObfP0S0vL6BfiSck/hlMDwlUXHMnQ8y5IrhELUkkcVscdXnyDy9eGoC0j5i+gMoXnCaNe0PWxFzls+D4XmDaWHelWl3TP2skiG5bXQQwXo2tHrVKF9WQ5/5hfoT3VUMXtxX4KVGJ3bIIphYS5avwh3loNVGFEY7qvCGHF3w/KFUcnGCW4YVw9dpf+m7qacJXNSnedqcKc1pDcWlwZBEARBEIRMDCIglG1dhlq+35yq965G++cdZJGrk7tMLraiwgXhoaers2CFCEUUhsWv/6OK2/McTSEoLMHCG54/PMEFYu9lqtqjMh1dcZyib0WxCwI4vek0d3SDRfbQkiNs4UWsXQjsBIlNqtgNpKPLj9Ht87dp7+z97CsMq3K7T1rTnj/3crSHsPxh5J8lwdcXHP7nKIdD6zXjcSpSuyCt/PBfavrWw+rvnRHBKwiCIAiCICSw7ouN1P2HztpYAoiEkLdiHspRLDv74sLSum/OARadj07sSl2+70RbftpGG7/ZQlN7zOQ4vBDA5TuUY5/fCp3KcTxdJIMAHca3o9BcIWz5hZAu2awEpyz28XkgS8u1Lcud1yCGYcHF9sCx1ccpf9V87KZw7ch1qvn0Q+yne2LdKdo9cw8dWXqUbl+IUNcvQwPX9aPQ3KEshEXwCoIgCIIgCLT03RVUp19Ntprq6J3a4BZwdus5Dg9Wrl1Z2vLjNnZzqNipPC0ZtpQavlSPHvutK7tG7P1rH6+DaA8okZfvsjX2iCo898zay9vsqorkJm88zNu4Fx3P4hlZ2u5rvweav9OU6g+pR52/7qAK3ty0WRXV5/+7QLF3YjkDW72BdTgUGVjx3qqESBLqdpa+s5xmvzCPp8NajUQX0mlNEARBEAQhkxN9K4bWjl/PLgXx0fcoOEcw5auYlyp0LJewgMqBBYc45FfUjWgqUDU/7ft7P7X+qCUtU4VyjpI56MC8Q7x8+bZlWeDqRKgiecvP2zkyQ/bC2eji7ouUv1p+9v2FX29IziwcnWHzt1soJE8o1X2hFq+HyAuIHHFm61mKvHqXshbMSjF3onkbFTqW52Uw/9//rVMFdEea1GUqx/vtOf1xtvpinfVfbqSHelcTwSukH3HqQxMXF6+NPcDPz5eCghOnNsxsREVG09GDZ+jC2SsUeSeK7t27T8HqOcmVNzsVL1OQChROaNoBd9VlzcDyiGvo7UTdjbFYIIwEBQWQn7+fNvaAHRsPaEOJKVupGIVlDdHGBHci5zxtyOzvAsG9ILFEtqLZqFLnCtoUzhVB/7y9jKMt1O5fi6M01Hq2BpVrU4am9/qTom5GUbcfu1C2wgnZzpAkIlwVvnCJAAcWHGTLLGLoouNbTEQMZ3KDykbns3M7zlNY3jBOVHFf/e7h3e7n78vRH+DygE5zJRoXo/yV8/H2rhy8QvOHLqaWY5pzNrYGg+vSslErqUjdQlS+XTlaPGwpJ6VAHF4RvMkk4vZd2rvjCJ04co4unrtKt65HUFRUDF+gLCFBFJ4tlPLkz0HFShWkCtVKUv5CCTmihQfM+WMlzZ26Uht7wEP1KtBLI3trY5mLO7ciadbvy2jDyv8o3qQyoFOlZhl69f0+PNy3/Tv835phY5+j8lVKaGPey+t9P6Nrl29qYw8Y8k5vqlH/wYtaJ7Ofr/RAznnakBbn+fL5a3T92m1tzDmCggLJP8CPsucM52+jJ3P10g26avI+AWUrFnNrxeHgnhPaUGLyFchFOXInCEZngXHk1o2EtL9GUNkpXqaQNuY8UTeiaN34jdyJzZo7F+7Qzqm72Spb5bHKNLXHDOo0oT0nozCCbfzcciI9v6wvZcmRIHh1kEjixplbFHU9iju6IR0xVC9i7sL/936cKnbV/7cv3lFVNlHWAuGUr3JetirrHFx4WBXSQbT4raWcThiWZkR50H16V7y/ml0zSjQpRnfOR4jgdZVdWw7Rsnkbaf9/x0ytSrYoVCwvNWtXl5q0rqk++A98YzIzIngTc/3KLfrgtR/ohhMfkzqNq9DAYT14WASvCF5PR8552pAW53nqjwtp2dyN2pjrBAYGUP7CualMxaJUTt2nqjXLUlAWz2nRs/VdAt/MfIdCQhMLt5Rg63r1fKEdtercQBtzjp/H/UXrV+zUxh5QpER+ev/rwdqY86wau4aqP1GFchTPoU1J8OVFlASAzmG7pu+hXjOeoPVfbmAXh6ZvN2bxqi83pfs0iouKox5THqNZfWdzRzUIX4RAY1QJFXk1km6cuEHX1BKvLnsvXp2oro8IEOhslrtsLspaMJxj8uoghFmu0jnpT3Wb9QbUYUPjwteWcCc3WI3bjG3J6ZABBDLSFq/6eI10WnOWS2qt9uM3f6Yv3ptM+3YedUnsgnOnLtOU7+bTW/2+oN3bDmtTBeEBU75f4JTYBcVLF9SGBEEQMg6xsXF0+vgFWrFgM3378XR6+amxLKJv34zUlhDSm+jb0XT3yl3aNWMPrfrwX7agLh25wiJ2oX+qPl6FijcqRhu+2UTFGxZjF4Zl7yxP6BymLod1EZqs6w+d6fNyX1LtfrVo2eiV7OKAZSBa4caApBKF6xTmpBE1n6nB8XfrqMvWeKo6R1mA1RhiF+mG0VkN4c3gkzv/5YVUVp1/cv0pKtagKHdug8+xLnY5PJn6OwhHtu2XHdTi3aYieJ1h19ZD9O7gr+nwvoR0einh2pWbNH7UJPp7ygqXRbOnghfVhDF/mBZ5iTnHjau36b/NB7WxxKBFoM7DVahVlwb0UN3yFBDorwpe15uohATgB21WAqTlxSYpfcbNzjeKnHMhJiqWLcbD+3/BLahC+hOcNZjaf96Gmg5rTM1GNGFhi7S/OrrwffjVhnR532UWrnHR8dTsnSY05dHpdGrjGRawnb/pQCfXnVTXLUmFaxakyCuRVLReEZrz4ny6c/EObfttB61TxasRPWUwOrmhw9nOP3bx+NzBCziaw+qP11Cnr9pTWJ4wWjZyJWdaA+Xbl6WGQ+rRv5+uo1PrTlP7z1pT/UF12cJcqXtFKvhQQRG8joAI+fK9KRQbE6dNSUrW7KFUr2k1av9YY+rUsxk1aVOL8hXMpc01Z960VTTz13+0sYxNbEws7dx0wLRgnuCYIwdO2awAvT6mDw18qwf17NeOXnr3SfrfL69RyXKFtbmCq3z22+umpVT5ItoSgjUpfcbNzjeKnHNBJzIiir58fwptW5cQzkpIf/RvEjKiIbSYGd1/6sJxbyE8/YMD2Dp7bMVx2vjtZp6ft2Jeeuy3brR94k6q3K0iZ3CD+0POUjlp26876PSGM7yczuRu09h3d9VHa+jYyuO05K1ltOCVxWy9hbAOLxDO6YchrluNaU5F6ia8Q2DNnfnMbCpYLT89/HpDOrv1PP3w8C/cuQ3h1HAsInjtcPHsVfrukxk2hUjufDnYT/CLKW9R/zceo0efaUVdn3yEnhnShcb+9AqNnvCiXb+pJbPXmfrcCJmP86evaEOJgf8V/NyMoONHZo9iIQiC5wEfV+syfvIw/h6+/sEz9Fjf1nYr6/jW/vzFX9yfQUh/YMk9rYrL6FvRdHLdKfpv2m5a89k6ThRh5JF3m3HGNGQ/CwwNoALV8rFoRYQEWIvhj1utV1U6/M8RmqIK2iZvNqKZT/3F2dsQ1QE+tjqBWQLYWhyWN5Q7sFV5tBJHZ4BgPrfjAkeE2D4pwT8XbhX1X6zDLgwbv9lMVR+rxNnbDi48xO4Pj4xuZrFM41hE8NoAD95Pn8+yadktXb4oC1p0itHN+9YgQsMbH/WlRzrW06YkZcp3C+jm9TvamJBZuRsRpQ0lpmCRvNqQIAiCZ4MOXdYFFXS0eFZ6qDS1e/RhGjluAEeYsRWODi4Oc6et0saE9AYdyeCOEK+KziK1C9Ot07fIPyhpuMfmI5pwSt/LB66qYz5U+pFSFJQtSBWju2jN5+s4ZfCTs3rSc8v6kI+fL5VuXpLqqWL1xsmbHKlBB/OuqKI1ShXZ0FY5SmanEk2K0yMjm3Ls3lLNSlDHL9rSvbh7dHTFMZo7aD4FhQeSnyqqo25GUyl1u3cuRHBmN4RKMxosRfDaYOvavXT88FltLDHwPRv63lMUGqb1NLSDr68v9e7fnmo1rKRNSUx0VAy7NwiZG1vxMxHKRxAEwZtAWEV7kXi2rt1D9+LvaWNCegGtWLJpCareuxoL1KyFwym8UFbuaGYNsp01fq0hFa5dkLb8uJV9Z4NCA6le/1oUFxlHW37azpEULu+/QsUaFKGmwxtT4VqF6LGJXckv8MF3rtmIxrRq7FpVaMezYK3esyr7ENd/sS6HPoMf8J4/99HfL8yj6NsxlL9aAc7iVuuZGuz/iw5tj4xqRgXV6dZIWDIbjHn1ezp+yFzwonaKB9YV0LHjrRfGc0IBa9AJafykYRQanlhAHzt4ho4dSuzfAvLmz0nV6yZkGAHqNaS9O47S9g371X0+Q1cv3eQYrthewaJ5uWbdpHUttwd4P3XsAh3ae4ITI9gS7fBp1o8rwN+fmrWvw8PA2bBkqXV8ly9c5xfrwT0nOZbynduRnAwjLDyEsuUI49iFNetXpCq1ynDFJTVYOncD/9+0ehedOHyOh42UKFuI/cN1ylUuQcVKJX6QnQlFdObERTqw+zgPW5MnXw4+545Ah5JLF65pYw8IzhJEjVvV1Mbcw6lj52n98p3q/XWSrly6QdF3Y/j6JlzvUlSvSVXKoz4HwNWwZPo5t6Z2w8pJYl9uXLWL7wtrKlUvzaEGI+7cpcWz1qn35j6O3YkY3PBLhT9/mYrFtKWTkhb3HhJy7Ni4n58dXP+b12+r758YCgwKoJCwYI71WaJsYarZsCKVVP+bkdJnXMeVc24GrDQHdh2nPdsTYp/fuHqLfT5xjCEhwRSi/n7uvNmphHreqtUuR6UrFrXZ8mYkvd+xcJvbrN4Hxw6c5mH9mILV+wgGFcRvhwtAvaZVEyWbsUV6hyX7beEH2pBzfDriNw7xaQZCacGlyxHufpYkLJltLh+4QsdWHae6L9SmfXMO0PmdF9hKixi41qz7YgMdXnqUHp/Yjbb//h8nr7h88DIdW3mCoy4g41pw1iCO43tfrdwgooM1CDEGjq85QbfP3eFxpAnWrck3T9+kMi1Lcwe35e+tosZvNqIK7R9khdNBmmNEhxDBawJePG/3/0IbSwwenlFfDNTGXGPWxKW08M812lhinn6xU5IPhSNBiI/AFvVBnzd1FZ0/Y+4DqoOHtP8bj1PV2mW1KSkHH7FpPy7SxhyTRd2Hb9UXhk56HR9Cf03/eTFb8Y3NHbZAc9xTL3bkj5q7sfXCs4XZi9CZjxyiQLz+7Gccr9AafFi/mDLMYXzoYc+P44+LNbUbVaYX335CG0sZSLwx+dv5tHXdXm2KOfhwNWhenR5/tjW9N/S7VIvDi+gsEIvWPPdKN8pbICd989E00ygFLTvXp14vtNfGHpAW9x4+9vNnrObnE83DzoAwd08O7JikE1lKn3Gd5AoxnCNUfPCuQIQbZylYJA91faqFzZY1nfR6B+FY4M5mKzKLGbUaVaJnBnexVC7MSO55dgV3Ct7501fT7MnLtbHEDB31FFWrk1S86KTWsySC1zZ7VOF4cP5hylMhN1tfd8/cS42G1k9k8cW10Cub146rlZGfttONUzfZJeH0prNUtF5hHr+uzsteNDvtnPwfhyWDeM5dOidFXEH64HC6ooprpB4+vvI41R9Sj85sOkM51flVH6tC6ydsoCJ1C1NsRBx3fCvXpjQ99FT1RLF6jWz5ZRuF5AwRlwYz/tti+yXUuGXyLVkNWzykDSXlv63Ov/gAsqp89PpP9P0nMx2+iAGazL/64A+Of5gRwPEhCYO7jw+h5Ua++BVtWbPHqZckQAzmz96ZSAtn/qtNyXjAila3cRVtLDGwKu3edkQbMwd+5mZiFxgtYSkBGZzee/k7h2IXwOK2bvkOGj7gS856mNYc3H2CPn/nd5shuXLnfRCsXSct7j109nlv6LcsJJwVu+Dk0fP04es/ckdaTwGtYV+Mnky/fDHbJbEL8M5AZeT7/83kuK/JIbXesWg5HDnoa5fELkD0gk/e/oVior0n8o098Rhvx6Uhs77H0xtEO4ALQtNhD1MBVYyiY5oudhG7F5nVjC0ruUrmpDYft6S2Y1uxZXb/3AN04+QN7txW4+nqHJqswxftWOA2fr0hx9Ot1qMy5auUlzvC+QX6Ut/FT7MYbqCKXmR2mz90EeWvkp+2/rxDVddEj/7aleq8UDuJ2L155sE7A4kuQnOJ4DXl6P7T2lBS0CySXNAkBauQGccOnHH6wT1x+Cy9O/gbOnrQ9n6agRfIn78t1cY8l2PqceH4bLmU2MLR8cFSN37UZBZ41vj7+3HNH+4DelO5NUj5u3rJVm0s49G6a0NtKClwqbAHmrXNwMvNHa0GuCb4GLkqbCB200MAwJJiT0jBz99IWtx7EN8fD/uZk9zYwp4VH++fGb8s4YpEeoNz+9nIiXaT9ODeg0XZHpv/3c3CFxUkV0itdywqjojDbubahlaLitVL8X1gKxU97iPEcPcWIkyeBx1b7iGZ/T2engSFB2lDCSAiw+3zt2n9V5s4Ti7cHMzIXjQbi+Sn5/TiCAwQtuvGbaB9sw9wKuDz2y9Q7J0YDmeG0GNXDl2hkxtOUY5i2WnWc39TnvK56c9n1Irv0etUrl0ZCs8fRk9MeZQqdCxHWbKbvwOWvL2clr67go4sO0ZBYUHcCU4ErwmnbNTQ8QAiFFlKgM+cGXh4beXvtgYvTfiPGYFfHvw94XLhpz70tkCWOGezeTmiWMkC3HTbqGUNbUpSMA/LoDRvl9S3zwx8uM2OD82uOD681Gxh6/jQlP/Dp39yJ0FrChXLRx//OJTD5iC83Cc/v0LtHm2szU3M1B8W2rR0JofOvZpzseWrhun6MiilyiU/bimihlSoWlIbSwxaNcw+wjqwaJoBX0n4yqWU6T8tZl9dM+Bygea951/tTn2GdOZ7ypNSkQJY0BG5Re/IahS8aXXv/frFbLpq4xw2bl2LPvrhZfppzmj6fta79OSADjbFL5ra9WcotZ5xR8xUhbetCm+uPNlpwLDH6fvZ77L7BI4HLibw1zRj99bDtGCGa1a91HrH4j6H37c1sHSOHD+A3viwL98HuFZINGPGqkVb7D6rGYl9O45qQ0mBT7Y1nvoez4zE3I5hv9gdk3ZR2ZalqOlbjbnjmk68KmwRScGayl0rUu3nanJmtL6LnqLwvGFUvEkxunrkOmVThfHFPZcSrLWK+hyevkX1Btah7EWy0TMLn6JGQxuwL3ChGkkzjcZq/r4Alfe85fNQq/cf4c5z+1UhjvTFInitwIm6ftU8BmCBIo47DTiiQGHzmjsw80N0BKzGL7z+GH09fQS9O34g+xcjoDs+vmbg+I4ecM1qYQvEh4WfYueezbQpScE8LIOCOMWuguMb9HZP+mbGCBr15Yt8fJ///iaVqWTeIcjW8W1cvYvOnbqkjT0AHa5ee79PoooMLEeP9W1l2pEL/pF/TVqmjaWcLr2bcymqCgszMF1fBiWlgfpbdzO38uK4tm/cr40l5fC+U9pQYpD5LaWcP33ZZjxq+GKO+XYI+7Q1fOQhatqmNj03tBt9/tsbPJ7e5MiVlX0NP5/4Bo34/AX68o+32K84d74HH+u0uPfQmQsZIc1AbPC+L3WxdHpCZQGhEvur7w0zYDHXXRvS4hm35uzJS7Ry4RZtLDGoAL739SCq27gqBQYmNGHieBq1qEHvfTXYplVvwcx/2Y89ObjrHQt3E1vuOj2eb5soXXjCfdCasmZPKuIRKnOfjY5eGQncs0f2m79XcB2tW0mAp77HMyMBoYHU7YfOqtB9mPKo4hLCMiA4oRKNtMIznvqLbp+3HXLVxzfB9QFRICp2LM/xdZEZDdEYGr5Un2r1rcH/EcmhSB37sZvB9t920N8D5nEcXlx7uFuAip3KU5dvO7LIFsFrxZ1bd0079gB83FJKtpzh2lBSXHkh44J2fKIpva++/Os3q8aRHnQQ9/D517prY0mBwPB0jMeHzhpGaxQy2z2vih5bmB3figWbtKHENG1b22YvcbwszYAvXUaNnVy1VlnKb6PShYgEZqAjma17xh3+uysXbra8tIygiXfwO71Mnzt03IHFt1f/9nyvpAewKCEWNzrW6PsAy1/b7g8nsnqnxb23fJ55JyJUGPAcmYHnCk3oZmxavdv0mqQFy+ZuML8f/HzZcmcrHCQsvP1svPcgcGAZdQV3v2PhQ1qhWkluaYGY05PH4D+iMFiDlixbLTKIYpKR2bn5IH03dro2lpRm7WprQ4mR97jngLi6ASEP/Gbx7ju5/jQtGb6M/XprP1+DXRB09BTBTApeLfq7AR3ijq44bnn3xkTEUpuxLeno8mP07//Wsk+xkUBVoIvgtcJemkw0aaUUhNCxxb17zsUdhGUDVqVuT7Ww2SyJHqn42Jlh5vvkSThzfHlxfEXNkzJYHx9eamYhv0DdJkk/NDqw7KD50hr4AzrTscoTwcuhTddG2lhiEPbJ7AOA0GBm4BroVsPkgpcXQj2ZUadxFYfbb9mpPuXMk00bSzvwcUXTqZkFzkha3Hu432EtM6Nl5wZ2KwRIBACfxzoPV2HRgCZgCARYhSES0xoYG2zdDwhhhkqGPRAKzpaIR/gvZ0mNdyzELu4ZVJJgIf7+r3fpp7nvceuAbq22xpaI81Shho57ZgWtl3BRWbFgM3305k804f0pHH7NDFTIW3Ssr409QN7jng0yo+UqlZPafNSSY/b6B/lTXHQcxUXF0z+qCD659hRHZ2DUVxKEqS3MKrw3T92yWG/BiX9P0p6Ze2n77wmtg0hekSV7FrYKl21blpDS2BoRvC6QJUtih+3kYOvlCWLUm8MZKtUo7VRHIQgSM+5GeLb/l9PHZ6MDoPXx2Wo2Q1No0ZL24zxWrGb+8YQ4zKjUb16NwrMlDRyOlwx6PVuDHtFmVK9tO2SQs8CPztbH21FIqfQEPsWw8jkiLe49uJuYfSAALPr2gNiFCBv4Vg/qM7gzi12IXohfd1TwXeXMyYs2K+SwsjqDLfGDKCDOCsW0esfCimsrzJitawpsZWZMbwY9/oFpQaxsxLaf8t18OmLDPQrASo+KhtGariPvcc8mvEA4R1LQCVUF8OElR2npyOXU6NUG7FJwZnOCX/6233bQlp+304XdD0I+/vXcHIsghqhdMWZ1ok5wO//4j9aN32BJa4ywZV1/6ERZcmZhqzIytAE8NwWq5KPaz9ZI8gyJ4HUB1FRTij0LclCwez8wtpr+vAVnj89Wr3UkXHAUiLxoKfMXaUZuUoQ1qXn7utpYYjasTMhRbsRWh7WHTGLcuopZjFsdW8kQPAE0rztDWtx7504m9WkEeD7Sw/qdEuzeD+Wcux/sdew8qwpqd+KudyysjSePnGPfaaS0H/3SNzTw0TE2w8R5utEiOSBOMNIOw3JuhrzHMxZZVQGct2Ieav9ZGwrNHUrZimSlqJtRLHbhv9v9x86qIE5omVr35QYq1aIkbZ+YYK29dOAyBWTxp0v7LqkC9xanDMY7t/tPXWjtuPV0/N8TlK1YwrsN/r9Ve1ShAlUTWn+MLVrWrVsieK0IsfMCc0f4I2Q6soWtZq3UBp0gELTambLMhq+gJ4MMU2bAN9XsGI1l3TLzzlTogGJs8s1o5/CRDnVNrSj4ABj9D5FhC52IrEGv8rJ2Mok5C86jGXgWbDXnZiTS4t6zFcotj40WEE/GVnQDWEHNWiXMKFDEdsdgZEjzFJA6F76sCJs2uMeHnEAFYeFQ6USGO3vfG9u234wFBAmylsKqi+QYZh3VdNLiWRLcB2Lf1h/4IGoLMqmd3nBGveZENfs8REFZg+h+/H36b/oeFrNIIZytUDid3HCaw5XBItzkjYdpw4RNtH3STirZLCFxSodxbWn1R2s4Fi+AFbdgtfxU7YkqdltFgAheK/AhtyU8XY0RasY1GxEgQM686WONQexI9JJ3pmTEJqDou+Yfjls3IkyP0Vj27rCdkOHWjQfNoxntHEI8IFOZGUYrL/x3zV4iVWqVddrKaQ9brSZZQlPuPuQJpMW9Z0sY6Z2iMhKoYJkREuq8JRXWPjRzm5HcJBTuBEIXlttX+/yPfVm3rd9n05/VW8E1QuSLr6YP51T99jKq6aTFsySkLu0+a0M1n3ngalCmdRna//cBajC4Htfiaj9fizZ+tZlyFs/Bgtkv0I+qP1mNzm05lyhSw9Nze1ORWgl+2fYsutaI4DXBlmXkwpmrDmsQjjhvElJFJ29+86YcIWU42xnQVdzh4pKe2EpEgdA/+n1uK+GEO8KR2cOer3tGIi3uPbQumBEQYDtWrKeihxKyxlV3Lz8bTdyxTvaTSC2uXLxOo1/+li25trL0wcqJ8HuIOe0Jofdc4b2vBiUq6FRqBlw41i7dTsEuVMrkPZ6xwTclNHdC9BoIU4wXeqgAdf+lC09DRzZQ9fFKVKFTOZ6PUqBqfur0VeI07f7B/okiRDiLCF4TjPEQjSDYtT0fM0fg4h2xEQMXHWAQbktwP7YsXfiwGJM6uFqy5XDcacmTQe/laiYdz9DMpwf9P34wafB/WHZh4XUHwTYscemRPS01SIt7DzFIzYixIYQ9mRAbHbhctYDaqgQEurmfhCughfDjN382dRECCBP3zuf9OYIDxC5Eb0oTHaU1iBtuLD2ea8PJOsw4sPs4Tfl+gTbmGG98j9vyPY5LxrNrS7jbej+kNdbWV4zDlzcoLPF1rdS1Imd04/naOrD2ugMRvCbAed4WruY/N3Ls0Bmbef/L24i3KKQcW72g8SIwJnVwtdjK7JSRsJWIAuF60PR60qRTB3x37eXAd4UsNsL04eWN38/opMW9Z8u3NdLGu8aTsdUJ7PbNCDYYOAPuHbgYmZHNQRi51OTXL/429VGGC93gEb04wU5KE8t4GojNOuDNHjZdTFYv3krL55vH1rXGG9/jYVnNjyk5Vmez7HPAllEhMyKC1wT4E9mqea1Zup1jRSaH1Yts5++u4YYe78nFz8+Xs9E4U0o52VPak7DVEeL6lZtOf0QdkVHPIQLbFyuVNMvbjo0HOMW2dXpVgGNwF7ZCy+EZu+QFqT/T4t6zZQXE+Uvuuyq9yGUjqgQ6FjmbCva0jdTwIG+B9HEbQ8vgfhvZ0Z54vi3VbFBRG/M+8Iz3GdRJG0sK0vza87HVSYtnKa3JntO8Y25y0h5fPm++jjsSZnkLInhNgMXElo8iAmivUmulroKQKrYyWdn7vbQATUUvjeztVGn/eBNtLeeIjkr/pmk0rZmBZtJL565pYykjNc9hatPaJBEFfA3NQpSB6k50MHGWoiZiW+eAF6RPTYt7r1hp89+Ahdye+AOIyPHtx9Np0jfzaPak5Wxt27R6lypAjjqdoMadz3gJO6HonO3suWebuXhCVJIiJewnrkgtbKXmhnXy4VY1tDHvpX6z6lzMgFjFPXj+zBVtijlp8SylNbaSJ9mLrW3G1Us3bHaqt/UbmRERvDZo93hjbSgpf/72j82YgGbAn+yHT2eyo74ZCGKfkTvp2PMRiryT/s2qiN9pFoIL7N5+WBsyB3nb1y3fwWkod287zEkYICIgCG01m2Y06jxc2TQE2MoFm7WhByCzlK1g+8kBTdi2slWhNcXRSx8hiaI8uNNJWtx7JcsUpiw2XEy2rLWfSWrtsh3svoK0u/NnrKY/vl+gvqv+pM9HTkwUrimtnnH0ZShSwjxmKjo5ObofsM8bV5lX1JCBLb3eszdsROdBnGRv6aDpiKcHdaQ8+c1bdCBavxg9mSLs3Eve+B63FdoRLjzYT2fBu9IWZSsV14YEEbw2QNB7WzVSdKjBB8GZoNV4gMe9+7vNzm54AbTq2kAby5hkCUlwMDfj+OGknZ7SGvjIVa9jbkH/d/FWu82+k79bQL+Mn03ffDyNxo+axJ1ORg35hsa8+oPNCkxGA352Zr2pzcRFNRvnMSXUtJFRDR+kf5ds08aSgqxZn7z9q0f3sk6Lew+dCOvZyC62ctFm/niagRBgEJFmlKlULFEmubR8xh9uVVMbSgx+B9Zneyz8c43NWL7oBJZu2Dh3N9V9tSfiM5pLij1QaRo4rIfNcIYQn19/OM2mAPXG93j1euVtPlfTf1rs1LsN2uKf2eu1scTAnaF4GfNO+JkREbx2eHJgB5v+cXip4mGZ+es/dPHsVW3qA2B5Qt7wEQMmcCxTMyA0Xnj9UZtxfzMKOI4Ctqx0/2y39JiOiYql3Vudr7W6E1shuNCMtmDmv9pYYpbO2UCH9piH5UJnh4x+3Yw0UcWArY4lRqrXdZ87g06zdnVsWm7QixsxS43WRlQ4YZEcOegrttx4Omlx77VRfwPPoTV45r7+aBq/j4zAN/vHz/606bbQsUdTbSiBtHzGm7SpZTNt88QJc9m/3BqIxhXzN9G8aau0KYlBpABnYr2mFrlt+J9C0Ji5DkH04R5YbCPTWkYF16H70y20saTgnkf6YVuk93t815ZDfP8lp5ilVIYgrdnQ3H/74rmr9P7Q77ijvFklAC1bKxduprHDfrYZX/qRjvVsCurMiN+oUaNGa8OCFfgIV61Zlras3WMa5gYxI48eOK0K200c3HrHhv206d/dtGjWGvrzt6Xqi/+QzfBKuAn7v/GY3fBOB9WH1OxBRTgpW/nijeAhM7MswxeqRn33dpK4cPYKnTCx9MDCvWn1btq38yhN/3kxHd5/ilqoDyFIy+PLmTsb+zmZLY/Uubeu3+FOEbjml85fo78nr7D5Aq2qXrOe/dq59UWSkms1d+pKbSgxjVrUcDqsEY77zs1IjiRii7DwEOo9oL3bX6CwHkLQopnRGjxjuHeWzttA29XnC24WM39ZwhmqbIWe0qnbuKqpSHPlfEFYm1lIkR3K2R71aXHvharXBnZCszTQCDOHJk8E6Ief357tR2jS1/NsXmsIw849m2ljD0jOM67jyjn380sQ15v/3aNNecC9e/dpy5o9/N5AxBt07tmz/TBN+3GRzWZd+NcPHfU0ZTWJ0JBW7yBk8FxuI8Pif6qIgqUXFndYsdcu3UG/fzWHE1LYsj7inOHcWeOOd4EjcP/oYQutgYB0ROkKRenI/tN05eINbUpiTh09z+8ELGdNWjxLtu4JgHcQ7r/klMvq8Zpds+KlC3FLi1lUGtwTm1VNAQsuhO+OjftZa8AIgGdtl6ox4kw6FgOkaH7+le6mFeHMilh4HZC/cG6OjWjLz1AHDyEsuXjpw7/XXjMV/O1eHvUk1WlcRZuS8WnWto5NIYRzA6sPrEmwhtsKzZbaPD2oE7uqmLF6yVZ6d/DXNOjxD9hyiHEz0NQ78K0ebhd9nkDLzvXt5qS3F70kpXTq1YzKVbbtawbL4ckj5/hDl54+d8klLe69Tk80tSnS8OGEpev3r+Zy5zRYj8woVCwfZ8AyIy2fccSHfmpgR20sKRAlSN7w0+ez2LhwUhVJZsB6N3hET/W40rfjDiIV1HnY/H2PpniE50IKXFwfWO1QObGHrQQdGQHcQ/1ee5TCsiYkITAD1xZizgxve4/j3sAzZ+/dCgsuKkPw64XGwHvQnsbAuR3yTi8KDPKeVkh3IILXCXBDjp4wiNo/1phrjimhplrr/+CbIaYB/zMy+KC0e/Rhbcw+R/ab91hObfDwv/nRsxzg3VXwYkTT+xsf9LXbgScjAwuQvfBIqdkk7O/vR6+Mftql5wLXpN2jjW02f3sSaXHvYTm4SOGcJKdiggr4iE/72YyxnNbPeLP2dejld580tcw6A4wUwz/rR5VrlNGmpC9PDepos0OeLWz1sEe0oIwMntnnX+2ujSUFYu77T2ay8cgab3yPIyzpa2P6mHYedhW4jYz8vD9XXoXEiOB1EgjdR59pRf/75TXOzgLLr7OgtoUOE6MnvEiD1VoXeuZ6I937tKTeAzpw07ct0MySni8a+KkiwDvyt6PXNl6A9oAQg9Xs3fED2LKQ0gqPp4Oe0GbgPKS2cMC1QcsHPoRoUrYFrhliAb//9WB6rG+rDNNklxb3HoQuzsn7Xw+iBs2r28xOpYN9QNPuGx/25Q5FtqI96KT1M169bnka+9Mr6jG1tntPGME9/Nwr3WjMN0OoWCnP6bCDczZy3ADq+ERTu+cPQLS8+PYTNOKzF0yvIVxTbFlAMwqo3Fq7vhhBIoUv3pts2lrgje9xHMfHPwxlNwtXxSqOv0K1kmy1xj3mzkg63oTP/fsZuG0knUEz3okj5zgG4PVrtyx52v0D/NgqkTd/TipWuiAVLp7P4QNpBvwazfxzkOTA0YcMwMfRrPkXD39qNnXAbxlxBE8fO0+REdH8e6i5lq1UzONqnfA/PHbgDF2+eJ0zU0WpL1mEykKBH16xMgW9qnOaIyaM+YN2bkraKajSQ6Xp9Q+e0cbSBqRgRTMerFlRd6PZTzW/+iIvV6VEIqsuQhqZNe8Fqfe4J4vhtLj38A45efQcn0v4N95Vz2NwcBBXwlFphx8yfs9V0usZxzsX7gvo0Y/fjY2JTTiebCH8vi1ZrohLKdrT6x2LToP4dqBp+vbNSL6/s2YLZWNI2crFKVeeB53c4M5zz8SXNyDA3+sr4M7ije9xRKGBr/Sl83ARilKfuRiOeQ0tkSU0iCuV0BloyUAlz5Ms1p6KCF5BEBiIxpd6fswfD2tg1bNnjREEQRAET0ZcGgRBYJB1y0zsAndmVxMEQRCEtEYEryAIzFYbWbngQuCukEaCIAiCkB6I4BUEgd0Z1i7foY0lplnbdMxQJQiCIAhuQASvIAicLQsJCqxBSL7ajSprY4IgCIKQMRHBKwiZBAS3R4Yya9ATeNrPi7SxxCBzkq3c94IgCIKQUZAoDYKQCYDLwrDnxtGVSzc4TF6VmmUpe65wDuy+YcVO09BKiAuJUGTJCaknCIIgCJ6ECF5ByATs/+8YfTriN23MMYjvOOqLgV6bJEUQBEHIXEhbpSBkAv79Z5s25BikMx3+aT8Ru4IgCILXIBZeQcgEwMK7bN5G2rv9iKn7AkBWohad6lPbbo04dacgCIIgeAsieAUhE4H89CcOn0tIMhERRb4+PpxmtnCxfFSqQhHy9ZVGH0EQBMH7EMErCIIgCIIgeDVizhEEQRAEQRC8GhG8giAIgiAIglcjglcQBEEQBEHwakTwCoIgCIIgCF6NCF5BEARBEATBqxHBKwiCIAiCIHg1IngFQRAEQRAEr0YEryAIgiAIguDViOAVBEEQBEEQvBoRvIIgCIIgCIJXI4JXEARBEARB8GpE8AqCIAiCIAhejQheQRAEQRAEwasRwSsIgiAIgiB4NSJ4BUEQBEEQBK9GBK8gCIIgCILg1YjgFQRBEARBELwaEbyCIAiCIAiCVyOCVxAEQRAEQfBqRPAKgiAIgiAIXo0IXkEQBEEQBMGrEcErCIIgCIIgeDUieAVBEARBEASvRgSvIAiCIAiC4NWI4BUEQRAEQRC8GhG8giAIgiAIglcjglcQBEEQBEHwakTwCoIgCIIgCF6NCF5BEARBEATBqxHBKwiCIAiCIHg1IngFQRAEQRAEr0YEryAIgiAIguDViOAVBEEQBEEQvBoRvIIgCIIgCIJXI4JXEARBEARB8GpE8AqCIAiCIAhejQheQRAEQRAEwasRwSsIgiAIgiB4NSJ4BUEQBEEQBK9GBK8gCIIgCILg1YjgFQRBEARBELwan/v37yvasOBFLF26lO7evcvDXbp04f9CxuPWrVu0atUqHi5QoADVrVuXh3V+/fVXun37Ng8PHTqU/3s7me2Y5VkWBEFIOZle8EZERFDHjh21MbKIi4xOiRIl6NSpUzysXmP+L2Q8/vvvP6pRowYPd+7cmf7++28e1smM1zmzHbM7jrdfv3509OhRbSwpfn5+FB4eTtmzZ+ffq1q1KjVr1oyyZcumLZG6YN+wjyB//vw0bdo0HnYV43ZKly5NP/30Ew87w8iRI2ndunU8PGbMGGrUqBEPC4LgHWR6wXvz5k3KmTOnNuY9H1ARvN6BCN6kiOB1nYceeoh27dqljTkHRHDXrl3p7bff5vVTE+N9XqxYMTpx4gQPu4pxO9WqVaOdO3fysDPgWOfOncvDs2fPFmu6IHgZ4sMrCC4CyxdKz549tSnpB6xS48aN4+INOHNuve2Y05r333+fBZ2xTJ06lX788UcaPnw4tW7dmgIDA+nevXs0a9YsqlOnDn333Xfa2oIgCBkTsfCKhVdwEV/fhHpiSixRzuLIwuttpOW5zSi428K7cuVKatq0KQ/b4urVq2zZ/eWXX7QpRAsWLKB27dppY+5FLLyCIKQ2YuEVBEEQEpE7d272f+3Tp482hWj06NHakCAIQsZDLLxOWHjRI1yfjk4dOpcuXaLVq1fTxYsXuXNHy5YtqVChQtrcB+zZs4ctDdevX6fChQvzcrY6g5j9lt5T/9y5c+xXV6ZMGWrcuDEFBATwfDNcsQph/zds2MD/sWy+fPmoSZMmlDdvXm2JpKTlObEmOfsLcB4VRSEfH59EvxUfH09r1qyhffv28XjJkiXZAhYaGsrjOpGRkRQXF2e5X4oUKWKxmumdfpJDTEwMX9/jx4+zhdN4fR1ZeG1dh9jYWEvP/qCgIMqSJQvf6wsXLqRr165R/fr1qXbt2jzfjOSeYyNYD9cY1xq/jX2oWLEiR5pAk7kRV86trWM24/Dhw7R161Y+ZmwH+49jxz1ni5TeJ2Zge1gP1xP7gnGISnQOQ7FHelh4dXBPovOXDu4He/dAcu8bsfAKgpDqqC8lJTMXVXBB8FuK2TLqC5jnqR9MHj9z5ozSo0cPRRUnidb19/dXxo8fb1lv6dKlivqhSbQMivqRVhYvXmxZzlj03woODlbUD7sycOBARRUHSbaRK1cu5bvvvjPdBoq+HRSz+SiqEFBat26daLt6UT/2Srdu3ZQjR46YrpuW50QvKdlfFFW88LL4j/GoqCjlww8/VNSPcpLt4fzOnz8/0fqq4EyynF7Uj2uiZZ0p9+7dU77++ms+duvtqWKIz9u2bdss0/D71tuwdZ1//fVXy/R3331XmTVrlhIWFmaZhrJ9+/ZE66Ck9BzrZeLEiUrRokVNt5MnTx5lwoQJfPz68q6cW2fubVWwKJUrV060HWNRBZ+yceNG03VTep9YlxkzZihqJSbJunqpUKGColYSTddFceZ4HRWcQ30bquA1XcZWUSsblnVxP5otk9L7ZseOHZblcbxmyzhTjNtx9Zk03oO4f8yWkSJFSsYtHi14IyMjlX379imXL182ne+O4orgxQdw+fLlSo4cOXg8a9asSr169ZScOXNa1sfLHUJi1KhRlmn4wGM544cD2zI7Lv23smTJotSoUYOHIX4ef/xxpX///krt2rUt20B55513kmzDuB0Us/mTJk1isYr5oaGhymuvvabMmTOHy4svvmiZh/1cu3ZtkvXT8pygpHR/UTBPX2bLli1K6dKleRyiHOKobt26SlBQEE9DwTU4duyYZf1+/folOq/4TYyjtG3bNtFvOVMGDx5s2RbOUfPmzbmC065dO8vxVKlSxbJMcgVvzZo1LRWRQoUKKRUrVuTfu3LlSqJ13HGOUXAM+m/jfsB9+/nnnytDhgzhcX0exvV1XDm3to5ZL8OHD0+0nccee0z55JNPWLS2aNEi0bw//vgjyfopvU+MZcyYMZblcM9jHBW7uXPnKq+88gpXbDEvICDApgB3dLzOlJQIXhyfvu7evXuTzHfHfSOCV4oUKaldPFLwxsXFKSNGjLC8aPFxbtOmjXL27FnT5VNSXBG8EA346OEjhQ84BDnm37lzR2ncuLFlG7rYwwcOH1QcD5aDwIA1R1/um2++SfQ7KMaPG35v7NixSkxMTKJlFixYkOjcrFu3LtF8FHsfSXxY9Y8QBNDhw4eTLLNs2TLLxxjHYS1E0/KcuGN/UXQho+8ztvnmm28q58+ftyxz4cKFRCLz7bffTrQNFH1eSj7Mf//9t2U7ODcbNmxINP/kyZNKy5YtLcugJFfwokBQ/fjjjxarKixyxuXddY7xG/pvlixZko/DOP/QoUO8rr4M7mXjfH26vXNr796eOXOmZR4qihCs1svA4orzgWXwf/fu3Ynmu+s+wTnF84n5+fPnV06dOpVkGYhCfRutWrVKMh/F3vE6W5IreP/77z/LemhpQquTcb677hsRvFKkSEnt4pGCF5YP/cVjLOXKlVMiIiJM10lucUXwouClvmvXriTLwGpj3A4sQefOnUuyHJqw9WX69u2bZL7xtyAerOfrxbgdWASt59v7SDZs2NAyDy4G1vP18sEHH1iWGzp0aKJ5aXlO3LG/KLqQQSlSpIiyadOmJMugGMUoRLv1fH1eSj7MlSpVsmwHosdsGVQKevXqZVkuuYIXwm3hwoWJ5lsXd5zj2NhYpWDBgjwPQs9MbKLo+wYR1KdPn0Tz9G3bO7e2jjk+Pl4pXry4ZR6sqMb5xmK0vHbo0CHRPHfdJ7As6/PhwmE9Xy96hQ/C0ez9Zut4XSnJEbyoHBlFYMeOHZMs465nUwSvFClSUrt4nOCF5US3GJgViCOz9ZJbXBW8ZhYMFOy3vgwsdraa5vGx0ZdzRcBYF1h9dTcCCBpbFljr7cDCpk+Hy4RxnnW5deuWxeUAIgC+jPq8tDon7tpfFF3IoDn69OnTieYZCyxx+m9CjFjP1+cl98O8efNmyzZQCTBbRi/GD3hyBa9ZJcJY3HWOjdZK+HMa1zMWCHlsx2yevr69c2vrmI33kSOxgxYINL9jWTw/RvcOd90nqATOmzePfe0vXbqUZL5eevbsadmOmV+1reN1pbgqeG/cuKE89dRTlnXQomRtCXfnsymCV4oUKaldPC4sGXp0I+C5LVzpdZsaGHssG0FPeB31xc49sM1w1KvcWdCD/5FHHuFh9ULSli1beNgR6GWu06ZNG23IHByH/hvqB4vUjwkPW5Oa5yQ19jc4ONhuL31VnGtDZIl04E6Mx9SpUydtKPXImjWrNmSOu87x2rVrtSGiDh06aENJUSu0vB13g+gAOo562Ktil1q1asXDeH42bdrEw0ZSep9UqVKFz0P//v0pT5482tSkGCNWqEJTG0o9EMkAkVSsy+LFiznu7vPPP8+REiZPnszLh4WF0cyZM0mtnPG4Tmo8m4IgCKmFxwleRx/nbE6GrsoMVKpUSRsi2r9/vzZkn927d2tDide3Ra1atbQhos2bN2tDaUd67C/EUGqCSp2Oo5BUaYG7zrEe9gpUq1ZNG0o7jL9fQwtNZY/q1atrQ4nXdZbk3CcHDhygX3/9lQYMGMChwQoVKkS///67Njch5Fpq8+qrr1Lz5s2TlPbt21O/fv14/7AfEOJPP/00C2TMsyajvUsEQcjceJzgrVmzJhUvXlwbS0r37t21IcFoMUWcU2dADFCdiRMnUt++fe0WWH10zp8/rw2lHRltf53BeEwFChTQhtIPd51jo3UyPY7L+Awg/qsjjMs4+/wkhwsXLtCIESO4JQTCEBZUpPFFrNp69epR+fLltSXThlKlSnGFxFiMVubWrVtzvGZkW8P9gHjDZnjjsykIgvficYIXzZ1TpkwxbfIcNWoUB40XEjBamBC43xmMy6EJeM6cOXbL3r172aqOgmQGaU1G219niIiI0IYSmnrTG3edY+NxGQVUWuHq7xtdbu7cuaMNuQ8klxgzZgwLzI8//piTKcCFZerUqZyg5eDBg/TXX39xIo60BBnU4BpmLBDgOv/++y/fl3BlsIcnPptw9XIH+A4JguBdeGRq4QYNGnAz2tChQ9nPrnfv3rRkyRIWvMIDjB94Z5tX8bHRgY8erHLOli+++EJbM+3IaPvrDMZrZbyG6YW7zrFRIKVHZSMkJEQbIs7a5gjjPjoSd8lhyJAh/M6Kjo5myy78ViH8nnjiCbs+vekBXBdee+01Hsb+wgf6oCrI7eGJz6bRJc5V9xCjH7YnVEQFQXAvHil4AdJpjhs3joUuXqZ6BxPhAcZmWOPHxx5GN4iM0KyY0fbXGXLkyKENJaRiTm/cdY7T+7hy5cqlDSW4ETjCeKzGDmjuAFbTb7/9lofR8Q2dwtLDr9kVxo4dy+4M4Pr169SuXTt2u7CFJz6bxg6wENauYHTRcPf9IAhC+uOxgldwDDrA6FSsWFEbsg96juts27ZNG/JcPHl/nXUjscZ4rZLTWcrduOscG7ezb98+bSh5JOfcGn/f2KHKFqnZyW727NnaENGLL76YSIx7KmjGnzZtGpUtW5bHT548yVEmbLVCeOKzCctswYIFeRgGAWcrXogMdOTIER729fVlNxRBELwLEbwZFIRSWrlyJQ/7+PhQ7dq1edgRjRo10oaIreeOmp4PHTrEPn1o3kwNP0dHeOL+ZsmShf8nt6OT8Zjmzp2rDZkTHx+vDaUe7jrHRl/Uf/75RxtKCtZBqK6RI0cm8h0FKTm3rpxXiLhly5bxMPx93d034Ny5c9oQWQRkRgAWUrhd6C1GcMN47LHHTO9DT32XGN+F6HznDOvXr7fsU4UKFVI9UosgCGmPCF4PBi4dtkDHPt160aJFC8qbNy8POwKWiwYNGvAwmisRd9MW8OVDJ5tmzZqxVXLRokXanLTDE/dXb+6ECDh69CgPu0LDhg0tkUgQouzvv//mYWvghzp8+HBtLPVw1znGdN2tYf78+TbPDXr0o+PUhx9+SH/++ac2NYGUnNvGjRtbIgps377druj+/PPPLVZkRH4xumO4A6NgOnv2rDZkTlqEInMFRI34448/2NIJcB5RQbHGU98lxkg+n3zyicNY2uhcaOwf8uijj2pDgiB4FXoGisxaXM20ZjYfxbgde5mCdriQOQtl8ODBys2bNxMtgyxAyHykL4Nc9cb5KPb2ecOGDZZsduqH2TTzkioGlC5duli20b59e041qs9Py3Pijv1FyaZl0MJ/43Szom/HbL+xbX2++kHlafgtHK/1sraKKvos28iePXuSY1JFktKmTRvLMijJzbT28ssvJ5pnVtx1jseOHWuZX716dUUVQonm79q1y5IhEMX6d5w5t/buvenTp1vm5c6d2zQt8KRJkzi7GpYJCQnhjGHG+e64T2bMmGGZV7p0aeXatWuJ5qPgmF566SXLcihmGb7sHa+zpVoyUgvj/OvroKiiMMky7rpvjO8ApHPGuXGm3LhxI9F2UFRxnSh1d9OmTZUDBw4kWQ7lzJkziVJA454xZt2TIkWK9xQRvOpLU3/ZoZgt48wHx7gd64+fsbgieEuVKsX/w8LCOFVr7969ORWtPh9l+PDhSbZhvR2z+ZMnT1b8/f15Pj5Y2Pbvv/+uzJo1S3n//feV4sWLW9Z/5JFHkqSCTctzgpLS/UVxl+CdNm2aZX5AQAB/MKtUqWIqCGwVfPCffPJJy3ZQ6taty9NatmypBAYG8rQWLVpY5qem4EVxxzlG2uCuXbtaloOYf/7555XRo0crffr0UYKDgy3zxowZk2R9Z86to3sPz4Q+H8fRoUMH/v0RI0Yo9evXt8zDvsyZMyfJ+u64T2JjYxP9VoECBZRhw4YpP/30kzJhwgRO26v/DgSxvhyugXE7KI6O15mSHMGLgntAXw/l559/TrKMO+4b4zvAlWLrGu3fv18pWLCgZTkfHx+ugPXq1UsZNGgQP2d43rC/+jJZs2ZV/v33X9PtSZEiJeMXEbweLHhhvcDLGR9+fZpeChcurEyZMiXJ+npxZp+3bt3K4gofA+O29QLB/c0337CIsV43Lc+JXlKyvyjuEDIoEKsDBw60LKOX5557Lsmy9gr28+OPP7bsl7Hkz5+fRevevXst01Jb8KKk9ByjxMfHK+PGjeNjMNsGBN7MmTNN13Xm3Dpz78FSCoFj3IZeIHLatWvH1mazdd11n+D57devnxIUFGRZzlggiOfPn6+sWrXKMq1t27ZJtuPM8ToqyRW8d+/eVWrXrm1ZF+du0aJFSZZL6X3jbsGLcunSJWXAgAFKeHi46bp6QcUHQvjYsWOm25EiRYp3FB/8UR96wUNAOLZTp07xsHpt+L8qHLlTBfzkEC8UGZuQkU73sUspyG2PVJ/YfkxMDPtRIm8+OtuoHzBtKc/BU/YXkQjUDz1fJ6SpdSadrRlRUVG0ZcsWOnPmDPs6lilThn0jEURfFYCWzjQYN/qGpibuOMc4L4injd7v8FPFvqNnP7bjaBvuOrc4p4jGgONA5zRkV0PnOmP4qtQG1w9RDE6fPs0duxCDFx2rkFZYR++kh/Oiijgezoh44rtEFdnsK4/06wg9hmdMFbm8b+XKleN7Uu8sKQiC9yKC18MwE7yCIAiCIAhC8pEoDYIgCIIgCIJXI4JXEARBEARB8GpE8AqCIAiCIAhejQheQRAEQRAEwasRwSsIgiAIgiB4NSJ4BUEQBEEQBK9GwpIJgiAIgiAIXo1YeAVBEARBEASvRgSvIAiCIAiC4NWI4BUEQRAEQRC8GhG8giAIgiAIglcjglcQBEEQBEHwakTwCoIgCIIgCF6NCF5BEARBEATBqxHBKwiCIAiCIHg1IngFQRAEQRAEr0YEryAIgiAIguDViOAVBEEQBEEQvBoRvIIgCIIgCIJXI4JXEARBEARB8Gp87t+/r2jDQjqhKAotX76cli5dSufOnaOAgAAqU6YMPfnkk1S8eHGaN28eqdeJAgMDqV27dtpaqcuaNWto/vz5dPbsWQoKCqLSpUtT9+7dqUKFCtoSQkYB99Xdu3d5uEuXLvxf8D5u3bpFq1at4uECBQpQ3bp1eTijklnvW3vH/euvv9Lt27d5eOjQofxfSMDb7n/B/YjgdcDixYvp0qVLPNyoUSMWfu4ED2nXrl1p9erV2pQHfPbZZ9SjRw8qUqQIj9epU4c2bdrEw6nJiy++SN9//7029gDsy7Rp07SxjEVqX0dPpkSJEnTq1CkeRsVJ8E7+++8/qlGjBg937tyZ/v77bx7OqGTW+9beccuzbBtvu/8F9yMuDXbYu3cvderUiZ599lku69at0+a4j379+lnEbrNmzWjy5Mk0ZcoUfmD79u2bSODWrl1bG0o9Nm7caBG74eHh9PHHH9Nff/1FI0eOpObNm/P0jEZaXEdBEARBEDwXEbx2GDJkCN27d08bcz87duygWbNm8XCtWrW4Kat3797Uq1cvrp3myJGDtm3bxvNBWjTRGGvFo0ePpmHDhrEF+r333mNxnhFx93VExQSlZ8+e2hRByPjIfe35wPAwbtw4LoIguIYIXhtMnz6d/v33X20sdfj999+1IaJXXnmF/Pz8tLEHbN68WRtKcGlIbfbv368NJXwAMzqpcR2xPZS0cC8RhLRC7mvPBy1U8N0V/11BcB0RvCZERkbSG2+8wcONGzfm/6kBOqoBHx8fat26NQ8bgVVSt/Bmz56dO7KlNjh2HfxmRiatrqMgCIIgCJ6NdFozYfjw4TR27FiqXr06+9KiOR+gh+wzzzzDwykBvWxv3LjBHRBA2bJlLVYVWHnhOwv27dtHVapU4eFWrVrRkiVLeBidFXbu3MnW2GvXrvG0XLly0UMPPUSVK1fmcVeJiYmhqKgo6tixI61fv56noRNA0aJFeRj7ZGaBBocPH6atW7fyvmCZvHnzUv369alw4cLaEomJjY219EJGBIgsWbLQzZs3aeHChbwNrOsOf2V3X0cI6Li4OMqZMyePozPhrl27eFi/boi4gY6Ixmm2wHXUe1z7+/tTWFgYD+tgnt4xRa986D2REc0D20clCGIekT1s4UpHl4sXL9KGDRv4P5bNly8fNWnShK+pM6TGveksODc4/6hAZsuWTZtKFB8fz1FH8DyBkiVLUtOmTSk0NJTHHZHSc6Ljju3gOcX1P378OPn6+ia6/snttOPMfW0LV599VzC7byMiIvj4T58+zc8M7in8Hs6Fs7jretoD9yHuN1wTnBuM586dm6pWrcrFHvaeV7N3ghlYBtfl4MGD/K2BexzOE741AO9bgPOWNWtWHtbx5OcoNe5/IROh3niKlAfl0KFDSmBgICoByoIFC5RRo0bxMIoqlEzXcaWoLw1FFTaWbVqXTp06WZb96aefLNPfeecd5d69e8qECRMU9UWRaB1jqVChgjJ79uxEv+lMGTdunOn29LJjx44k6+B31A+O6fIo6stQ2bhxY5L1cB71Zd59911l1qxZSc7J9u3bk6znSkmN66i+RC3bsC7VqlXjZa5fv55kmq2ivrQty6ov/iTzixUrxvOCg4MV9UOnDBw40HJMxqIKSuW7775Lsr5e9O2gmM1HUT+OSuvWrRNtVy/qh0/p1q2bcuTIEdN1UVLz3nS2qB9n/h38x7hagVM+/PBD033COZs/f36SbRhLSs+JXtyxHZzfr7/+WlFFTpJtqEJKGT9+vLJt2zbLNNyrZtsxK87c19Yluc++K8V436oVZH4HhoSEJPodlOLFiytz58413YaxuOt6OiozZsxQVCFm+jsoeA5Wr15tui6KvefVmWf5hx9+UAoVKmRZzliaNWumqCLYMo7tWa/vic9Rat7/UjJP8WjBGxkZqai1SeXy5cum81OjtG3blh+YunXr8ri7BS8ebLxkwsPDLdvNkycPT0P54osvLMu+8MILlmXmzZun9O/f3zLevn175ffff+cX58qVK1lsVKxY0TLfuB1nys8//8y/HxQUZNkGXpr6fu3duzfR8sOHD7cs5+fnpzz22GPKJ598wi/GFi1aJJr3xx9/JFrXKHhr1qypqDV1Hsbv4RjwErxy5UqidVwtqXEd+/Xrx+dC3w6OTT8/+D0skxqCN0uWLEqNGjV4GC/3xx9/nO+F2rVrW9ZHgSCw3oZxOyhm8ydNmsTHgvmhoaHKa6+9psyZM4fLiy++aJmHD+DatWtNt5Ga96azxfih3rJli1K6dGke9/f3Z3GGe8F4f+O8Hjt2zHRb7jgnKO7azuDBg3k5FDwfzZs35wpQu3btLNuoUqWKZRlXPvjO3NfGkpJn35Vi3CdcO/zHOdTv/+rVq1vmo/z444+m20Fx13VwVMaMGWPZH7zXMb548WIW5K+88gpXXjEvICDAZoXA3vNqbx7KkCFDLPNRypcvr/To0UPp2rWrUqRIEZ6WI0cOy3xsz3obnvgcpeb9LyXzFI8UvHFxccqIESP4QdJv8DZt2ihnz541Xd5dBS8l/YFZunQpT3O34NULRIG+XVvWTOMLffny5ZZh1IjNlo+OjuYaPF5M5cqVU27cuGG6nL0C4aX/DgSZ2TIzZ860LAMBhpei9TKwcuCljmXwf/fu3ZZ5RsGrz8fHCrV4zIdFQF82OSW1r6O+HbOPRWoIXhRUCsaOHavExMQkWgbWa+Nzsm7dukTzUex9JPHR1T8YqHAcPnw4yTLLli2zfKjxEbeugML6r28/Ne9NR0X/UONc4XdwXG+++aZy/vx5yzIXLlxI9GF8++23E20DxR3nBMVd2/n77795PkrOnDmVDRs2JJp/8uRJpWXLlpZlUJLzwdfXNbuv9ZLSZ9+VYrxvUWAAwPNlXGbKlCmWCjNEGKyXxvko7roOjgp+B88gtpE/f37l1KlTSZaB0MN8lFatWiWZj2LvebU3b+rUqZZ5WbNmZSOJcT5aFydOnJioNc3sWnvac5RW978U7y8eKXhREzbevHrBhzIiIsJ0nZQWNJmVLFmSfwcfZn16aglePNzYJh722NjYJPNxnPrLAi8lWMmc2Q8IC1QYzOY5UxwJXrw00YSoL2OvKdFo7ejQoYNlulHw4qW6cOHCROulpKTFddS3Y/axSC3Ba896haY+fTlYPKzn2/tINmzY0DJPrxyYlQ8++MCy3NChQxPNS6t701HRP9QosGZt2rTJdDnjB7Rx48ZJ5rvjnKC4azuVKlWyzIdgsp6PgvPaq1cvy3KpIXjd8ey7Uoz37UcffWS6DIrx2e7du3eS+e66Do4KLN36+ngmzJZBgUsDlsH73ex7Zu95tTcP30d93p9//plkvl7Q8qIvZ3atPe05Sqv7X4r3F48TvKg56kLPrODjbrZeSsv777/P24cA27lzp2V6agheNP/o22zQoIHpMmje0ZdBEx58lPTx5LyMnS2OBC+aqPX5jgTdnTt3uBkLy+K86m4KRsHbt2/fJOulpKTFddS3Y/axSC3Baz3PWGD11ZspcdzWVhJb24Gfsz4dLhPGedbl1q1bFjccfBDh16fPS6t701HRP9Sw9J0+fdp0GRRY3vT9hfgwznPXOXHXdjZv3mzZDpqTjetZF6OlPTUErzuefVeKs/c//Nt1KyGuPc6nPs9d18GZsmvXLraqwp/+0qVLpsug9OzZ07JPZq179o7b1jyIUn06LK/GeWZFX9bsWnvSc5SW978U7y8eF5Zsz549dpMEoAe4u0GPX2QUA88//zypL3MeTi22bNmiDRHVq1dPG0qMMRYmIhY88sgj2hjRhAkTSBX+pF5AbUragV62Oo7y26sfPI4uAbCvxmPSse4hnBLS+jp6CgEBAZb7A+fZeH/ZAz2uddq0aaMNmaN+kCy/oX6gOGmKjqfcmzqq+LEbJUCPRgD0aCE67jonqbEdZAtMT9z97LsLRDdppsUMRy9+4/3vruvgDKrQpA4dOlD//v0pT5482tSkBAYGakPEERTcwdq1a7Uh4kg77sDTnqP0vv+FjI/HCV5HAkitAWpD7uP111/nkFz47ffff1+bmnps3bpVG0rIsGaGcZm6dety+J2XXnqJx/EBwTBCsrz22mv8UrBXSXAnergioNbctSHbICSYjnHd1CCtr6MnUalSJW0ocfIQe+zevVsbSry+LYz3qjEhiqfcm84CMWYLd50Td20HBgAdR+GsUhtPfvYR9k7HeO7ddR2Sy4EDBzgM4oABAziEV6FChRIlHNLDEqYUPVQYSKv7JC2eI0+6/4WMj8cJ3po1a1Lx4sW1saR0795dG3IPK1eutKT3RdpGd8ZitIXR2gExa4ZupfDz87N8XMaPH0+ffPIJ14jBiRMneBpepPnz56e+ffvSihUrOIZiaqHHbwSIo+gI4zLGdd1NelxHTyJ37tzakPPnWY+TCyZOnMj3j72yePFibWmi8+fPa0MJeMK96Q7cdU5SYzsFChTQhtIHT332gfG3rl+/rg259x53lgsXLtCIESOodOnSLPbQ2vTjjz9y/Fm06JUvX15b0n0Yj9kT3n3eeP8LGR+PE7wQeFOmTLF8OI2MGjWKg2e7CwTSHjJkCA/DIqUPpyb4Td0tAyJFTz5h5PLly3Ty5EkehvUsJCSEh318fDhzGF4IeIl069bNYhHHiwGWg5YtW/I5OnToEE93Nwj8rmNsmrNFUFCQNkR0584dbci9pMd19DSM1hZjtjx7GJdDc/WcOXPslr1793ILCwqShxjxhHvTHbjrnLhrO8bnzeydmJZ44rOvYzw3xv105z3uCFTmxowZQ6VKlWLXKlT60Aw/depUunTpEieB+Ouvv2waOVICXAF0PCFDpjfe/0LGx+MEL2jQoAFnTRk6dCj7gfXu3ZuzjEHwuhNkYkGTE4DvV+vWrdkXzFjw8daBBQvTevbsqU1xHTTRoNkd1KlTh/9bY+3OYA3EzdNPP80WTYiJdevW0csvv2wRPbAOI/sMsnG5G118g7i4OG3INsaXl3UmMXeRHtfR0zB+GOw1NRrBx0Vn8uTJ7E/obPniiy+0NROTnvemO3DXOXHXdozX0niN0wNPfPZ1jALLuJ+pcY/bAhVtfKOio6PZsgtfVIi5J554wq5PrzswHmdqW9OdwRvvfyHj45GCF8DyOW7cOBa6eGD0DhDuxPiSRIenf//9N0nRUzwCWKYwLSUdMIwdKmzV9I0+TI5S7MIi3kCtIKD5GGIa1gVw5coVnuZukCZWB013jjA2Txk7ObiT9LiOnobxI2f82NjD6AaR3OZbe6T1vekO3HVO3LUdpITVgZUwPfHEZ1/HuD/G30rte1wHrXbffvstD6Oj1+rVq9O006zxOM+cOaMNpR/eeP8LGR+PFbxpQfPmzWn27Nl2S48ePbSlE2rwmPbDDz9oU1zHaL21JWadEcVmwPf5888/18YSmpLcDXoi6xg7JtjC2FkltT4A6XEdgVFomwFLT1qhW7hBxYoVtSH7GK/ltm3btKHUIS3uTXfgrnPiru0Yr2Vqd/zSsXVfe+Kzr2Ps2Q83MJ20usfxPtF58cUXE1UO0gLjcbqjs11Kycj3v+C9ZGrBW7RoUQ6vY68YOxigJzCmpcTabLQqmrk0wA9MF8VoBqxQoQIPO4uxJyt8W91No0aNtCGiuXPnakPmoAlq2bJlPAyfP3f6XxtJ6+uYJUsW/m/WdGj0bXTUtHj06FFtKGUgMgI67QH40jpqFdAxXku0pDjyWdQt4wcPHkyWT2Zq35vuwF3nJDW24+h5S+k5tXdfg/R89u0dG/YXFlWA3zKGekyre9zoolO2bFltKO1o0qSJNpQgvuHalZ5kxPtf8H4yteBNa/Ag44EG6MFr1sx35MgR9mMCiFiBZmGA0E5orl+/fr3dnu7oKKGDDlzuBv6XJUuW5OHt27fTP//8w8NmwKKnW4sQXcPYPJWR0a8bXrDWohX+g3pnLTTB2WpeRK/kRx99VBtzDNx7bIFOnnpzX4sWLZzupQ0XA7gcAPQg/+WXX3jYDFir0QEHvs+wuixatEib4757E/6PfbVe2+nlr+euc+Ku7TRs2NAStQZuIfBXNwM+tcOHD9fGkoe9+xqk57OPEHe2gE++3prSvn37RC497roOjjD6mp49e1YbMsddociMIAScbkXHcf7vf//jYTPmzZunDaUeGfH+FzIB902yUUh5UNyZoWvFihWWbSENotkykyZNsiyD/OX6dGSw0qdjn1SRkWg9FKTVNWZKQ2Yk62UcFUeZ1lCmT59uWSZ37tymqSdxHMiwhGVUEciZd/R5xkxrL7/8cqL1Uqu48zqqH1XLttSPLU/D9dDz/Ldq1coyH6l+1QqMZV31pc3Z5TBPFRiW5RxlWkMZPHiwcvPmzUTLzJ49W8mSJYtlGeSmN85HsZe5acOGDZbMhupH2/SeUYWL0qVLF8s2cPzG+88d9ybWwe9jXp06dRLNc7aoQofXx3+z+cai74dZpil3nBMUd21n4sSJlvnZs2dPsh1VYClt2rSxLIOSnExTju5rlJQ++64U6/u/X79+ie5/7Buymvn4+PB8nOvdu3cn2gaKu66DvTJjxgzLuqVLl1auXbuWZBmcx5deesmyHAqeX+vl7D2v9uYtWLDAMg/n5LPPPkuUyvvOnTuc8tnf39+ynNn972nPUVrd/1K8v4jgdVDcKZQ+/vhjy7a+/PJL02UgavRljPnQIRjUGrBlHtI14oWGl9ySJUv4A4UXrT4fKXaN23W2OCN4UdTatGU5vNSQL3/06NHKiBEjlPr161vmIeXnHKv85xld8E6bNs2yrYCAAM6hX6VKFf4NzF+8eLFlPgrOAeYXLFjQMu3hhx/mVKT6uCPBW6pUKf4fFhamtG7dWunduzen2tTno+CaWG/Dejtm8ydPnmz5COJaYtu///67MmvWLL6Pihcvbln/kUceSZS6FcUd96YxzfK4ceOSzHemuOtDjZLSc+LO7UAAPPnkk5blUOrWrcvTWrZsqQQGBvK0Fi1aWOYn54Pv6L7WS0qefVeKft+iQtewYUMeDg8PZ1GE9LzlypWz/BbK559/brodFHddT1slNjY20bEXKFBAGTZsmPLTTz8pEyZMUJ566inL/Wl8FrBf1tuy97w6epaN7zkUvHNwviAI9d/PlSuXZb7Z/e9pz1Fa3f9SvL+Q2UQpD4o7hVK3bt0s20Lt12wZWLf0ZU5b5TGPjo5m8VC4cGHLMtalZs2aLDSM67lSnBW8KLBOVK9ePdHv6wUvN1g3Ieqs18voghcv4IEDB1q2p5fnnnvOssxXX31lsVgaS5EiRZSvv/5aiY+PTyTyHAleWIkHDRrEQkSfphfcD1OmTEmyvl4cfSRRtm7dyh8P3VpmXSC4v/nmm0QWI2NJ6b05f/58XgaWwXPnzpku46i480ONktJzohd3bAfzUGHWj9FY8ufPz/f03r17LdOS88F35r7WS3KffVeKft/imGNiYlggmT1TWM5oHLBV3HU9bRU8o7BCBwUFmW4fghj3+apVqyzT2rZtm2Q79p5XZ57lqVOnKiVLlrQspxc8W927d1dOnjxpmYblrNf3xOcoLe5/Kd5ffPBHvUGENAB+ibpjPfw81RcQD7sK/CSRPhY989UaMY/DbxN+XOjAlRKSs4/wU0UPWvhqodMIsh4huoQnBEBPTZDOU32Zo9LI59463Sp89RCHFj596BAE/zR0mNPPKdbT/fn8/f2TxCpFaD49nBqWBcioBF9ZnGssD19w+Hon916yBvcTenlj++j4Ar9O9HpHRxz1g6UtZZvk3puffvopDRs2jH2Qly5dqk31DFJ6TnTcsR3E8EYUFzxz8H2EL3SDBg1IrQixL7Xe4QfjqjjkYVdxdF8bSc1nH88G9gHnRhU6PA3vJzxT+F0kIsD9j2dKFdk83xncdT1tgWuAyATwa0dnLcTgRUdSpBXW0TsGGo/N3SCSBp5D7A+yHaKTNJ5FHL/uUw2/Xz0RUmqTUe5/wXsRwSsIHoqZ4PVWnnnmGZo0aRL9/PPP9Oyzz2pTBUFwNxCcBQsW5OGHH36YoyMIQmZAojQIgpDuoAc2LITo0S8IQupx7NgxbSghWpAgZBZE8AqCkO588MEHHOYqtZp3BcHbQXM/4tnCJcUeGzdu1IYSx8YWBG9HXBoEwUPJTC4NgiAkH/i0wp8VPsPwjYUV16zyiPdIlSpV2LcXfrN4vyAVsiBkBsTCKwiCIAgZmCJFitDo0aN5GB1bu3btSteuXeNxHYhhpD3W05A//vjjInaFTIVYeAXBQxELryAIzoKIKEOHDqWvvvqKxxEpo0uXLlSsWDHO3okMaydPnuR5sAYj2kvu3Ll5XBAyAyJ4BcFDEcErCIKrLFy4kN5//30OLWcNQnU9/fTT9OGHH3p92EhBsEYEryAIgiB4Gags//fff2zdDQ4OZvcFxOJFNBRByIyI4BUEQRAEQRC8Gum0JgiCIAiCIHg1IngFQRAEQRDcBNIcx8XFaWNCajB48GBLan5nEcErCIIgCILgJpYtW0YTJkzQxoTUABFHXO3MLYJXEARBEATBTSAW8tmzZ7UxITXw9/fXhpxHBK8gCIIgOAFi3QqCIxD+DUVIPfz8/LQh55EoDYIgCILgJLDeIdyXr+8DexHS9EIM6/+N03Ssx4GtZfAf6MPW6xnRlwX6csZ1zOaboa9jva5xHetxYGsZ/Af6sPV6RvRlgb6ccR2z+WY42g6wHge2ltG3pw9br2dEXzY8PJzmz59Phw4dooEDB/I0+PTq84Ez2wH6cta/bbYvtpbRt6cPW69nxLisjnEdfT5wZjvAuK6t7erYWkbfHobx3AUEBNAbb7xBCxYscCmetAheQRAEQXASfGTRYaZUqVIUHx/P04wfZv2DjWEUpPRFTFzEwc2SJUsiv0Pj8sC4HWC9TTP0ZYHxt43DOsZpEGFHjx7lTGzYL8xDsV4Xw2g+RqpixPQtXry46TI6GAdY58yZM/w7SKKD82ALrAMhg2WQ+hipkpEFTu/4pW8TGH8LVj7s0+XLl6lcuXKJzq3Z/mEY2zx+/DiVLFmSYxJjHeMyQB/HfxwH/EUhsvLnz8/TjcvqYFmA5S9evEjnz5+nihUr8nr6b+hYr491rl69Srdu3Up0fvXl9HEdHDeO4/Tp05QzZ07KkSMH/4ZxGX0d/Xdxfu/evcuuFrjm+rEb0Zc1244+rGNcxhqz5YzbAfo4jgXPB2JF58uXj+8XHX0ZfXsY1iuae/fupSNHjojgFQRBEITUYO7cuSyAkMbXGSAqhgwZwtnPcuXKpU31DHr16kXffvutU6Jh27ZtNGPGDPr000+1KY75+eefKSoqio/fWZo2bcq/Ubt2bW2KfXbu3Enfffcd/fjjj9oU+0RHR9MLL7xAkyZN0qY4Zvz48SzAn3rqKW2KfVasWMHZ7NB5zdmm93Xr1tE///xDY8aM0aY45u2336bHHnuMatSooU2xDyoGuA+//PLLZLkEpBb/+9//qGzZspwK21lw3Ljmrghe8eEVBEEQBCeBtSkyMlIbcwwsoxBZsER6ErD2xcTEOL1fCAGF47C2CtoD58nVcwXLJSydzoJlsV/OguN15bgBzpUrx3Hnzh22/sP9xVlwflE5cBbsE5Z35VzdvHmTz5Ur+5UW4FgiIiK0Meew12JgCxG8giAIgiC4HWMTtqeg75Or++bK8p543MBT9wukxb6J4BUEQRAEwe3ovpeehL5Pru6bK8t74nEDT90vkBb7JoJXEARB8GrgHwm/TTSdphZo8sbvSPzVB3iiRVHfJ1f3zZXlPfG4gafuF0iLfRPBKwiCIGRInP1IIqJCz549KSgoSJuSmJR+bNEjv3v37vTkk09Sv379OCSVIAiehQheQRAEweNA56U1a9bQnDlz6KOPPuKORggn9eabb3LvbMxHM+i+ffvotddeo2+++cZmRxaEhkI4I/RM37VrF23ZsoXee+89jlCAzkUpbU5Fr3xsf/fu3fT9999zqKiU4mznMFc6kQlCauPJVmQRvIIgCILHASE6fPhwGjZsGMcMPXjwIItdBPZfvnw5ffbZZyxwR48ezXFM4a6AWKZm7N+/n0MfgVmzZrG199KlS/Tbb79x6KyUgnBjCFUGSy9inObJkyfFH34I6NmzZ7OYR6//9evX87mA6Ef8XMQCRkguPS6pJ+KJPqP6Prm6b64s74nHDVK6X6hcrl69mp9NxABevHgxVzxx3yME25UrV5L9G2lxzkTwCoIgCB4HLJewzH7wwQf0+uuv04YNG1hIjhw5kl588UXasWMHZzxDOCO4ESDzUsGCBbW1EwPLLpIrAIjkdu3asXX35Zdf5viyKaV169bUvn17qlOnDv3+++88zR0f8OnTp9O4ceM4ZNW///7Loh3B9uEyAYv21q1btSU9E0+09un75Oq+ubK8Jx43SOl+ffzxx9SpUyf2V0fFEc8RwqItWrSIWrVqxT7sySUtzpkIXkEQBMHjgOCFNbdy5co8DustrEvdunWjd999l62+FSpUoLZt2/LHdsKECbycI5DRqWjRojwMEaxbSPWsackBghrJEr7++msW5PPmzdPmpAwkFpg5cyZbkHv06EF//fUXJxlAUoapU6dSmzZttCU9E0+0dOr75Oq+ubK8Jx43SOl+NWrUiFtH8Owhi1znzp35eSpTpgw98cQTlucqOaTFORPBKwiCIHgksPqgyRTgg4iOYWjmh8/sH3/8wYL4pZdeYlE4bdo0bmJ1BLappy/VrcgIxA9f4eT4wxotU08//TSL0M2bN2tTkg/25aGHHuKMUhAV6HgHsQ8rd968eVl4QGCkhWUsuXjivun75Oq+ubK8p16TlO7XgAED6IcffuCKIu5zPDNhYWHUpEkTfv5q1qypLek6aXHORPAKgiAIHgc+gMgKpYvTunXrcrP+nj17OPf+9u3bOQTYqlWr2JWhcOHCNjNuYRv6PLg06J3bYNVFtipEb8A2kuMPCyEO1wP4EiNdLdwsqlWrps1NPs7ui6daEwXB0xDBKwiCIHgc6IhWtWpVtiCBli1bchPqs88+y+G/4HsLSxOiIsCXsGTJktSxY0de1pocOXJYXCNKlChBxYsX52FYStE0Cz9gWGWTa2XCttExDn7BTz31FO+n4JliXN8nV/fNleU9tRLiqfsF0mLfRPAKgiAIHkdISAiNHTuWSpcurU0h7rwGP15Ydfv378++rbCuYtonn3zCItmMKlWq0JgxY3j4+eefp969e/Nws2bNeJuwACfHnQFAJEPwwq1i48aNNGTIEJvxfjMbadFM7Sr6Prm6b64s74nHDTx1v0Ba7JsIXsGCJz8MgiBkPuBfa235CQ0NtURcAJifPXt2Hv7nn3+4ExssvbCyYvi5557jEErYFkAHMxSguw1A7NqK4esI4/55sgVNEDI7IngF7hSCsDfyshYEISMDS+srr7zCHdlgacVw3759HSaCgEVWd3MQBME7STXB68haKNbEVCCZ5xSxHMePH6+NCYIgZEwKFSrEIcrg79uiRQseRigl3Q/YDHyLEPkAUQ+crfQbLcyOgPUZgjpbtmzaFM8ALiMIL+XsfuEc4jhc6diH30BxFpwruKUg+oazYFlXXEjwGzhu+HU7C643WhacBecKx6G3PDgD1kE0DmfBecXyrpwrXGucK1f2Ky3Acdh7Rs3QW2xcwef+/fuppjzhxI9QFbrvFECsQryIEG5FcD/3I67S/RsXyL9IFW2KOXjJ6y/3P//8k7MNoTlQEARBsA3CouGd+cwzz3DQfXtA9Ny4cYNj5nbp0oUjSehh1tITiFZErUDcYHQAREXB3n5B7CEdMwqOG8elR88wA98WiETEDYarCDryoRXRHhChCA+H5BoIxYaoHMieZw8IJSQggQ/3q6++ajNKhw5cWRDPGdE04MsNAego/jKOfcqUKSzIkFwE58mewQ7Lwcd84cKFvE+5c+d26C6D30Amvb179/L1wH7aO784/zg38F9HKLBatWpxtBF74FydOHGCY0Sjcgf/d0+4F3GfTJ48mfLly0ePPPKIw/OLewti98MPP+Tsbq6I91QVvMgrjto1bkh0PLhw4QLfxH///XeK4rVldJT4GDiNud+FICCYYo9upLtz3qPgml0osPbj5BvmOKc7OlvggXZXsHRBEARvBWHRkP0MAs3t73AhwwMLKox9ENb16tXjadKi7V5QIUB2N6TW9hjBC+rXr881W+QAh6j6/PPPeSczM3cX/o/und9PPv6B2hQ34eNL96NuUfD1oxTk50s3g/NSSNf3KaCYuTUdAaQXLFhA165d47iWqJzgJY6XOZr4BEEQBEFwDRj1EDYPVkghdUASll9//dUlwZvqndaaN2/OwcIB/jdt2pSHMzN+hSqSf+kG5F+yrntLGXWbBSuq1UmiyLh75Je3lCqqbfs24UYpVqwYN22guQNZe9C0pfdgFgRBEATBNdAsn5JU1YJjkhNGMNUtvHBnQDpI+KcgFd0333xDDz/8sDY3E4KmjVRsBou/dJTuzn6Xgho8SUFVWqtVGlW8OvjN+fPnc00JtVJBEARBEJIP3ASRCRCxoYXUAZ4DEydO9CwLb40aNdinBZ2i9HFX0H1fdKfvDO8Lk8o+X37huSms13gKqtbOKbELkGXo5s2b2pggCIIgCIJ3kSZxeDt06MB5xuvUqeNSaA+ATgEHDhygfv36cY9YjIsDuA3U8+ITkp18s+XTJqg4IbDLli3LtSVBEARBEARvJE0EL0J5gMaNG/N/V0CHKmTKQdgKhPgAInpt4IS4NQMRM15++WVtLHNgvH8y870k5yHjI9dNEATBMWkieBHguUCBApy33FVWrFhBmzZt4uHffvuNozwACQcjuIK1KMD9c+bMGTp27FimuZfMhBGOHWlXEZ9RnqmMCa4bXJIQLksQBEEwJ00EL0Jf5c2bl4oUKaJNcZ527dpZLMTgzTff5KDfgmDGnTt36KuvvqKPP/6YPvjgAw5ifv78eVMxh7BsH330kTaWGDjDY92MCsQt4ioPGjSI3n33XTpy5AifAzPRiyx7to4VvveShS/9QBbEt956i1PkrlmzRpualHXr1tHTTz+tjSUGBgOk2o2JidGmCIIgZD7SRPDCkgYfXFfBxxlZS2DZrVChgmXawIEDadeuXTwuCEaOHz/O7hlLly7lMHgQCRDBZiAzja1MPrCYIXA4gFB4++23uXNfRgFZfnAeLl26xPGve/XqxcdqJvxxHmxl6YFLETJFASzz3nvvZajzkJE5d+4cvfDCC7R582bOcNWpUyebVlyEQbJ1n+N6IemPDlrJIKQF7yA54ZmE1AUZ3JKT+lZIXVI9LBlAc2n+/Pldyj+uA4GLjzRe+AhrpkcTqF69OqfCRYIEfRkhcwExtnz5ck5Dqed3x32CDngbNmzgVgWkZ0RHSbP870iGAjH3448/8n1lDG8CkYA4iph28uRJzhSIhClVqthP2ZweXLlyhVNr4jzowKoHgYs42Mh4iPjXv//+O3Xs2FFb4gGDBw/m5weWcbPzgA9q1qxZufMo/PBxzqtVq6YtIbiLGTNmUOvWrS3nHy0TuJ+Rih00bNiQr6eZxX3u3LlsyYchAMIXefb1eNqosCGtK96VGMa7E0IaVmPBO0BmryVLlvB7Tr6F6QuePRhacB3QQoZkToL78ciwZKBEiRIsds2aUx2hP7yI8PDdd9/xMPjvv/+of//+PCwPeObk4sWLnBXOGOAb9xjC4BUvXpxfPOHh4aZiF0AQQAigOb9z5870xhtvWHKLw3ccqQsh+OD2gHsM7jRffPEFz/ck4IMLsaqfB5wDpLSEOAJVq1bl84HzZQbyskPoIq8+rIivv/66JY87zgE+pAgLOGbMGLby4jxNmDCB5wvuAfcdhCxaw3QKFizIL3W0cqEgfjmutRm4x3HdIZofffRR6t27N2dPBIcPH2b3HfDZZ5/xfYDlhgwZ4jDHv5AxWLlyJVdE8XwimhGeZ1sF7zy81/744w+uUKESZLacsURHR3OFf9q0aWwkwDbMltML9gH7AqMUXBpxf5stZyzYJ9z/qJifPXuWK25myxkL1lm2bBktXryYIiMjTZcxFhgBcMyzZs2i69evOzwOzMexTJo0iSuTOCaz5YwF5wffi6NHj9psdRHSCVh4M1IZOXIkVLOlDB8+3HQ5Kd5ZVCFmGVZfKEq1atUSzd+0aZOifvyVDz/8UJkyZYpy/vz5RPONZfTo0Yoq9hRVHCgff/yxkjt3bkUV0DzvlVde4emqiFRUoaeoIloZNGiQ8ueffybZTnoU43nYs2ePogrcRPON5fLly0rRokWVNWvWmM4fMWKEEhgYqDz99NOKKu4VtcasqAKJ5/Xr10/p27cvD+NZy5EjhzJgwADlr7/+SrQNKa4X4zVEqVGjhnLo0KFE04ylYcOGynvvvWc6T/3g8zVs2bKloopapWzZskq3bt143t9//62UKFGCh9UPt1KgQAFFreApauVNUcVOou1IyZjlp59+Ur777ju1zuM8aoVHUcWiNuaYDRs28HvRFb799lt+pzqLKhj5naMKTW2KY3DsaoVfG3OMWjHgd54rvPDCC4oqlLUxx+Bd27hxY+XatWum10tKykunTp0UtdJiOs9WSRMLrzuBD2HPnj21MWLrG2qqQuYANWc0rU+dOpWz2aD2jWYNjKM2XbhwYVI/+mzxUF9qnOUP1gKg3vCWAmDFROuD+sJk9wZ08NITpMDqCWA5gy8sfLLUyhZvzxPAedi7dy9bHmbPns3WCpwHhO+DlcEIpmP/GzVqxOPW5wHWm/Lly7MVEB2kEP4P5wQY/dCGDh3KbiJoOu/atWuyWmyEB+Aawi0H7y9cI1w3dMjFNYVVFujnGBkr9+3bR0888QSPY7r1vYwWDbRW4Pp9//33/AzAQoUWD71Z9cknn6RSpUqxFRgd2TKCn6G33Wd4Vt955x12Q3AnrlrrYXWFxdJZsCzW0e85Z4D1GMVZYKVFSxX+O4urv6Efh7Fl0BFY1tVzJXgeGUrw6i8+tdbIsWN18OLeuHEjD2fmj3BmOXY0SX344YcsDNApC24G6IiD5jA0A0NAQAyj4xbCjv3yyy8sJiBc0ZP9tddeY4GAlxiaiYODg3m7devWtbyoIHh1Vwg0g+HcovnMk8A9j/OA40UHpy+//JJTWcKnVwfN2mjGRuIXgPP1/PPPc2xr+O4CCF74h0IYAfj7wu8e4BzovqA4D/jY6ecBgk1IGehMNnbsWHZngKsBKixwHYHABfo5xr37zDPPUJkyZXgclY6+ffuy6wLWwzVCZU/3rca9jGuH6w1Rq19DgHsf19wTgdBBBdUoqnAO0HEPKdBTAo4Z74j0duPAMeJYbLkYCYKQOmQowYsXH4QHrFWwiCC2L4DPzLPPPssfD32ZzAiO/cadq3TsvHstB54GrIuwXsGPFJ3J/vrrLw7BBcsVyJkzJ8d+rlixIvXo0YNzmuOeyJcvHxUqVIj/QwBgmi5qAUSubtk1ot9PuvjwFB5//HE+DxD7iGKC8wCfuWLFimlLEAt8hPXDOQM4PlQKUNCRVMd4bEaxbwTnAct52nnIyCDLIa4ZrPQQs6i0oMOLMRQjQuyhwobKjQ46oOEaQuSioqJfGx2IXFh19XvXiPV970mgEocKqXXlEs8w/MldBVFbDh06xMOwmsNv+fLlyyx+4ZNpdn5SG1wnVLKNlRBvxZPfFfIey3xkKMEL9Ju0UqVK3LteH8dLDT2PYb3AtPR4kXkCl2+dp89nvUWz1/1GEVG3tam2gbUD1kFYVfTwU54MrisiBkC0lixZkqdB6ELI6hZKIzguVJAggNGMCAsomu0B7hNYgHXQyUC/n3AfGUETmG4J9gRwHnBcOG50SIOAwfnAuN58DRcMWMpg4dbJlSsXxyeGeIKVEODDq3dwAgcPHuTzaw3ODc6D2XkWXAfXENcKwhX3MM4vXGxQkUdnSwBLINwTIIiNUW7QqgUh/Omnn/K9jesC9x7dcgsLPe7h3LlzJ7mXcU+40iydltSvX58rcNYp6HE+rJ8/Z97x6JyHsJagXLly3LkTlQTELYb7B1otzEjt74f+nkkt9P3Hc40WIF30pzWpfR5Tgqv75snHIjhHhhO8RmAFQXOgDpqwM0L64emrv6dPZrzGwtSd5YvZI2jaqu/oxt0r9PeWn+m9yS/SgVM7tV81B+GrEKoKIa0gCD0d44cCH3eEJDE2UaJJGL184R8HoYBoC7rfozW4P1atWmWJSwrXCD1sF1wb9I8hPr5YFj2U8eHwBLFgPA84flQCjD5psPZC1MI9ARZE+DjDFcQMWAPx7EA84X6A+4Me4gznQPeng3iCqIKI0H1MheRjvIa4dqjAQLjqoPkdPuMQwxCwcNOBldPsvYZtIYIDhDBi9cIFAq0faO3A9YMvrw4iPkBAI9KN8fc8AQg03IuohOEZhNsNIlUgrrZe0cJ5QYteq1atLG4OCMv3zTffcLxpRBpBJR4WXLwP8B6A1RjnB7G5UclFxB+cA7j2YNhYKcR7AOcmNUntbxPuBxw/3n14rlHJ1/sypCXGe9zTcHXfXF3eU/VHZiZDC16AEEnGpBaowaMAT33YsoXkoLzZC1DubPncWvKo28wempN81KsaG32PQrOEU1iWbNqvmgPr4IABA9iv0yxGqyeDDzqsF8aONxBo+GDhmPAhg3gzNg8bgRUTSUzwEcQHFNtDRzeA86L7S0IgQECguRl+w57WHAzXjV9//TWROwYEKSyHsGShoycqhro4sAYWL5wHCGLcB9geOqgBWBxxXgA6RWE5/TwI7gPXDuJMP9cALlqw3kIMv//++2yRRGdCsw46qPCgkoJ3Xp8+fXhdVOQAKoUPPfQQDwNcQ7Rm6C0AngTELNx0AAQsfJDxfkcsab3ihYpcjRo1aNSoUbwMXBRQwUUHZohgWMhxvtARE6H52rZty64MqKwhXjEsxXjXwW8dghrPOioTeHdgW1gGlY+MDsKBobIE8Y6Qg3qrQVriyaIvLSodOOdoYYGhxLqlRUgH1BeeafiGjFDUG4j/qy8qpVmzZrh7uagCSFm4cGGS5TNDOXh6l/L6D72Uf7bOUuLj40yX0Yt+/jJisbfvR44cUVQRq5w8edIyzWx5hL5RxQSH7Vq7dq1y584dyzwMI0SOcXmEpTl9+nSiaZ5acGxnz55Vjh07xudDfeEqFy9etLkszsPVq1f5vKnCItE8VSgkWh7nQRUmiaZJcX9Rha1y7tw55cSJE3wN1UpMonvaWKKioviexToIiWQMxxcdHc3X1rj8wYMHlb179yaa5gkFYbLUyqeiCl0OC7hkyRKejpBbw4YNU3bu3KmoopbDA2JYFbSKKuw4jN5LL73Ey+L4u3btysMIV4WwghhWhZ+iVgr4PG3fvp1DTWE6iiqA+b5WxS7/vj49NQpCVSGM4MaNG03no7j6bkZoLrUiqmq4B0ycOFGpXLmycuDAAW2KwsvqILzgvHnztDHHrFixQlErCLxvzjJ+/HgO+egsuN8RBlGtsGlTHKOKeQ7F5yxqxV958803lbi4OG2KY3BP4N3oLP/88w9rErUipVSpUkXp379/kmsmJWUlU4QlM6JbcFFjRyc21NQBmulgFVA/EjyemSiQswi99ugn1LJmN/L1td8pwlMt4M5gb99h1UD0haJFi2pTzJeH5RbWWjTVw9qj+w2q7ysehtXMSK1atdga6ulg/3FssPDCQovzAWs1QoqZoZ8HNH/jvOm+ovp2YKXAsA7OA3yFhdQD5xstF7BWohMiriGsv8Z72gia+3HPYh2En9M7JGI78BPGtTWCznKw5HsieFZhbdXvP4BjwHseVl6E9YI7AqyWOC/oz6GKMMvzq37YLK0wcPcxum1g25gPKzmm61ZjWIzXr19P27Zts0QAQmpx433vKvhthJLDNhF1AwWhBOE2hBCKsFrDX16fh+VgjcU8d7yb4d7RoEEDLrrLhju2m1lx9V7A9UUIVbgYoXUNLTQAyZKQPVG/D9C6iIKOmnCxa9eunSVRDCK2oDUC24KbzlNPPcVuS3D3gesPWi/R2gb3PiyLjsy4x9CCg99GSnw8S3hesF2EPcSycHHB/QGNhDCfWA+tIngm4BKIVhE94RDCdeJ30dqC5CPIeIu+MADHgjCg6GiLlihEkoGbENbDsTzyyCPsUgSwfRw3WmMQjhEdytHaBNDpHK0zur89WmbR0RquXDgWtF4hdCieXbjUYX/xvLiMrnwzctFrw6iBhoSEWCy96oOuqDdRomW8uWSGY5QiRYr3Flh4YeFDq4v6QVQWLVrE08eOHau89tprbKVFQg1jKwQKkhvAAoxh9UOrdO/enYdVkWFJ1rFr1y5F/VByi4UqbhNZclevXs3WYlVAKKq4YAs5knnACqgv42qBZT5XrlyW75GzRbdqu1LMLLw6qoDhxDM4RiNpYeFFchNPtfCiVctZkmPhbdq0qTJr1iylatWqltYHbyqu6I3U0CZoxclUFl4dvdbarFkz9i/U2bBhA9eGQGao2UrtXRCEjAysROhgh1YXtCTAKgZLLhLCwFKFNNnwa4ZlCFYzdMjSrcF6hApsA9MAWjnQ0Q9++pgGyxPmw3IOSxj6e2A6UnEjhBksvgjxh3dpSn1e0QqC+MGw8sKqhYIOc7B8ValShS1p6KSnz8NysPjqCWJSgvpx14YSQhMiLjOshGkNroun4uq+JWd5pKxH3wg9gpQ34YreSA1tkpzz6RWCF+g3I8zpr7zyCg8DdOZB+B5BEATBs0FoPURlAOhQBlcjNPejCVXPcoj3Odxz0FSKDyk6U0LQofkUYBvIJAe6detGderU4WgtcPNA0ygiQMD9DU2+ECMQ2HCZaNy4MdWuXZvnnz9/npt6jcLRVdAREfsCAY0OdChwMcI49hnzihQpYpmH6XA1wbyUApcOJGhC0zUqDRDz1atX1+amHZ5shHF131xdHveOfm/BfSgzxF32dLxG8BpvRmSWQmgaHfRSR1ga9FoVBEEQPA8YLeBrjuxxAH7J8EuE0QL+fIi4gGVg/YWIgw/j66+/zsvCT7VDhw48H6Kyb9++PAy/X7T6wX8QvtAQubpvPiKvIDIGhDAsu4jiAIGtY4x64k5gZYYYgqU5NUFMY4Qig3Ub5wn++WmNbojyRFJ73zxZ7GdWvEbw6uAmxo2GpBSoMQO8YJC6EyGsBEEQBM/DGYHgaBnjfFcEx8mTJ1kIw7UBQIzqLhIZEXwHEYpuypQpXDGwFYtcEDITXid49ZccmrzQ4w8xKHVS0jwlCIIgeCdocoZPrR7JBD6+EIyeFnPbWVwR+6mJp+yHGZ68b0Lq4HWC1wh8t9CpQSe1mqgEQRCEjItR/MA6ivCD+H6klt9lZhFb3uTS4MnHIjiHVwteAN8uQRAEQXCG1BajEE6Io+ruXvvoHOUKMADBx9lZ4FONdVyxemOfXNkvxADHb+ixwJ3B1d/AMSNetSsGMFf3yZXzmm4YBbwzYt4LBL/P/fv3vbragh6+CG8D0GFB/HgFQRCE9AI99xE8HwH79WRJKQWh25BUAN86JA+wZ42EYEVB5Ap05EOECEf+yhC7CKmGRAAImwbLtz0XQVQaICq3bt3Kwh6dASHy7QFRiY6DCOUGX2o9La89sB9I1oHlEGHDmGTEDOwTEhkgCgd+w9Fx4DzhXOJc6VE2zFJ7G4HYRUIHpKlG6LxcuXJpczwA/XzqLRdr1pCSLx/5lCuXMG6Ges2VU6fIp2lTbYIV6v2sqDrLp0YN5DhPEMbokKmea2X27IQKZNeuCctinpsqlIjmgoRjRrdVR4jgFQRBEIR0AGLKHRZliLi1a9fytvSii17j9u0JYX0d63WN61iPA1vL4D/Qh63XM6IvC/TljOuYzTfD0XaA9TiwtYy+PX3Yej0j+rLI+Lds2TLuLI/O865YknWMvw2sx43wPAzYmJ+IRYtIVYho+uZR5dtvyad0aaJWrXjcFPW+UmshRFpElCRcukQ0ZQpR//5I20l04QLR4sWICUjK+PHk07cvagGkKn8Wwe5CBK8JIngFQRAEb8WeGBLSh8Wq4Fu3bh19+OGH2pTkMXPmTO5QWblyZbZKr1y5kmNLI1Yzws3BMt+6deuEhU+fJmXLFvJRl1Xg4rF6NQtZH3TEnD2bqHx5UsLDyQdxnmGJXb6cfJYuJUXdHlWpQupGiW7cgF8J0eHDpOzfTz6PPkqKWpmi9evJ5+WXE35H58ABon37SKlUieiff8hH/U2lTh2iqlXJ59AhUtT99fn9d6I+fYgmTSKlZk3yGToUZnNtAykjOYLX6314BUEQBMFbEbHredy5cydFcZaRce/dd9/lLIDoQPmPKii/+OILdkGBS8WECRNozZo1HLdaR/nlF/JZsoSUK1eI/vyTfE6eJJo6lacrqgAliGBYayFGVaFIe/aQAuvs9eukzJ9PqqImZdUqUrZuZYusz6lTpEyfTgRXFCsrtXL1KotYiosjH3Wez/HjRGrxUQU67dxJCizJcGlAgfsEtgchrYtdO5by1EQEryAIgiAIggcAqy0yC8L395lnnqELFy5w8hSkiEbyEMRW3qmKypEjR3K2PgtwGXjzTfLJk4d8du8mJWtWUiBWc+fm2Qr8d7NlIwVWXJR33iF67DFS1AqTT1BQgtsBrLz4D19otByogtgnMpJ8dJ9fDR9su2hRUm7dIuX+fVKQ8+Dtt0l56CG2NPuEhrJfsFKvHvm0aMHWXWrbln+XRXY6VdJE8AqCIAiCIHgA6PSGTILoTIc02vny5eNxCF10TOzfvz9nFXzjjTe4w54FdL5TxSn7yaIjmiqOfVXB7KMu61OnDvn89hvR2bMsVn1iY4m2byeffft4VeXuXVLgoqCKVTpyhGjhQuTopvuwCsNSbd0ZEFbdHj0SrMPTpye0MkBcQ1SrQlnB8ujcd+dOwrrXrrEFmLflJpeG5CCCVxAyAHj5oeaPJi70dk7ttKSC81h3ZIGvHXzvkBb3xRdfpOeee46GDBnCH6+5c+eq73715S8IgmCDPHny0CuvvEJNmjRhCy98eJEeG9kA0Rmue/fuNHDgQI74YaFIEXYhoFKlEiyts2aRAh9bdGZct44UpM0uX56oYEFSmjYlH7g6wIKLZatWJV+4QagC1adWLVLUZWjvXvLJnZuUvHlJUbedCLzzZswgH/U75IOU34UKIZRHgtBGKVqUfYH5P/apYkVSNm4kRd0PH3RqSyek05ogeCh4se3atYt7X+/Zs4fOnDnDghcxJwuqL6Ry5cpxE1eNGjUsjvvSgSVtMZ7vveoH4hf1I7JgwQIWvWZhmNCDG354jz32GDdRIswRkOsmCN4DKrzbt29n1wR3AIOHMf6x8X1hGYZ1Ff/15SCGw8MTpkVEJERQALAEYxlYYCFSdYzj6jYJoergd4thWIR37iSCfzC2pwpyiGQObwYrMH5b3SbcG3hfsA5+A7+lu0Oo05TFi1kQE1wcUohEaTDBKHh79erFzQKC4OmgQ8JPP/1Ec+bMoUg0U9kAcSSbqzXs559/nkWUkPbgg4NrBYvuuXPneBqaIdHZ5NKlS+yLB2GLeYcOHbJYZSpUqMAdU3qgaVAQBK/B3YI33VEFrzJtGvmePEksGGG5feqpJJ3ZHKFANMOlolQpbUrykSgNDkitNJGC4C5gFUQom86dO3NrBMRu2bJl6YknnmDfrhw5ctDo0aOpb9++bNlFwHXEfIRogm8XLItC2gHx+uSTT9KAAQNY0MLq/tFHH9G8efPom2++YSs9Ktx///03zZo1i8vw4cPZQn/gwAFudXr99dctAfMhngVBEDyKwEDy6dOHlFGjiFAQWzcZ8YXhPuEOsQuS867MVBbeunXr0saNG3lYyBxYNwV5Mjdv3qQ+6ksF2XkAMge9/PLLnBEod+7c3CM3W7ZsdPz4cRZIFy9eZFeHH374gQUWqF69Ov3666/8P6WcPXuWXnrpJbp+7Tr5JePl5io3b95glwB37HtagMoJ3BL++usvbsZ79tln6e2336ZS2gsdLihFixbljFpLly7laTrobIKKC3x6ASowP//8M2/H2FwpCELGY9q0aZxlbty4cdoUwd08/vjjnNhDXBoMGAUvGD9+PIsIwXngm4im2YxkIYdlrVKlSlQIzvQZgIiICOrduzeLXeRsRyen1157jfIiaLhGzpw5WfAivacRHOt3331Hn332GYtUxGaEKwSazFMCYkHWq1ufXu0/KnU7ycHtzMeXZs6bSF98/Rm1spf1x4PA9cKHLSwsjFO7orJiBKlYS5cuTW3atOFA9MAoZnFOv/rqK77OmI5OKp9//jnPEwQh47Jo0SL+br755pvaFMHdoHXTVU2SqQQv/OggDmBVQXOwWFKco++TPcn36jEKyxJI9zLA7eLv50uXb0ZQ7Y5Ps4jICDz11FPswoBeuLDQoheuEVh04ReK+ScRUNwEWA3hp46mcvTqXb58OQvm5N7nyAffrcujtHT6bof541MC9s3Pz59eeK07vTnyJWpqK2e7B4G4mLi30IFw+vTp1FXPFW/ATPCaAdeHwYMH8zDCDllfe0EQMhZ4X6JCi06qgueQqQQvfBzRNIyPD5obROw6x7Ah/eidFkUpa57sqvLKAOGwggLpyMHTNP9G/gwheL/99lsWPEFBQezjiRiL1jgjeAGssvD/PXz4MIvo35HaMZlA8Hbt3J0WTt5OMbHR6hSz50V/fSR/Hh5Df1XwDnzzCXpr1FCPF7yInNGwYUOOmAF3khdeeEGbkxhnBS9AyDL49qKj2+bNm6lAgQLaHEEQBMEdZKpOa/C5Q09qmMHfeustbargCF9fP7pxJ4ribkVS5O27Hl/u346km5HRGcJ3F8IUQgfA3UYXu7DKJofy5ctzz1Uc++TJk9m/NKXcv3+PfaET/lsXTE/ZPDRN3VOHFYsI9mzQTAmxC2u6LbHrKvD9bdCgAbuk4B0lCIIguJdMJXjhzgAQQggdRBDfFCRXXAhCSnnvvfe4p3+nTp04kLhOSlof6tevz2knwTvvvOMG/9vk74tzpPb23Qc6vSIqBvypkf3IHejvH/jvoqIyadIk7vAmCIIguI9MJXh1EVG1alW2qsE6g85C4trgfnBG/VywsLIfpwvL+/r6kG8Gv2779u1jFwb4eX366ac8LaWVL319CF34qSPuK34jZbinQohrnCU4hFtYEh+ne7afFsD9BCAMGTpEuqOyrL9/EI0DsZRhPYaVPq1xx7EIgiB4KplK8BpBz2h8sIYOHapNEdwFPuAhIUEsSh2Bbyw6mYVkMWR8sQOWDwrwpyxBARlIJpmDEFzwzUVvf8TaBSmtfGF9CBd/f3+O9ADwO+kN3BWwbxcunWUXhpQeZ3pw+vRpDv+GCooekcHdx9GvXz/+DyuvWaY2d4N7BRFYgH4sV69etcQFFgRB8BYyreAF33//PYeB0mNhOou1JcTReGYBRx2oilGI1y37T9Ok5dvpvnou7FliQ4MDKNDfjxZt3k/zNu2n4ED78V7DQoMpNv4e/bpkK+08eo4C1HUzImhZQEgrNGHrIsdd6MIFkQOQxnbFihXceTP5pFzU+fn60bXrV+i5V7rQP6vmUmCgsYLjXtGYWmzYsIHu3LlDbdu2tVRQ3M0jjzxCNWvW5A5vKbtmzoF7BckvfvvtNx6HuwaszCJ4BUHwNjK14EUP6g8++ICD68Oq4Sz4SBw9epSzJ+njAB2ETp06ZRn3FiwC3s5hwUobFhJMUTGx9PXf66jtO7/Q57PWEIKAWFt6MQahGhqWhc5cuUUjJy2l9u/8RrPW7Ca/oMCEhQzgfMKqi+W3HzpDg776m54bN4u2HznHYtmajHD2EUIMljW4HRjjRLsTxOxt164dD69evZr/pxdhoVlpxdqFdODIHrp89YJ6vwRoc3B9tQEP599//+X/qR0nuHXr1vwfYeXSAkTFwHsQjB07ljs+hoSE8LggCIK3kKkFL4B1DYLj+eef16Y4BwQyMitB4AJYftA07Ypw9gZgvQ3NEsiCdPXOI9Tjw6k05Nu5dP1OFLWuWY5CggJY9OrATzdEFcYQ0dOX76CO706kD6eu5HmtapZNFPaMLcaqoIV7xK3IaPps2kpqO+IXmrhsO8cErlmmMMXfu5+wcAZj1apV/B9ZuFITWCPBypUJ5zg9gM9uTEwUzV70Bw+3aNyB7t3LAOHtrNi0aRNXvh5++GFtSurQvHlz/o/wZK6Q3JYlRJ1AshNYem/cuEHvv/++NkcQBMF7yPSCFyDwO2JruuLriA4m4eHhlkgPaO4sUqQIValShcczKmYfTYvF2jALiwUG+FEWVYyeu3KLRkxcQu1H/kZLth2isoVy048vd6N3ejVnlwYUrArxG6yWvcfP0/Pj/6KeH0+l3ScuUKPKxWn++89Qz2bV6W7Mg6bUMPgBq7+9cvthevSDyfTGz4voyq1I6tGkGi0b249qlClIsSYRCJL32U9btm3bxv8bN27M/1MLpNOGPy/u7/QiKDCY9h78j/7bu4XaNu9GpUuUp9i4B4kskqnTUhernYqMjOTICTly5LCkDk4tkEIari7nzp3TpjgHntPoaMRLTsBZARwcHMwxymfMmEFPPvkk5cmTh6djWxDdEMGCIAgZHRG8Kvnz5+cQQwj+vmTJEk7T6kwop44dO3IKV4D/aBpE5qWMDDLEIC2io8xaEKOw3M5c9R91eW8SfTRtFcXE3aMhnRvQwg/6Ur8O9ShneAjFxaODUoLv7bU7d+mL2Wup1fBfaMqKHZQ3exh98lw7mvXOU9ShQWV2c0BsVliB4b5w9OxVGq4K6TYjfqHVu45T1RIF6I+3etLPr3SnepVLsLK19033KNeS+Fii+/e0EbKIGWd9QfVjcfWYkGkNfry3bt2iCxcuaFPNsS2QnBNOZmCbiOO8ZFWC+0/39k/yNbuvGC3z2vbVfx5zzdT9uHfzIt27mpDk49q1a/xMQIwGBDxwx7AHhCRwNf0lrhkSUEBkGwWsM6BT3UcffcQtTq6cS3TIA4gLDXDd4N7wySefcMxy+JwLyQfP3/bt27Uxsnk+ETpz3bp12lj6gw6mzlac7JGZ7x95djwHEbwa6KiBDiPwecSL3pkPDVKA4uWEFwJeZsbmafhMGj8eGQV8zBFy6dFHH7VYIWEhNAI3g80HTtPz42dRjw//oG2Hz1KHuhXon4+eowmDulDpgrnV8xdLUbFx/NH19fGlhRv30+Mf/EGvfD+fLly7TQPa16Xln/SjN3s2ozzZQunu3WgWx/6qOIiOi6dfFmyi9iN/pf/N/JdCgwPp/adb8fZ7tahBwYEBFBkRxZZjM/CZxzn3pMrH/YhrFDl3DNHlw7xvEDOFCxViceMMuAY4l8kRhBBp+JA6stRh28gIpmcFgx9nwu8lX4RC7N24eZX+nD+JihcpRfVqNaGo6Eh1i8ZtJozdU88Lss15CvcuHqI7EwcQ7V1Ip08c58oYRCwy0CGjHVI42yrHjx/nXPoAcZYvXrxoupx10beN37l58yZfC3ReQwuSo4Iwd/D7RUg6ZNtDh1xnwHpIaQwLL0LY4Z2GFgEcw+zZs/kegJAWks/XX3/N8d/B/v37KVeuXDxsBmJy6xUQM3Cf4N2M+yKlLnSoyE2YMIGFrRnPPPNMil1cHB2vN2N97DCmudpyI7iPTJVaGD5qf/zxBw9bA+sNXjTopQzw4XHUdIlaO5qkn376aY6bCfeG7Nmz01dffcXxT/HBGjZsWLLcHCBQkG4WojmtRAA+bHjxrVmzhntpw/KNY7tx7jiNaF2aCubKyhmxkMWsyevf0+GzV6layQL0xmNNqGO9CpQ1PISiomIS+exCrK7adYy6vT+ZbqoitVP9ijSoY31qXr20KuJ86a4qjI26Fcv/sHAzDZgwm8f7q8K4X9s6VLNcEbqnCuKY2HiH9kYI4h1HztLKUzH05huDKfbKJVLiY1Mg21KG4utP92+cI58139L98Lx0LW8tajXsOzp7K5a6denM4gZiyhb6dZk6dSpXSOAr7kwLBNZDWbp0KTfHoxUCHa4gts1Acz182pGOGAkx4Ks6sP8gmjdxi5Za2HXCw7LSXwum0NCRfeiV/u+qZRRFRN7W5uqoV8bHj0aPeYoGPRxEjWrV4MqSEpP6Yblsogr1+zfOU+jF/9R7XqGDcTmp908b6NANhQrlz+uwEovzjmcIHzf4xyJVsC1RYQTrYdsQyHgn4dlHpcGZSrP+m8YICy+++CJX4MPCwrQpScF7DynXf/31V35H4rchdGAlxjsIGfuQzlpPZiK4TqVKlVhYwqiCitBDDz1kMxIGUoLjmwHfamuwDiqi+r2EijA6XX/22Wc87ipo0YSRB9fcrPKN+wGdu1OS/c/R8WYEUOFDOnFXhbvx2BFmEM8hovM8/vjj2hKeC/onIVqM3qfAGxDBqwHr1+uvv04LFiygK1eu0PTp0526KZG8AkIEPasRpQHCAi+qcePGcRQHfCiSk5EJD0e1atU4GkR6gpfgQ+WK0w/9mrPghVX17NVbVPqZhGMa/kQzevfJFhSULZSibkQksbqGhgbT1OXbqffY6RTg50s/vfIo9WlXl+dF3rnL/42EhgTT69/Po8//Wksl8+ekn199lJo1qKQuHE0Rqjh2RrTiI3Dm/CU6vWkx1S9bgGKzFiKfoFBS4iCgEraAv9hT4/b0PXf3PB8fX/7texcPU85sgXThWjQNXXSWZu66lrBQGgAxVLlyZfbPtCW8IKZRwdKtS/hIx0bH05KpO1XBa9/FxQz4oQYGBNEzL3ekNRuX0aKp26hCmSoUFZ30usfc96U/fxxArxbZSVnD1HupcB3yy1tKFb0RfBLV3U9buJJylsIvbKcI9Tt9MDorPf7DBjpxLe1EOO5juKOgpcJehUgHwhgWv8uXL/M4KjCIMw6LL66/Gai0I17ziBEjqFy5crR792768ssvqWjRolSiRAmu8OK9BqsitiO4DoQDIl/gXONaOhKAqHjgO4Vwgtag5RGCd+fOnewOhW8M/K6xbLNmzbSlnAcVZxhn8KybIYI3AfTPQei+Fi1aaFOcw/rY8RzhfDrrFpWeIBstjB96PyVvQASvFUgdCoGKTmmwzjoCAhkWEjRXPffcc3xzoGkQTVioHeFDAvHsKhAl6MkPIe6qD2Bywe8gyxMiVkBwd+vWjRN0zJ02kV6sk4sFL9wOoD6G/7qYfly0maJi46lNrbL0ctdGHGUBncyiYuIswhd+ueev3aZhvyyimf/u5vBlT7eoSYM61acaZWG1jWffX92ClSUwgDYfPE0vfzePth4+S7nCQ+hFddnnWtemYoVyqwIsluLVc2PP4BUQ4E+HTl+is+vnUNvKeel27mqUpdVL5JujkCqgIlUBlSAedGuatRjQp7ltnm8AxatiN3LqUAor35CO5ahFLfu+STci7lL7dm3ZAuiMhRfNzXhRwt3EWWshCpq5YcGBtQ+tFrY+PLA+4PlYv349Va9ena3BC+Ytovm/b02WhRed1Y6fPkwtH6tG9Wo2oRk/Lqe7UZF8fhKjnisfP3pr1JM0VBW8jUrnobu5K1BI+7fIv1BFbZm0J/bAaopa9iVlazWItt7OSk1VQZEvXz6uzOIY9OMwXnN9GoQNKr+DBg3iDx58YeHaYMRsPVxfNDPjucuaNSu/j9DS4oxFHwIZlnkUtAJgG7iO9tDvI92KjH0ByCiHViYIZnz0EELPzOIoOAbnD98H3TfXKILQonj9+nX+huA9ANAMjljMukA2ogteVExQgQVwWUJa8jfeeIPHsR5cYXA/wHprDDGH+wnfJfQ3gZ84WhHQMdHYeRZies+ePfz8v/LKKxbBe/78ed5X/XexLraHbQHco/hm4V7BNxciHzgSvKik/fPPP2w9xW+iogzQEoXp+A/LeMGCBXk6zgFcburUqcMWanyz0J9GP1c4f6jYY/8QnaZ27dpUoUIFnqezZcsWXg5hIZF51QhaOGGownGh4gd3oS5durAewHGh5UvfRx1njx3bwjOpXxNUNuAOif3Fs1+8eHF+3p05PpwX3FP6tURFF8s7e7z2ziOu9RdffMHT0TKBijcqwBkeCF5vLtu2bcOXhIsqeE2XsS7qR0BRa2Km86zL0aNHlaCgIEW9mXhcfUAV9eXDw2rNXunVq1ei5T29qB85RX3pKOpNrqgPMU97++UByslJbymxiz5SIuaOUaIWfKjEL/pYmfdeH6V+haKW8zugQz3l4C+vK8qyTxXln0+UyHkfKHfmjFHi1GXvzHlf+e6lrkqxvDl42bzZw5QxfVopl2aMVJTlnyrxiz/mbd9RC9Y9N3WE8k6v5kpocCAvX7VkAeXX1x5T7s7/QN3+/5SYhQn7YlbuLRmrLP3fQGV469KK8kk95frHzZRbkwYpcRePJjnetCrxty4rkeunKPfj7vJ4lSpVlDy5cyvqS0vVGc6RM2dORX3paGPOo76gleDgYEX90CXZL+uiVvaUPn36KFeuXFFUkaxUqlBFObY5Stm/9obL5czO+8qwwR/y9Rv//kTl1PY40+UOrLupHNkYodSq01aZMaS5EvtBTeXGV48qNyd0U6J2zDXdz7QocTcuKHHXzljG1Q+yUqhQIe2sOubChQt87B06dNCmOIcqePmdogqLRPvjTJk/f77y/fffm85zpahCQXnsscd4GPeDWrFPsowU58qrr76qPPPMM5ZxVawqagVDUSslSt68eZXQ0FBFFS2KKtB4Pv5jvipGLOvoRRUlfE9hGxjHt0oVO8oPP/zA48ePH1dUYcjvF1WoKqr4UtSKFs9TBZuiiilFFbf8u5im7wuGUVRhrqiVHkUVOIoqqhRVeCsjRozgeXg3tG7d2rIsvnnYF3wz8K3Ab6oVQkUVVIoqtpU///yTl7P+DWNRhTW/17Bf4eHhilqZ5+n4dmIfsmfPzvuqCkRlxYoVPA/bU4Uo35+Ypwo0y3oo3bt3V1544QXLdtWKhKKKesv8t99+m3+rUaNGfO4nT55smYf1sO+q8OR3JvQDtoNzgnGsp4pay/Iorhw73iGqoObhadOm8fbwfsYxYF9wjZw5vn79+vF+5Va/IThHasVJKVCgAB8vtmO8d2wdr73f+fTTT/kdpAp7Xket+Fi2l5GLdFozAVYONO+p3x5tim2QpQ01Xr1GB39M3WqSFqlB3Q2O+ccff2TfPb0Wq94o/J9lrcq9e/cpVj3Gjo2q0KyRT9Enz7WlHGFZ6PsFm6jN8F/omznr6NrtuxQSHKieS7UmGRdPgf7+NKBzQ1ow5hmO5HD5ZgSN/H0pdRo1kf5ctYstxwhbht+IjI6l/DnDaUyf1rTkw2fZ73f38Qv07Od/Uq+x02jd7hNsKTZLOgFgowoO8CXf0g+rA+HkG56bfEOyU8QfL1PM3gQfbcaJ6+sufMNyUpb6vYj8EnruhwYH0ZWrV+12TjECCwKujTP3pBFcO/ijo9aOJm5HwH8QTaqwtsBSZPy9AP8ACgoKZsvtgxKklcTTswSHsOvCXwsmUY5suahhneYUbcMnFz+BXwlRr1lglbY87hsYSgE1ulL0yu/o7tIvEhZMQ3DcftnykV+OQgkTom9R3pzZ6OLFS05fM91XGtfOFWD1gXUK1mRXgWsV3KxSCqxYSL0Oiw+sR7C8CckDbkJoEjeCbwSeTbQCoAMaYjzDmglg6cM51zs9m4GOhrDuoQUB9wqyKgJYYmENheUOFj28w2FhBrDaw2KHDtVbt27laUawT6NHj+YkJCdOnOAOVrD2OgOeF7QowGcdSXUwjEymjlDFGFuXsR4KwigCHEeZMmW4ZQrRZZ544gmOFqKDZxD+7WfPnuUWLLR+4VzqwE8WVm5sUxV6/E0DOC5YLmHVhiUXLVpoucAzCksrQpPCao0Om+jzgHMLCzSsy/DjxTsR1lUjyT12HCP2CwltYEWFZRaRooCj40OrMVoHsBz879u3b8/7jn2ARRnvcGDveIGt38ExoC9S/fr12Zf/888/5+UzOiJ47aA379kDLw49MxKA2R83D15IM2fO5CaEjARetmjGcYRaWeJICQVzZ6U3ezTlCArdG1Wmk5du0OBv5tJjH0yh9XtPsEsDzmKc+jK9GxlNlUsWpM9f6EBzR/ehuuWL0uaDZ+jxD6dQ/y9n07EL19XlE25JxOONjo2nRtVK0ZQ3n6CvB3WmYnlz0Jz1+6jtO7/SqElL6WZkFIcwswbiKVjdToGKtYgKVKB7F4+QX4m6FFi/N0UtHEtRq35IWNCJ6+s22I83huLPHyDa/ReVy53gw4WmQ2fQhadRgDoD/Afx0UAzGTpU2gPbhsiydd/DHeHmret06/aDcvP2DS7GaSgxMdGcWe3oyUPUqc0TlD9voQcVJxv4+/pQaPFq5Fe0GsWf28d+16GP/4/iDqymiGmvcaSLtMJHvYvu37pIscc2U9Tyryn+zzepbtXyqiiI5w9HaqInJcEH0BVw/dCM7Q78/PxY+OCjDLcsd203MwK3tPDwcG0sAQhRuDngfQvjSpMmTSzXHcCdxV5UFbjnQShOmTKFm+0hegBEGmIqA1wzVFjgogRQ6UXTNrAW4ADN73hXQEQDuLRhfWfA/QJ/b91IAuGK76A9ILAhsuBDjncOXKogtACEF4axz5j36quv8rdWj0qB34FYxDFC0ObNm5fdEHRgsMHzg3XhjgDhBxC5BMvrBiocH1yI4OaBygA6psGdBKCSB8HniOQcO4DY1N0tq1Spwvug4+j4cM4gbGFgQ6cyHGObNm34eBEtSt+WveMFjn7H2xDBm0LwYOHm00HNHH5T8PPDywMPQkbHIrJMdFBkVCzFqsK0doWiNFkVpoiRW7pgLo7M8ObPi1jk6KIU24m8G80PZSdVHM97rw+NfqolW4cnLd9BE+aso6AsCREp8FOICBGpimRkVRvUpREt+ehZer5tHYqIiqEPpq6kpduPUFBg0g8x1kWBT5xSvgn5BIdR7MYpFFy7O4V0GU2xO+dR5KzhCR2i0gj4g0bOHEZ3fn2e4pd9Q7XrN+LpiKAAXBWyzqKnFIZPuiNwXczA9MCAQPrjr59oyPAn6c0x/S1lmFaM01BeHd2XPhyf4PPZvkV39a9t67T+s37qAD7cvmUfJt9s+fia+eUuRuHPfM9i986kF+ne+f0JC6c2agUlZsufFDtlEIXsVPdDPf6mHR7lWfo1Sy0WLlzI/13tIGPr+iUX+BnC3xAfVSH5wFcSws0IrpXRtxa+m3pnQwCrG6yLtti9ezdbgGGF18OdId4rRDLCZULQosAyh2hBAOHFEHIS4sisMzQsqTlz5mSxrePKtUfLBHyJ4VNqtCLaAsIL58baNxS+7thnY5Qk+CkD+JYCnD/jvqFCAR9UHd0fGhjnwXoJy7h+fmDcwX7i97Dt5PqpunrsAJ0OEfMewHqsi1Lg6Pis51kfr966bO94gaPf8TZE8KaQBg0asFXM+DFH5yCEikEAeHzAU0vMpBWWD6mNw4i7pwrTuzFqTdeXnuvYgBaM6UvPt6lDwaoYhZVWX10nJi5efahiKFfWEBrVpxUt+uBZalu7HIcoMwPWXoQ7K180L30/pCvNGd2HKhbLR3fUaerJ1ZZ6AKag8EunbEPyzZqPfEKy0d0FYymw3MMU2vtLunftNEVMGkzxFw7xOkyqXieFQk9voJxZ7pNSuDq17pnQ7AzrDCwdlnPsZtCpEqCZM9mou+br509bd62nDVtX0fI1CxyWRctn09kLp6h29YZUs1p99f6wXbmwnHb1d9gdqHQD8g3NqYrdEhQ57wNV/OZXRe8P5F+4Mt35YyjF7DTEl02Na6Zt07dgBQoPUytU6qhPxZbUvkNHtshBkDpjwUkOsMCh+RFNqK5aeAXPBMJWd2+xBTo1GUPHYXl7oeQAOpPBCo/e9Gh21kUWXBH0eNpojdBdGiDI4D6BbeO7pYseHXyn+Pmzgb13FMQrLM6hoaHsFqFbme2hCy1rcaj/jnE6OlACbN8W9r6z+jxsE5ZM/fygoJUNHbewP9b74gzJOXYAF7NRo0ZxyxuuEfSCPZKjI+wdry0yul6xhwheN2H9MkBIMb2mnFpixtOAHy5CjZUrkocmDOpE36ri1N/fj+JVQWwNHiqIYbg51KtUnP4Y1pPe6tGMou6aRwNA1IeIqFgW150frkKLVFHdsW4F3oYtYD2gwLzsw+tfsi7Fn9xOcaf+I/98pSnsmR9VQVWUIyfE7tUsdrhOqfWwK/fp5r0AiotRPygl67H1AoJGD+6fGsB3Fy84vFhheUguyn1F/eBE0ysvjKSfx82miV/Oc6r8Mv5vGvX6eHX9++r1s+fO8OCcc1aiXGV4il+ZhnT/8jGKO7KBfAKCKLTTSAp++FmKWvE1RcGvF5nr3H3NsC11m0rsXYrbvZBuBRelG/ezkFKoGvs1w5cQPdURdzthcffeL/CzhOhAyxCsLULGB0YP3DNG0PJlzHwIiy16wuug6d7aV9QMNFGjORoVWwgn3U8f/Ur0YtwOLPZ4J6AZHuLXCFonYSFGWE6AexvN7jqwIkLc6Rjnwe8VlUHEA8a7xpkMkvg+osD9Twe/ifsexwE/ZB34EuP3YaVMCbDgwpJuPD+IaIBvNI7fuC9Af75xvmyJ4eQcO3yBEbEBFli4asD1THelcCf2jtcR9o45oyKCV3A7EKb+vr6q8M3LrgX2wOsEbg7ZQoOpVKHc6sfeTngutbCbQ0QUFcufk/LlCOfsXLbQrRX+hSqRcucKBdboQtHLv+JpvkEhFNL1fQpSp91d9D+K+vdnns4Cys3EqUL77uLPKfiRQRRd5hHyLZ5guevduxf//+ln7bfdhP6SRsIANG0h5FHKPhQJlp8qFWpSm+Zd6ZHGHQylvVaM0xJKq6adqVK5ahzDN3FmNWsezNP9fAOKVCXl+hkKqteTolZ+x9NAcL0nKKTjCIrdt4IiZg6j+5E33XfNcN60bUXOfpe3HdbnWwpq0o98ciWIkSdaJriGoBkZ4twdlVn9eqFZdObMmSxgvMEVSkgAAggVWyPwnYRrAfxmf/jhB+4whXCDAE36EJ3w7XUEXCXQYQmxkgEyhsJqiA5rePbRggS3JjTXjx8/nq27yOSH3zAKbAA/UjR5I94yOj8hJB3CeurA3xTj8AuFXzDcI3SyZcvGYhiuEhBYH374oTbHPuhsB6sorI7Y17Zt2/J0+ChjOn4PsWsRcg0daq1dQ1wFGQhxbtCRC+cAx4nOWQDXAyIbHcjg44pOcvCRBvBtRaxjCGLd2qyTnGOHNRgVaFhfhw8fTi+//LLFlcmd2DteR+CY8U7C/QLjCUCsZ2fX90RE8KYj+ofO24AEiIW1Fy4HToLMWnBpcFZAYNtwjXBm6YAqbSn++BYKrtGJ7kfdoujNM7U5qoBq1p9COo2k2O1/Jwiou4mb+VJK/Nl9FDnzLQqu24OjNIR2eJv88pQgunuNehaNogLZQ2jZ0qVOp4F1BO4pnEN8YL/55huepndCSQnYJqIs3Im4xZnSHpQ7WjFOe1Cio6OcuKYPngN92cBq7Sh2/wr1f3vOkhe1fjJPB4HlGqtCVBXBMZF057fnKe6Mcx3/7GIQu3dVsXvv6ikK7zWefMNyJ0TXUIn+9xd6JPQ8+0PDumXsNZ7cZ1m/XgCddPT410Z/PiFjg85FsODqwHKGFh50ikJLIJ5PWAfhogCwLKy1Zv6kuFdQsA0d+OwiwgMqi4j3DL9eWPIgqiAc4S4B6ygiB8B6CisvxCyiIGA7xm3BPQIiDxVkvEPQR0Wfj2ZwbA8iCv1UEFEAwh37A+EGsQqRjmNDJVtfz/o3jOjiEOcBwl13vUJnSewDRDaSYkB86dnkzLZnnGY93zgOkY9IBe+++y6fYwh8dJwDON/oe4MEVDg3OKd6yxjcQTAP1xLC0Ygrx24ch9uS3kkOlVxUeNBxznodYJxmPd/euL3jtV4PGKehMxwyRFasWJHdZAAEs9HKn9GQxBNOgDzz6OWOUD0pBTVs1OjxABkdzT2Zt18eQANr5+TEExCynk6WoADafuQcrY8vyTVncPvbnpx8QlHu0915H1K2QTPIJ/hBk/G9Kycocs5oUu7Fc9O5f0FNcBiEkKvcu36GIn7rT4FVWqu/nbAfABEIIv8ezVbt944Vovc++h9bgeC/CWuBUQTp4KMFX3E0AdrqRWtcD5YT9NhGz129Y4SroFbftXN3mv87Ugu7nmnNFfz9A2jQWz3p7VGvWD4yt799grK0eVWtlvtzh79sL04jH1WA6rAQXvwpxR5cQ1keGcjW+oQZLl4zw/JR/4yn2AOruKOcb/aEQPf3bl3i8GghBxeRb9UOtDFXK/bZQ3MfepNDcJgBKxFEDK4BmpGtMV4vhBRCwhc05cJ6JoLXe4C1Ft8PuDBAuAE8z2gGR8dmiB09ygL49NNPuZnclqsTLIzWlk50cENHNx0IEywHwaNHD8D9hmgFsCziPaNjvT34A8MFA+vqLS76NgCa37EN+BhbrwvfdohqbN84z2yfdfAb2C+cG2s3HjT547ch4o1Yb884jucS6xiPG9NwvnVQscS28ZsQgkbg1gGXA3QkNIJzgm3h2M1w5tj1YQhbVDpgPdWBPoHQRudCV45Pb8nUhSr2EdNwX+nYOl57vwOwHawHoYzfQ4c2+Drrv53RyJh7nYbgRYKaJW4id4BaN2rQiL2XUUD2tFxZQykgexiFZgulUOv/xuIB83zV4ZzhiSsT/hWbU8zWWRRYpiH55y1FUSu+1eYkAKtr+FPfsH9v5PTX2LrIuCKcgHafIKpA5PTXKaB0vURiN+74Vor4/UXKHn2GYvxD6Y1hb3MNHz2uX9VC8kAEJed+08UTLDkQu7jXkpPWOikungOXMd9+QKl6bHkPKF6D/ItWo6hlhqY09fz4+Aeye0Nww6fU6/mdOn8CKcnx69XOG8LVwZ879PFPLGIXxO6cT/77FpJvgC9F+QSxhRehusDAAf0tkTBcRb9ecGNAJ1cAq5mIXe8CPrSwAhornrr4ghA2il2AyhGsqLYwChIdo9gFEIiwWBqFCe43RDswil1gvT2INt3dwSisdDBP71BnvS78YPXtG+eZ7bMOtg/LqLXYBbDyWotdYL094ziEnvVxG8UugLEJRgZrsQtQ6bQWuwARLGyJXeDMsevDEPkQ0Hp4MPxHRReWbuDK8VlbanG8RrELbB2vvd8B2C7Ohf576IBpfT9kJMTC6wCE9EDKYPjBGG+qlIB0jfD/08PJeDpP9ehOlcKiKHtYsGkHNE8DCSlOXb5JWau1sqSHvnfpCEVOe42yvjyH7l07Q7d/6pPQ879AuQRxpIkPcHf1jxS7eQYF1ulBIc2cD+IPkYqXjRIbRXd+H8jJLsJ6J06aEH92L0X++RZl97lOd3JUZx9R3KNPdmhKBy9G0LC33qaxHyftreuMhRfg/u7bty8vD7GL5rnkkmDhfZQWTdmerNTCzpPwgh74Rg96a9RQi4UX5wruBVlfms0xcW9/35tCnxhHAcUSPgrG6xZ3dAPdnf8R+eUrwy4qSPThCtFb/6LoFd9Q6GMfq0I7Ifi9zj31t+/81Jdy+NygyArdKaTdGxQbcZMGtalOv2w4TfnyF6Bffv6Jm2SNOLLwAlwv9OpGy0+vXr0sPoOCd4HrCrclpJ23B6yrEKWweDqK0iBkXGA57dOnDyfIgGEChjVUemHdF1IPEbwOQF56OM0js4kRmP7RTGBdW3YG+AYhdq+9TDqeBDK6YF+ta43JBbVI+ECi6Qh5vSHO3A2uDeKYwpdN5/bPfSmo9mMUVK0dRS0ZR/EXj6ii90GHKCOw8GIZvyJVKaT9W6p4dXCdNfEFlwhYiJWoCApTtw0rpDV3JvZn/1NfVZyFdhlFdF2t3X/wJHX6djPdiCV+8cGHTY/yARwJXoht+FkhQDtenuj0pEcSSC4seLs8Skun7Va3mYqCV9Ws/n4B9MLr3WnYyJctghfcgltD8xcpsHxjtsDGHVlPWV+YpM1NDELNQfTCuh7SeSR3fGOsKjTWxOxdyuuFdhlNgRWSRrO4d+koRfw5nAKqtCK/3MUpqFIL9SEeS1cP76An/r5CK1f/y5YPVGQRg1O/bmjChp8e/B2tO6SgExGaLuEziY8fRDE6HsESo1ecBEHwbvQOirBkW1tXBfcjgtcBEE1wSNczwKApE87p8MGBEH722WcTJZ5wBvTmxEcdPpv4IGZGIADg//jbb79pU1IHNB3pTTCIxHDv4mEK6/E/UlTBeeubxynLI4NVAdzWVBTdu3yMIue8x9NDOr5D/vnLJMywXtYwHjlrBN27cpzC+3zPsX/1ebqIQQKK6FXfq/O/Y3F8P/oORU99mQKVGPr8ahUa8fF43g78xdHb2hg/V/e9s+7xjdYHVMzQNA4ef/xxmjRpUopfoPAvq1O7Hr30/PDUDU+jnjo/H1/6a+EUmvDtuERpbHGu7l07S6GPfsA+u7fVaxbUoDcFqxUXs2umxEXT3UWfUNzRzeq1fZGCqnfQZiRdFsSf2EYRM96g4BZDKLhWN21qYiL/fJtdHLK0HEL3I29Q9OofKXTvbLpXqDqdbfA6vfDiEEsyCnRCgYUd4aIgeNFBCJkY8b7Ax+3SpUscQgpxN/WwSz169OAOhmgyFbErCIKQOojgdQCal9DMoHdMQc9FCAGEZMEHDG4JCKkCp25ngWUTggbhPRDmIzOCigTC0ED861l0Upv7cGX47QXKOmAK+Yblouhtf1PM+omUbZAqFP0T+8Dp3L97i6IW/Y/iT/9HWdq8RoEVm2tzkoLEFnHHt1DYkxPIL2dhU5GFTGsBFVtweC2I7ts/PEnZYy7QHQqjsP6T6YtfZ7DlD0Hh0aQJMYRev7i/UEmC9RD52mEVQGcC9LjFPY0OExBK/fr1Y59zrJtS8YSOL3CJQExQax+41AAdRWClhtVfB64oEX+8QlmHzCKfgGCK3buc7v4zjrK+OIN8s1j5/BnOd9SGKRSz7ncKUkVsluYDeZqOfl6Q5jly6isUWEet+DR+VpubGFh37/zxMmV9fiL5Zs3DsZwjJg+mHEEK3cpSUN2v2WxRR+94hP7Rg/nD7w2+h/DLw7Xr0KEDh/hBGCqIXoD5CLeERDVoPRGxKwiCkHqI4HUAejXCz0a3tKHpER8zdAwCCFOC3pbwx3EWNE/DEgTLMGILZjZg2dZT3aIZGOkv04o7Pz9LgTU6WXr03/mtP/kXrEBZWg/lcVtEr5tI0Rv+MBVQ4O6Kbynuv/kcLgvN3mZADN+d9wFlG/IXkV8AxwaOWv0The6fSzej4inbYFV45y7FPbQRgxKuJDpoCUCMRwgj3M/o3W1MDwqRiHiOsO5mdKyF3+0fn6bgBk9RYOWWPB6hilTf8DwU0nE4j9tCP9+4HnBxwDo68VeOU6QqXAMqt6GQVgkdxsxACmoKCqfQjm8nTFD37e7izyhm83TyVSs14c/+wolNAMTtr7/+yi5LxhSoOB4j6KADN4cXXniBQy4JgiAIqU/G7W6XBkCYoknc6LuKj1f9+vW1sYQsOuhoYIb1h04Hnd/QzA4/U7eDECU2ftdprLdhNhwbCwekhGEXmTt3Lv+HGEC0Cuu4hqlJQPmmFLdHy6ymEtzqZYreMY/uXdbcBGycu+BGz1BIl9EUu2sRx+tVDPF6ozdModjtsynk8f/ZFLsget3vFFizG4td9YfIRxVgfiXr0K0c5SioyQsUH5/QIRD3F0LhQTyhORxWXQhcuBUgexw6UqJDFMLDIDYmrIvoEOMNYhdYWzk5WoMeNUMlS+tXeDz+tBbb1MY1C1DPLVxH6H48W2VhpQf3b1+huzPepIDSDe2KXfgEI2kIokAAfp7VfbuvVlSCm77A94NP4INoIKjEIrwY8uLjPzpMokKLuLpwc0BAfyQDQQSNL7/8UsSuIAhCGiIWXgfAbxK+kbqFFwIEHzA9X3bLli05Q4ut4P4IPQJ/PQhn+Psi5EmqWXjR+QvWUmzTJJSL0yDIdN26RDVqaBNUkEYSnaUaN4ZPBvmoH28FbhxaFARXgHhDZiE0BcMyiSbftHLYR4SGiCkvUfizP1osfncXfEz3b5ynsKccZ5DheL1z3yMf9akJ6TKK/XyxPoaREMEWnG1tznsUPmAq+QY/6H0NIeZfoTn7jyr34sgHll9VWOmiD5UB9NiGny5cGNDsj169CGeEFJGIAuBMCtKMDCojsOqGv/A7R74ASC0cd3oXZX3esQ84fH+RTQ/+ukGqUI3fv1IVqsEU2v0DbYEEIWvN3QUfJcRl7vyuNkUVyxHX6c6PT6v3z8/kmz2/NtU2qKCgooL7WzqlCIIgpB9i4XUArGj2LJAQJ7YsuQBpCiFSjCn9EIII1l09CLnbuHePfFauhDOkNkHFzr7ZwmfDBqhSbUwDYnfVqoThBQtIQb71rl3RlZ9o7dqE6U6AcwWxVkMV07BwQbClpRDwy1WEfTHjDq/TphBHAYBwRcIBR3C83ie/Jr8C5Sjij5fp7twxlKX9MLtiF0Svn0SBlVqy2NXvF4TaggAPKJ3QYgCxi+tltHDCuovYjKisIQIAMhPBdQGVJ1iCvV3sAr+8JclHPW9xx7ZoU5AhbwApkTco5r8F2hTbIFJGaKd3KLBmV8qy7H2KPbyGsrR7U5urYiJ2kWwi7vB6Cq6vVUi1awbLsi/uISfELsD7A/7UInYFQRDSFxG8DoD1ESG0dCBUjWG0YMHBOKzAsOJC3MLnF6GGEGsXoZ3efvttju4A31WATmvoCORygHm4TqBTzB5DKlX4cUJ0Any48WGFC4b6gVYgfDEtJoatsnbZsQOxkhKG1Y+0ejAJIldz11DQkejJJ3mYVq8mnyJFkCSelOnTyQexA1VBr4sCe+hiDp170tKVwUhAxUcobl9CekWAaApBDz/LVkMl3nGINIivgCpt6N71s3Q/LpqUm1aVAysQGeLehUMUVK8nj+vnIPbgv+SbLR/5ZS/A44yJ+BLUa1ahOcXtWaKNqZWCgGAKVisqyICGuMc2MdyTyo1zdCtrWfIvVImi5n+kCubr2pykxPyfvbMAbOraw/iXNqmX4s6QwXCGM3S4uzOcbYwBGwwZMmHAfMM2xgOGuwzX4e7uznC3epO0eec7ubdN07RJBQbj/t7LaK4luefec7/zP3/ZM0dsV0iI7dzWYyjtYhZiWZ+3ovxbQ0NDQ+PVQRO8TmCFHFWokqJFi8ZKJcYpeZYDZIARI7AZic3Iefrp0pLL6UxWwaFrhFoNhwKa61mZJTHo6K7w4YcAa4rT/3fZMui++QYYOhQWlqHk8ZmCy9cX2LABut9+s+54/Dh0CVTcsnz7LXTjxgHKNhYhmHXTp0PHVGzvv2+1HLMEohD1FtbR3rIFlvXrYZk2DbqtW2FheqVJk6zC2kV4Lux9NV8UHgXehfn+FTk9reJVtiV03gEI3zFFWeIARTwxf2/osm9kmioWlog4vBTBi4fAEuZYwEdbd5XgJhXTmS3wEOJbwzlsM1rhLeHB4p31uvEsWhtuabLJNGEOsRGqMoPG1YPwe28M/Fr/hKhQMeCa1QumG4ofMFHal6nHTGc2w7NSV/lePQZ9d80PrsKjSE35XkNDQ0Pj1UETvE5g+qx9+/aJZ6H1Yfjjjz/GqqjEgCGmHGJ6sc2bN0uLLlOOkfjcHbgdfXgTXbnt77+hY6EL8ZkyYGzyZFgGDgQGDICOfrfBQgzQussUUnfuQKcWtnj6FJYzZ6x/23PjBnRCLFuGDQP6WEvg6mjVFZ9j+eMPq2sD3STE5+mOHoWOpRXr1AEaNYKuWzdYxLnQ0a+XuYjtpm1pxWbddQp82xfTMvE8PZegPRdwC8gMfcbcMJ4Vv4sobcRMDREHlyDy6R35Pg5C+DDgKWTRIBjyloN35a7wyFsefu1+heXZXQTP/TQm+E2BPr/ma0fhWf49ZYkVqzvDNRgcFDrQiIt7przQiQEDreIStc3q9kPE0VVSDMdBEaphrJx3dpvMv8x0dG6pMoqByjiZnSNUDFQijislX5XtIw4sgnvmfNLCa4vxwm557biLl4aGhobGq4UmeJ1A8cosDYyMJ6z3TeukKmbV+t/lypXD6dOnZUopNXE+g4to4aXLwyNaRhUYpZ2UiHpLhgyIosU1c2bpQ6s7dQoWJrzftAm4f98qThV3Bik+aekltn/bQx/QvHkB+hcrFaK4vYXfT3wOSpWyBqzRzcFbiUjPkiUmKC57dljoi8zj2NXYvinENK3eLNBh+zpx4oQUwwnVJX/e6PNWglkVT4rQMeQsCUO+ighb7zhNGqfOg+f1keWIfRrGpMRyz5hXBrzR2hg055NYvsARu2dBn6t0bLcFgfHMFlkG1y1VJmWJhjMMeSvAdG6b9Y3SZvosBeBRsBrC/rYW7CC2g8zwvfMQvn+hLBnM862iM3jKYDQORLhv2Kbx1hViX/oFe1a0STOoHI8uFZ5FxWBPQ0NDQ+OVQxO8TmDJ0K+//lr659rC6XjbKXnm1qSwZdlXujwwgT59eFmVjfuzahYzOhDWzLetJuUqOiE4dRS0/JtpwShQ6QdcsCAwZQqTBlvThfEBze+mfj93d6bjsP5tC7ejkGW1Mz8/6JhLmP7Jdpba6OMoyM9W3RfCwmKOHRQEnfitGDFCWoTfLl5cZrdgwQTbFwcRFPyFCsW2oL1ImNPV/PAfRD5R/JYVmPLKfOOkLGFrxSp2LOYIWaRA55dOiie5zEZY6Tz94NviO3iWbY2w1T9Yq7qJ45uuHYHXu2KQYodJiGKDEGoaruNZrC4ib52GJThm8Ei8a/eVrgYRJ/6W79X7koVFwnZMgV/zkTDkKiGX2eNVvr1sT9PZLQhZ+hXCtkyQll9DLpsMJeJ4vE6int6B4S3r7I2GhoaGxquFJnhdoH379tFuCgnBethq+jKWGqUlmJH1LBlKX98uXbrIdYMHD5aWYUfuDglCFwA1YI5+xKlTQ1ekCNC8OZA7t1W8hoZat8mSBRb63dIVgSVnudweCgMGsz1+bPUDZslaBq6xjKz6OeHh0odXvlSRS8HLl0DHzzx7Vm5nWbPGau0V34tWZwoPRqnzPNi+uOxFVO5KCGZqcE+TFaYLO5UlVtx8U8OrUmeEbfxNKFoKeat4Cln8BaKMofBrrfg5i7aL5YOstKW32Ne70RcyKC54Vm/oc5WCe7rYVfgiH/yDqGf3pGVSw3VoQWeJX+N5mzZjO3j5wrvaRwjfygA2cb0KTGIbtqFvg0Ew5Ksgl8WHIXdp+HaaIH13fQ7Ngj6njThW2pU+vW7ieqFLg4aGhobGq4cmeF2EhSKcwdRjtOJeuHBB/kuhy7y7LB/KqkoUerbEEkyuwCA31a2Abg30n6UPb+/ewMSJsPB4OXNaMyxUEA958fnSL5cZFCiMHfH0qQx8k8epWtW6P90T/Ky5Yi10axAC1uLjYxXZXEZRm14JwCpZEpaQEGDMGODyZYCuEO++C4t9WrOXEI/CtWNla1DxKv+e0LpRCN+3UL5nDleWuPVt/ZO10IC92CV8r4gjBlh51fwEqU0PpG8pLb22mC7ugltaId5800Tvo+Ea+vyVhfi0aTOlHTxLNJZW9vC9c+U5D1k5El5VusGjiNUFwdngkn65hvzv4onRHcYjK2A8pRQnUY7PNHaadVdDQ0Pj1cV92LBh3yh//ye5c+cOJk+2RnEzw0KLFi3k3ykNiygw1yZL5lIM0ac3xa2YdF2gIFVdDmh1ZnqwTJmAxuKBz4A2Vm+ij62np1XAch2LZJQoEeOja4sQ5PIYFMc9eliPnS9ftMVYx7/fegs6HlOcP2m9zZMHoDsC/YLph1u2LPO3QUfrcPHi1jzAN29CV6aM8iEvJwxgihACyaNgdZlqTEJhJNrPPUMeRKhuCRf3wK/Db3BPq2TVUERQHGyWG0/+jXB3H5lDNmzjeGuwk/ibhK79ReaE1Wd+K/5jaTjEzS89jPsXwFCklhh8iEGYDfocbyPs79EwikGMZ4km8BaCV8WVwWXoqu9l5T26NIT9PVZW0zO8WQ5RQQ8RvmMqfOoNFKI6Hl94DQ0NDY2XGq3S2quIIsoSxNE2a9cCR4/GCGa6JbBMcvXq1vfEdj9Hx6D1WLV226+fN88aNMcMErREt2+vrHh5CZ4jBE7u0tHlY20JnNAGhkeXYeg2yxqx78p5F0SFBSLwf+3g1/YXIZ4KIXz3bETsmQ1DmZbwLFgDwQsHwL/rFLj5Ow7as3eXYG7nm2IAwQwXoaGh0i2EfuLMEc1ZBFdmH/5LBE3vDkOxevASgwaJ0i5RgfcROLq+GNhlRup+zgtSSJR9I46vEW00F6k+FtewwHR5P0LX/Ah99iLSjSLq6W34Nh8p19lj317049+5c6ec6bktBoEcDDMWIFu2bNJvnakOs3AAqaGhoaHxwtAE7+vE7t1Wf1vV8kw/3bffBlLIEmu5cwdu334LC63G/fpZrcYvORGHlsF4cp0QoLFzuUYcWYnw7ZNhMUXAt90oGHIUiyNs4iN02xRE3jgG/45K5L8g4uxWWSQBpnDoc5aEbzPnEyv79+/HsmXLpD84BS+FEwuaMJ0dZxModt999100a9ZM+o6/LtW8wvcvgvniTvh1iCkFbQl7hqC5fcUgIiOiHt+Ad42eMLxVKVrQOiNoUkcYyrWFV/GYlIORT27JAET9tX2wVOkF7ypKXl4bbK8J9jVTpkzBmjVrZOo9oxhQcp2tOwUHK/T1b9mypfTpf+utt+RyV68tDQ0Njf8MCfXPLvbdieG1ErzMjjBnzhz5t8ZzgoF1zC9M8fUcLtiUxhL6BIH/aw+/LpNk2WFiPLdNFpbwafGtzKNrOrURqT6aJdc5g0FTgRNaw6fxlzDkKRvrHLDiWtD/2kGXPhd82/wCfcY8MN+/LP59U65XoVj6+eefpXgKUirdEQoiil2WpL5792505hAuZ9YLBkOyDHFK8G8KMGefzYC/oD87w//DmbJSncVsRPCcTwE3d/h3+gNh++bDeGAxUn3ylziOc+s3XSDCt05Eqt5/KUtiMN8+Kz/LLU12eFV5Hx5Fa8N4Yp30GVZh6kFmZWHZ5/tMDyhgURlacQ8ePCit8cxOQssv0/Kx0iJhZpevvvoKnTp1ku81NDQ0Xirie4Yn99nONK10iWRck+2x+PexY9a0p4wVSmFeK8HboUMHzJrlmnDReH0InvMJ9LnLSrcG0/VjCJnXF941esOzTEuhriLx7I/W8CzbBl7lEsidrNy04XvmwHhmM1J9MF1ZEQOLVgTN7CF9RJley7NqdxgP/gXvBoOs/ryC9evXyzR2hw4dku+LFy8uC5twKvyjjz6Cn58fVqxYIQMkWdWP1t8tLAwioMjivh988IF8n1zRSvH2yy+/yDLQzEVta6lUUY+fEutYmfDLL7+UqfycETSjh6xS51m2FYLnfYaokMdC7E6I9rENnNgBhsI1ZHEQ8SGybeLj2eTOQsjWgTeLg9htGy7EMwPWuD58+xS4Zy8qU8r5d58Ffaa8ePz4sWyXJUuWyO2LFCmCbt26oXr16rLsOH3669evL62+dG9gwZXt27dj2rRpsigL6dWrlzzP9kGtGhoaGiTJfbmTvi/RsOosY4mU+gMuY/89WCiLGa2UGS6cOGGNJWLsj9BoFhayeiN2dqOU4LVy/qNA0Hi9UK2gCWEoXAem8zsQ+eAyQpd8JYRtO6vYJW7u8K75iQxaYjnaeBE3syUyUpYZ9rItWmADXScYDOfb4lt4lG6BsDU/wu/+SZjEPmT16tXSUkuxmyFDBlnVj0Jp5MiR0h2HQZAURWXKlEHTpk0xaNAgLF68GPPmzZNT43R7YDYQ7keSI3YJxdz/JkwEwnwR8VQP4zNDnBeXp8Q6c5Andm3fGy0CnWEoVB3G89tlkBpz5Pq1+UURu1YBzXzKEUKsMuBMdrTscG1R3psu7RW/7xm8SjWX7+0fDqZTfwuxW1dadL1qfQqP8xuQ1iMS7seWSZeFLl27SrHLAUHPnj1le3322WfS0k6fXaKKelp66YLCQQm3a9WqlVz+xx9/4MMPP5SWYuJogKChofH6wr6cA2bbGb8bN27IPoiwz7DvO2U/ovZnnFVStpVpR/lc5Evpc3DvnnV2lnA/pjFl5VbC2J+l4hkl9rfcugULvwOPp8xmSWyyMln4OVxv24/Zfg8u57+2mZyYSerRI1i2bEEUM0OJZ6ll2rTY26QAr5WFl7AABF8arrN79245HcuH+qsC/V3Lly+PfMwy4QROiQdN7oiosCBpyfOpbS2xbEvIgoFCZXkJseo4cImE7VtgdX/4YKqyJDaBE9vDs3I3eBauIaflg8fUR4CvAZEwYHm6NujW70sEBgZKi+CoUaNQgEVFFFjUJFOmTEiVKpVsC3tojeWU+m+//Sbfp8R1TmtksyYtsW7uEUQYlRzMzwF2hby2PhrYGoO/7iun/51hCQvE059ryZLDfu+NkeWC7QlZNgyWiFAZPBgfgVM/gIdoD6932ilLYjDfv4qQOb1lIJvOOwDGC7tgWtAXfj563A/RocNOb2zcsk22y9SpU2OVHCeXL19G3rx5UbduXaxbt05ZGpvZs2dLCzHLbHfu3BnTWQRGQ0NDww5Wez169Cjq1asn+xXOBlLkNm/eXBpIFixYIAUwjSF8TkTDQPW//4aFhavEgJsFoqT1lGJXiGaZdWnjRqt7AXP6i8+xCN3EAHRdhw7Q/forLDQWshorY4A4AyfW6/btg0V8FtOh6mihLVcOCAiAZZ7oL/ncbdnS6t6oIr4vLbgWWnaFgHYTzyxL1qywtG8vq8YyY5Ru8mRY0qWDpXBhuInPswwdCvFAVA6QfF4rwUsBQUHBC4OR0hwBJdcK9jrQ+b3WSBdxF/4+nmLgJUaFPGe2o0eijuZegnUGdzfcfhSIfNVaYsCAAcrS+KHlNvDXunK62r/bn9aFdseMfHQdgX92hX+HcTJy3xGB41vBq9pHQkDVjLO/+c55hC4aDP8es2W+WPOdcwjfOQN+biYcP34MDX7bidtBZjRp0kQGVrIstS3OBK/KUNFB/PCDtRIcrb/JScOnCt71846KAQQLOvD38Lyr/9qSjHXi/3p3PXoIwTvo6z7xCl7b+5WuBt47xiKsYu84GTbU7Zi1IUgMMrzFIMXjzXe4QnyWdX9iunIQIStGIKD3YujEYMaesK2TEPXgKnxbWy3m5ltnEHX3HDx0Rnw14md8t/KYdDFZKjpvtYqiLa4IXkI3K7qhsI1nzJih+fRqaGjEgRl6Dhw4gB07dqBgwYLSMMK/9+7dK/vMUqVKYdOmTTh27JgUwSWYijQqSlY/jSpSBG4nTyKKYpXVURmozkJS+/eLB3xngC5ZmzcDfftCHNQqhkVfacmVCzqmGb1zBxg0yCp6KWTFd9H9+CMsFLniOcH0pLqnT2ERx9WJvs7C565dPImud29YmFaVaVJpmGEaVVp6mUqV1mWuE7/PIp59upIloZs6FRYGv6tuDzZ9d1J5rQRvjx49ZConBq5x+esS1Z5chvbpgS9qZIdfhtRCJShTIC8znh64dO46Vj3JLO5fcQM7QhE/DDILmi1uxJBH0GfIDd92o5UN4kIBxJy8qbrPVJYIlOPIvLs7pyFVT2uxCnvCNk9A5IMr8Gv7q3wfLd7CnqJJ48ZYtXmX7LRWrVolRZQ9rgpewin1sWPHIpforNhBpleLhCQSq+BtgVUzDyJCqWD2fNBJC2+vwe0wZNhnTi28EYeXIXzHdOjzloPl2T2ZIzk+wsR2ptMbkOrj+cqSGIJm9ZLZNzhIsRfDJGhKV+m77VGsbqz1ly5dkrMHjx49kn0JKzE6wlXBS34XD5JPP/1UWmqYnYNtp6GhoWHLlStXovv2fkIMUtyOGzcOderUQdu2bbF161YZH8A4gmrVqgEPHkD35ZewTJoErFkj30tXBVpZWTBq+3aIDWVVVt3ff1vFLN0LmOM/KAiWM2ego7WYWkk8p8BZw549ra4GzLsfGQmd+DwLB+mBgdYvSXcI5vS3R3w3y9Gj0FWoAIsQ6TrxfS0XLtDXFDrOHgtRbhHPNh1z+wuxbJk+3VoQ6+ZNa8YnFr9KJq+VDy9HSIxkpwCgKNBwDY6IHgWGwvQ0GCHPQl76V9SzYDwJFqNYOwGjQrEpxYslCiGLB0Hnroe/EE3me5fkKz68KneV6a8ijq6yLrARQeF758Hznffk344wX9obXfWLqN9t0aoNUuwGiNHuxIkTpdiV3y8JqPvRh5ejewrjlHHfSdr3cR3Xjx9xcgPCNv0B73r94VN3AMwPriLy6R1lbVxY6pntFLY3tuA13zotSzx7lmtjXWB3rTCjRlTwYxjyK9XVbNbzYUKxS7/b+MRuYvnkk09Qs2ZN8Tx6gG+++U/XAtLQ0EgCzPgyf/58GcTMwTHFLQfSdIlimkPGEjD+Y6AQiVLskjRpYGGAmdhPR1cFb29YaFChewEH4fSV3bbNWjSKgpKWXb7oh0urq1gvC1DR6vv4sTWlKQXo+PGwUDyLfSysAMtCV8znz8+i4HVE1qzQ0Y1hwwbrszM8HDpamelLzM/j59LdghZl8ZlurNwqhLHM6MDvkQK8VoJXdfD+888/sXDhQukDQ5IqMDReTVSxSR/PqGd3Zclgt7Q5ZPYE8+mNcp0jdHoPeFXrIVNYWSLE6Fg5TsTZbeJ9MDyKN5Tv7Ym8f0lmEdDnLa8sscKcuiNGjJB/8181O0F8Qt0Z6n7M9UorAK2mvNZpFUgeSfs+9vD7eXv7ytRqsXHt+KYrhxC29id4Vf1Qlm/WGTxlajfjqXjajPe1mxu8a/ZGxK4ZQsCKjlMhYvcseBatBZ1PamVJbIyiTZk5QwbC2fQPzLBAXzpa27///ntlafJQ+x9mamBgIvum5LeZhobGfwlvIVYZJ1C7dm3Zt/sLcUmXNWaC4fvMmTPL4OZixYrJ7WW/QstpkybAhQuw3Lsn+2BdLdHv0Ror+kYLK8NWqcLOWfryWvLmtboY0KLK4jh0JyhVyipsL10CKlaU4lYnPkt3/rwUz5a6dQH64DLw7c03rRVZ7aGoPXdO5ujXcXtuQ7c9BvYy6wNfok+V/sH0L+ZxuQ19hulnTGGcArxWglcVBAxkohWFoySmXEqqwHhdiB4QvCKnKd6vaSNcQtePhvnaMfi9NxZuPgFymaFgdRmYlBCexepKcRy++X/KEqt48ijZBDo3IeRsPkPFeHID9LlKwk0tX6zAEfmZM2dkKiumpkpJqohOjNZHRv6/LIFQvI4OHdstBp4Rse45V24/+jyH/jUUnuXfg5dqlRXo878L86Xdyjs7lAOzAIU+awGEbbC6PpgfXoP5+vEELfJMLcdqbhKbL0grPKFVhTNFKTFYVs8FU9AxSwcDLunX+6JJid+ioaGR8vDe5HOCfYT6nq6atoVrKgoxytSUKtF9LN0TvvpKui5IS6oQmdI3tn9/q9ily+f770MIIugoMrkd/WkLFLCuF8LXMmgQdOLz5TohiC1ffGHdvkQJ6BhURj9gilaKbcYzhIbCsmwZwEJfrH3AoLhKlaCjO0TZslJ0yzy74lgykI4vIZZ1YhspsAmfiY0aWbNBKMbK5PJaCV5bevfuLQY0edCnT9yIfI3YRN84Lj4PuZm7GD36+niKQaTO6W58znoY3OHr7eny5La3pwE+4uVo+3iPofwOBouZTv4Nv3aj4ZY6psSr4a2KsBhDYb57QVniGO+6/RBxcj0iH9+E+cYJWIIewktNY2YjjlRMl/bAUKiG8i4GRvYTiqe4Vs/kQ591wiA4tdjBv4Veb8DtuzfwQb/mWLB8Gjw9YoLEnOkslvUNnt8fHm/Xg3cV0THb4FGwKiIf3ZBBhQnhXXeAbAe2rfHAIhjyV3GY2YGY714UjRYuS07bQhcRpo6jZUUNLEvpwbKaQ5mCly5Yzxum7WO6I6L+FhY+oc+4hobGy4F9P+PsfTRq58ry80L4WlQxSdcD27zfqVNb3RLsUY9La6zqQ8tl3JcWWbVqK8WrrY+t+FwdRSots+Hh1n/pm8vPdQaPr37vDBmsQtr22MngtRW8hNaav//+G3/9FbfCUkLYW0KcvX/d8PYwwKB3w/FLtxEWYYJbfDejgp8QxuERZhy7dEsI5YS35bF8fb1w93EQzt144HR7e8L2L0L43rnwaT4C7pljpyxj9gS6NZjOblOWOIZT3czNGvr3GITvEOKtVDPoPBzfkOYbJ4WIDoPhzdjuDMyhyIhaBimxAuDzgFNdlUUnR6HG1HL/Jr7evli96S88C3wCby9f0f86EfjKPRQV+kyI3X4w5C4lc+tKbO4vN9+0cM/4JkzntitLHMMqeh5lWiF02TCYrxyAZ8X4MyEwyM09R1G4eduk9hHs2bNHFsdgdDSrpD0PGLDHPMtss8OHDytLnx9u4kHImQCmRyO8Jnk9qjmBNTQ0/h1SRFfYPnuZcYHi8UVAgcwMQR07Wq2/iU0tZvu9y5WDhRkdFFzJrR8fr7XgZaTjTz/9JCP5WarVVTiaYgQ2I+rV92TlypVSyMQ72npFib7RnPwsg94dvn7eQowG4ssZf6P9j/NxRwhTT7HcHp4jT4Nebn/yyh18OHYJPpu4Ch5iW0cCmcto0fX2MmDLkYto891c/L5it7T02hPf14xgCdktE+BTf6AQoOWUpbGhkDWd26q8ix/vmr0Q9eAKIu+cg2eF+AOXTOe2wT3TW9Lf1Fao0Q+U55Xp8dLSX+o50YhTQoLNTDnzL0Hr7rOgp1i+dh7Spk6HWu82hMkcM0Xl8HbhQlM4QhcNgs4vA3ybWX2d5Tm024G5k40J+F6rsOpa1OObcPNPD/e0MVN/9rAYhUfB6sq7GOi/SxylIEtJmNWBJLbNkjrQZoCL6kvOlHacJqW/oIaGxr8Hn5GcaWHBLMYfvXK6gv7DtADzxb+TihiU87fTCMDZJw7Sk8prLXgJk72zDGhic1/S95dR2mwEwvy+HcVohtHbrxvSfcHXSz5w/9p6FPW+nIYfF26TmRJ8vTxgsXEy4F8UtT4+nggOi8AosV3toVOwcPtx6N3d5NS+/WObotbb2wPXHzzFZ/9bhTqDp2DX6X+QSnxm/PI2NvTNDV35HXzqDYBHkdrK0rjoc5eRAWmM0k8InYc33NNkk9vq3OOKbok4H6bz2+FR3Co6bYXazp075b9MJ/M8UcWZKtYSIqmCyRl0Xzh0fC/+uXEJTeu9h2yZ3xAduWOfrOjvEBWJ4AUDYIk0wf89m1RxDjp9Q76KshBF5P2ryhLHWMKDxcXnDfOTW4gKj6lYZAvzJVtCnkr3FnuY75KdLaulPU/YH5F9+/bJf12FDwUWIFGDc12FFfuY95mV39ivffvtt8oaDQ2NfxPqCqYdex11hT2chWJmiuTw2gtewguKwlWtUsXoeWcPfyZ5ZjS8Klw43ZkxY0aZEPpVhg/LcPrc2BA9srQ7JTxFXh56eHkZcPziTfT8fTlafTsXJ6/eRfmCb2B6/1bIlMYPRlNMShE/b6tf78aD59H6u7kYMHm1dE9oWbkofu3eUAghc/S556f6+nghNNyIWRsOocGX0zF22S7oxP6fNa+MXo3KIzwirq+hfcsxBVXo8m/gVaUbPOPJpKBCIat/oziMJxLOm0phFBXyBG7pcyJsqzWQyR7TzZOwmE0w5C6pLInh9OnT8t+yZcvKf52hjmoTO8ovVKgQUqdOjevXrzv1CeWxbcVSzD1gf0Zdx3oMC1auXyDfN6rTBhGm2BG3tvca7ykiM2iEPoUvq6RxQGGzjT1uvmmgz5QPxrPxWESVfcP3zoYhTznosxZC+OYJcpk9pjObxKCnFHT62P5sPHf0dWV2BubWdQWed5LYfN9q30JrRmJhyeI2bdpEX1/EWV/Gz6LvMIMoOWhPx0pHNvuwP9TQ0Hjx0MJLbZLYQex/Efa/yRX+muAVpEmTBj///LMUvnRLYG17Vzp5+vIxiIXQvYGR8eoDW8XZw+ZlIzg4WOYqZvL7hKCLgZ+fF4LCIjBx5V40HjYT0/4+iAAhUL/pWBOLv+qI2mWsabZY2kRagf19cPXOIwybvRFNxPYbj1zEW9nT43+fNsM0IY7ffjOLEEPW8y6twH7eOHrhBj75YwU6/7IIp6/dw7tFc2PJVx3w8wf1kS1dACLj8eehLLSWV4xA6OIh8Hy7PrztKnLFh0fBajBdPaS8c0zE3rlCyJaGb9PhMB5a5jBoynxqoxBYZWQVL6PZCLMQv4Q+SAwiY87dHDlyyGXOoOWbgjSxgpdii/6mLF3LHK/OWL58OaZMmSL/jilPmbjPtIXuDHfu3cKazUtQrFApFClQAtaqbbaI3yX+GykuFKblwq4/EXXzFPyZLs5Xcfdw8rtZ3c58aY/yzg6xLy3A5jObpVuDb51+sgR0pIOcy+YLu+BZ2DoD8PDZXVy/b92GDx3673Kqf9u2bdiyZYt0OeCLf9u/6LKyljXoBXfu3JH5MdV1Ce3HykkbN26U1wYFLwtbsI9ZtmyZ0xePuWHDBqxYsQKNGzeWxSyePXvm0jVzk7k1BZw+Jdzn6tWr+OKLL+LU6NfQ0Hgx0NDh4+OTrGn8VxFHusnLyyvZxcJeq0przFHHiPX4+PjjjzFp0iRky5ZNpotiNHZC8MFEVwg+0Gip69+/v7SuEFZj4oWaNWtW+T4pUHQz2TTFiip2bC8E9UHGZSmxjhfTrVu35HniA5dleZnNYtTIL/FhiVTImi6VEG6Rch8vgx7bTl7B9/PEA/yYVRS0r14CnzWvhFIF3kCUEK7hJrMQd0LE6K036+IdJ/Ct2P78zQfSTeGTJhWklfaNLOlgNpqF2KV1l1Pg7ggONWLS2n349a8dsuhF7sxp0bdZJXSpXQqp/HzEiNcEk/gujuCx9529gY23vTGsXCTMnpng3uBzZa1rhI5vBc+m38A9e2FlSQwsWBAxtw98PpotPiwVIteNgunpbXi1G6VsYSVkYgf41h8AvFEcD8T6+VsnonGl9jAY/aQVjwKKdc95nThzxOf6efPmSUHIoCJXrW5sKyYnp3jitc9ANl5P7EA5uKHlUr0e6Ev85ZdfSktf165dZcDb6F/HYsX0fYgwJi0PYir/1Jg8ezRGjOqPEZ+PQ9d2vREUrFTkscHdXY+PP2+HgdX9USu7uC4bj4QuYyICw0zhCPytOXw6/AZ9prgW2LAtk4TyPAPv9uPke+PG32G6fRa+nWMsvabrxxG+4lv495ovnjR6HDi3FZPX/oQu9T7Fxf138X43awaFxGB7fyWGpO5nT7NmzeRUIK+x+Dh79qwcvDOvMO93imcO3hnfQPH866+/okKFCsrWGhoaLwq6KLEoDQevnEFOCPV5rmL/Pjk4O3ZyPiu+Y/E5RRerLMwHLGBlOc6g05U0qWiCV4EnlwE+tLKQCxcuOJ26ZGPwwcDpQCb4p+WH04EUqczxy5RnLPeXVIKCgvD2229L6xITS/MicHRhqctSYh3/to3Q5rnLmSEVRrUrGy14GWz2w4KtGLN0p/TTLZs/Bwa0qoIGZQvAx9tTiKiI6ElwZlEIjTBh8NR1mLr+IKLE8RuXL4T+LSqjcpHccjtmclDhsS/eeohPJqzA5qOXpHjtWqc0ejUsj0J5ssAktuV3SAgPcYzjV27j6I61qFi1KG6W7yq+h14oVRdSLYnvF2nwRPotE5Eha2GcL1QNOqPiCsDzJARuoaOrce3+JTyr2QvuQogan95Cvs3/g3utT3CJfr1RZmR5cgd+O6fjYp0+QsD74N6TW1i6dyrSB2SET0gW/P7VrDiuI88Tti87C4paimW+ZzvbCmdeY3R94ACOyEwEUW7YsOB4kgSvu5vVKt3yg6o4ff44ti49Lf13HZUpjrK446dRXdEq13E8K1Ye97MWFSOGJ4rtN2HoI27UuaHiue3wzJgX29LnhCGSU4A68NelFu1Z9+RGrEuXA88y54O7JQqRoc/Q9NJu3HirCg76phFNG4Uady8i7PFt7Cn0LryiIvHw2T1cfnBSaF83PDxpxsaZh6SlPSHxaAsHKbyHeV4TU0GP23Egws+ipZZ9iitZEzi7xFLS7H8Isz1wEN6kSZM4M0+2cD3dL2bOnCn7K/Y3dNV6/PixnO2iHzgHPxoaGi8WGiqYtpLVMwsUKCD7axpK2DfQ756uDtQuNFZx9onPFObxpjWU9zz7EbpFsM+isYRGDvZL3Fc1ehD2T1zOY3M533M/7s/9uD+Py+PzuDw+P5efz8/l53Nffj8em9+PfZ96bPZp/Cz12OzPuH18xybUYpx579Kli+yXaIDjOVBTNyYFTfAqcIp56NCh0qWBD3xa01wRq7wYWRmJgSZLly6VDUuLGlOdsbwrR2dJhRdE8+bNpdXVVvCq2IrUlFjHi5EXMKc1eeHyYpQWSERgeKNC0YKX7gYZWo3As9Bw6Xs7qU9zpM2UFqbAEETQAiyPZoUpyo5dvo1Sva3+0cM61MQ3HWvR+RfhYnuzuPxst/f198b0NfvRbdRiKVz/7NscnYTYhThuaEiY+K7KhgngIc7V+TsPMOHIahTNnRU3hXjS0W9UiJjoD+Nx+Lc8nnJQ5bxQPBUKD8E7dy5gTi4m+hbr+X93PbxDn6LdnUtYJ5bfENsbxBcyC0FVNvAB8t+7hPk5iyNCvK9+4zT8vfywKkNOeEaaEWYKwz93L8A/vRceXAzFlklnoXc3oHGTRrLDYGeTEFyfFAsv25QzEZyW5vQ0E5ezc+Hx6LLAWQy1/VnemB3MokWLZAATq/r88tMorJxxwKFIdYaXpzeOnzmIZl0qo0HNFpj0y2IEBj9T1toizrvFDcN//wA+QvDWypgVwfmriwP4ScutK5j0BhQNfIi0Z7dhe6kmMLAtxe+K8vBG+pMbUNrdA9uL1had9DPpxxXp6YMygY8QcGoNNhRtAHcxKKmwfxGelGyE0+JvT3EN3HlyA2dvH4QlUnTSoVkw66fVciaH7cDzb3tP2cNOm/cRA9z4ossTBaQz2L50Q+B9z+2ZTo4DD1cEL/uI4cOHY8yYMfj8889lHmZnGUDY79Fywu05IDpx4oTM1DB+/HgptOnexOtAE7waGi8eGiD4DKZ2YclgagHqDVo9uezkyZPS5YmGMc7S0JWKblHMvFK+fHnZ79CfnwNnxnPQRYqubXyG0JVzxowZ8nMoKtkXsG9jqswOHTrIWW7qocKFC0tjIIN2GTRGIx+zC9Fl6/jx47LUcdGiRWXZY2onznKz6hsLHvFZw1LsFM78bA6smSiAlSQXL14sM8JwFoqDdD6nOJPE1IwccHM9+yHCPom/vWTJkvK7JhVN8NrB3Jcs8ckTy4eAM3hB0ULCnL7du3eXD0GKSLpGsLFp6X2VYFo1Pvh4IX799dfyZvuyXy90LxmArOmF4DVZLbwtR87Gir1nkDG1Hwa0rCLdGbJmTC0tsHQ1UC8qpiq79yQITb6ZhaOXxAWbNyv6Nq+MphUKw9/PGxHhRqFlY8QeszpsP3EFDb+ejuAwI+qXzY9Pm1RCrVL5pN9wuNEkfT0TgiL74PkbaLd1FX54JzNqF2uJqKrdhd41iQveHP3d4sVNDzchUN1m9UZEzd4yiAlmEzyEAAtZ9T28zUa4N/sG4WFiBEuN7OYuLcjuM3siJFdJeFXrDvPvrWBoOBiR4r1eCO2rd8/j+/l9USp/JVR4sy4+aCeOLa6PY8eOyY7HGbyuWNmLIpW+lYmhXr160r+T1zar9SQE7w9a+CiOaV2oWb12EgWvBan80+Cbn/tiyrxxmD5uJapWqIOw8LiBc7xfaA3uPlAMMN++h/5vuKFh/vqwNP5SrHTddy0qPBihU7rCr/WPgOoOYYlC6P/eg75GL3jkjyvawkSbuYn29SxcE0Fz+sCv50JrCjnBoQs7MH/r/9Cueg+k1mWTbig8fwxQdQU+WDgNyYcFHxyuQnHLapCEDxRnrlW2qOnuXBWoHPhwUETUvouoy4cMGSK/v+bSoKHx4qFvPQUkB68MKH348GH0TDJFLZ8FjLdhES0Oxk+dOiVFMA0bfI5TpNLYwfv3jTfekM8BDqi5L/sV1iEgzBZEiywFLQ0fNWrUkGKbfV3OnDmleKbrE59XFLfsBzmbROFarlw55M6dW+7LoDIKVg60eWxaiXlsPuv42bTucsaIwpjCnJXhWCGOxgFqNYpyivdz585JwTts2DC5DQUvfyeNiHS3Syqa4I0H5tl1Jbk8LzheWGpjqdDnhiTHwvtvQKsSqzzxJlN9Z4b06YGPy6SNFrxMH0YRO/XvQ/hl0XaECRFaPE9W9GtZGa0qF4OXEK22Pra0CJ++fg+/r9iDaeut0631yxaQ/r41S4gHO4VshFEKWT5w+czde+aaTG3GwDbyYb2y+LRpRRTJI76T2I5uEvFZ2Jivd//p6xh17hGKlAxGr2dhSFe2DVA1cb4/YStGwOCTBvpaShsK0RfyRyt4tR0F9yzWko62mP85AuPKb2U2iLBDS+DbbYoUw+RJ8EMcPLcd1Us2ht7NIG9c3tTsMFz182YnlxTByw6Kn8ORPjuvhOC0kjqlRD/0po2bY9XMg0LwhsHL0zotFt95t0Uv2vzR40eo1rwQfH38sWrOPngYPBxasqXgddejR782qNOlEh4Yd+BzizcC0ueCoflIcQG5nhM2ZNFgGITY9VDa2nx4OSKOLIfvh1ZLhj3mW2cQvuQLmW1Dl/YNWUVP5XHQA/F9I5E+ILPssNlO/P3M2a0Kw4RgH0K3KObV5ayPq/BBw76H03cUvK58FrEVrCkFXSJoHXreqdg0NDTi8jr78FIE0wJNi27+/PmlSwP/TY4P7+sV+pcI+MDhiXcGgzooKGzFLqFPi+o358pxXhY4umMhDlXsxkL5GSZzFLKnT43hnWph448foFnFIjh25TY6/bwQ7X6Yh90nr0jfXWsOXsjMC8XfzIYJvZvir686oPRb2bH2wDnUGTpVZmA4889dIbI8ZYozCiKeruql3sKCoe/hD7FP9vQB+HPdAdQY9Cd+FiL41sNn8PH1ksLb0ZnlMncPd9QqXR3p81bA5lwlEXl2K0KWfWPdgLjQJvoidRB6YZfMBUvCdk4HsuR3KHaJXnyOLl95BC0fBrd8laLFLkntmxa1S7eQYpdw2ogiytUIeI6UeR0l9lqi3xQFMv2qGIzpDFXsEtvP0unccPf+LZy/dAoXr5x1+rp+6xr+Wj0LDx/fR8uGHWXBCUdil6if427QoUqxqsiWtzw2v1kWbpYoPJvxEaKE8JS48NuZ8zjs9CblnRDAe+bAUKGD8i4u+myF4F5AiLnLu6AvXFNZav1Oaf0zSLFLeC/z/NGCkdgBR2KhhZ1WXgrsxDxEkvrAcQSvNwa7UXDT0kIRrqGhkTIkph/ntq64NNnf/ynZHzg7dnI+K75j0VhAyy5FLonv+ZEYNMGbAK40Is3sajUrFT4Uab3jyzYK/lWAzub2RN+cys/gz6FVN8JoRsVieTB3cFvMGNAa+bNnwPI9p1Fz8J8YNGWdDD4zCFHK7VlkgqnJWrz7NtZ91w0jO9VGKh8vjF+5B7WGTMGYv3bg4bMQIWLd5eeFhIQjjZ83ejapgC0/d8eH9cvi/tNgcdy1MgXagk1HZFYHdwfnlkv4ok9j83LtsD3wDsIbfwnL3QsImtsHURGh1h/hBFmEwhSGyFunAbMREcfXwLNKN2WtYzzKtoWHuw5uqTJYFyjnjoLRFrrMEDWP8/OCMw/0BecsBM9HUmDeYxaPGPW/b1C7TQm06FbF6ateu1IY/ms/IRS90KBWSxjjKTRBou8P8S+/Y7PSrbHz+jFEiDbzTJMNwbN6wfzgHxfbrJRQa2Ew37+MiGOr4ebpI1OWJYQ+zzvwEm1mCbyvLLH5TjZw6o2+u8lNfu4MlvclnEb8t+Dv55Qn/e0Y/Kbx8mFb0EfjVSNxgtfVmI3/CvzNjrRIcrWU5tKQTBhUQn9XWuxUFixYIIPW6APHiMLateOv7PUqEO3SoASt2cLLz9NDD3cPA85dvYOxy3Zj0hprhagaJfJi3uB2CPD1ivbTpR+ul6dBXrg7T17Bz4u2Y/X+s3JdbyFuf+/VBKFhRtkd8KUX55DbsyDF0t2npJsDg+AIg+Xo6kD3BluY2eHwxVvYZ8kn0yx9NbM73ineGA3yV0XgtPeh80sPvzY/Qefpp+wRP6Grf5BT6m7+GWE6twP+XR0XmVAxC6EWNO1D6HMUhX+3qbxDlTWxocM/nf3pK6UKnISgxY1FD+jSQAugqzDN2HfffYevvvpKBjQlhosXL6JZkxZYPfsQLKKb+OKH3li9cRH8fNX8vAlhEW1uRtXydTBq+HSEhDqubGbFKnR7iWtl6Df95PT5sJkfoWzRemhQsimCFw1C5O1z8Gv3K9wzWX1bEyJ0+Qhx4Xgi8sEVeBRvCM8SsQek9oRt/kMWGtF5B8D/g2lxik6oMCijffv20t2H97gzkurSQF88BnHQV48BIhoa8XH18WlcuH8MBr2Hao/QeBkRjcM+lPnYS+aogox+bygrEoYuhvTfZY0Ah7OurxEp4dKgCd4UgiMSdfRBR3NadgldBChUXmUSErwq/Ok+nh6yEMTKfWcxYs4mXLj1AAd++wQFcmRAuDH2lAyFr7ePJwIDQzF/23EMnrYO2cTxT03uJ9OUMX2ZLbQOe/l64vqtR9K94dt5m9GxZknMGtRWiKnYKbNUwbvbnEemhjtwbhvmbZ2AsR8vEmroGYIW9GfvA9+2o2SVroQw/XNYVmljIJt3vYHwyBdP8A6/r/hNocuFqDQIgX/nPAwF3oV3pc7R62xhQBMd/XnNMMiAfydEUgQvp4DoK8zI+6SIJ1Xw0ofXaIrAnfu3EBT0VAzk4o68HRElznHqVGmROWM2RArxGz8xgnfw131lQMWRi7sxfcMoMQBaKrcIXTEcxssH4NfqBzGYKCaXxYfpykEEz+sDfbYi8O8iBigJBb5FmfFsfGv4Nv5SVszjsb1r9lZWxob+dIxYZlsweMNZmyVF8DLojAFn9LWmz7WrKdA0nMP7QQ3Q+6+w7twM7HuwUloAI6Po9qSsSAixjd6gl/2Smf25i0qZ545WN17/rsL+jX7vnJKPotHDhc9iKkJ+v0jx3diHuAo/h58hraEu/iY565WY88Bzpxf9n/hdZpPo01z8HJ4Hd50eBg89GuXuhZJZreXDncFzTR9WBsEz4Ot1hoHUuXLl0gRvQrwowZsQtmL4VcQVwUvY2bLIhKeXB67eeoiNRy6gXpkCMpODbSYGFW5Pv129wR0Hzl7HiSt30LlWqXg/gxcqSxPzwbX+4Hnp0tCgXME4BSjsBS8ZNKUTapZoilqlmsMSHoSQRYNkVL8fq3mlFiNnfpl42ujZmEZim6zw7zpJWeIYixi9B/7RGn7vjUZUaCBCFg9Cqo/mws0/vbJFbHr16oX//e9/MhuGM+trYgSver1RZDFVDSN2Ga2r+pS7SozgPYDwiHB4e/mIzp4+yDFdBk8bie/y5oOOmRmcXf88LgXvkGGfyShfMnhqF1QtVh91y7SW70PXjYLx9Eb4Nh0GQ974p/stUZF4NrwsvMQAxeudhFMLmq4eRNian5Gq92KYb54UQrk/Un04HW5pFH/nWNeFCa2bNMFfq9bL6OFvvvkm+lw7IimCl+mA2EfRMj9ixAhlqUZKoaZasvVVfxWh+KTAu+V5BFE57uPExmt4dDsQ7npeiwnfa3SF8FCCT03i/nQl1zX3chNily5n1jK3ru2jE9+Twaoms0mIUfbTzvaz3m/8flIkS79NF/YRGDw85GeYxcvV36QG4bp6HnjuDEIk8543ij7Z1c8xG6OQLV96vF03J8xHsyKXV3EEBsYtwGMLvxtThXG2mKm7OIv8OpYY5rlmTBRjCpgGlm5WSUUTvBpOcVXwqvD57yNEb6QQufaWXXt48THAzVtmdjDHEa/2cHtmfWCOXpmizIGQdiR4d5xYhxV7Z2HUR/Ple4spQoreyCc34dfmV7hnyCWXO+LpTzXhWag6vBsNVZY4xnhuO8K3/ylE7hz5Pnjh59B5eMO3WWwxK0VSZCD+nj0F9d4fiGzZs+PkiRMJpidLioWXYpdCi3lZ1fOQGGwtvEnJw+s6MRZeW8G769TfWLJzGsb0WGC9qAR0P4g4vAw+jb6ER0HrdvaYrx+H25wPEVHpY3hXSTiFTegKISo9feFTt798H0ILvRgI+bb9Rb4nkfevwHhsFbxC7mD1hq1oMumgaIvMQjydTjDPrauCVxXNDBCjvyzFDK27TDWkkbJMnTpVRn7TH9sV8UBhzFgMRowzvR/biq9/HX6FKDfoCz7AE5/LODfPiCLZysHDRy8GfAlbRT3Fb9q0aSP8/VPJlFIRLhTAoeC4JK7ns2LAUFc5D+I/ylrH8J5+9Pgx1qxejQrifNP1zxiRcAEbWpDDwsOwccNGlBXfLVvWrE7biaKavQPTYPGeKVS4sPPfJHbw8PCU/vh+vr7RFSidwXPHuJ2goEDUrFnLpXPHgULQ41CcerQLFT7JBLdTuWC5LvoNj4SfdTwXnClmuXfO1DE4noHOzqBhg/0Hg2vZ97xM/r/s23jtrF+/Xgb6s3905TdR/DPehc8xtZptUtAE7wtGfbjZ//0yM/jTj9CzbLrotGSuQjcETkk56RclPA90c6BLhCtwe546R5cv05IdshO8ZMDk9mhSviMqF60r31sizQhdOQKmq4eF6P0Z+mxxywgz8Cls/Ri4pRZi84PpoheP30rKLBB0kfCubf3MyCe3ETS5I3zFsQ25SsllUU9vI2zTeFgeXYfu6U3UmngM+64FyqTiLPoQH4kVvPQx5fXO7ZmSzFkBAke8KMHLtmRaMnvBSz7/syMalnsPVYrVU5YI0bt7NiJ2Tpfn2bNkE+tCXmS8IATB8/rBYgyFJSJUDD5myWWOYPaNoInthXgeCv0bLDAi2if0KQLHt4Jv8xHRVmTz3QsIn/Qe/L31CDTrUW+lEXsOHJJTa5MnT5bbOCKxFl76+jP5OpPCM0m7RspDwctcpiyo4SpsOyb7V5P0v0ysvzATk1f/iBwPq+CXL/4nBK8bzKaE+1C9hxv69e0v87L27ddHWh+dwX3+XrcRs2bNxNx5cxAVaXHY99rCfS5duIIWLVrg+++/Q4NG9Z1+Fvd5+viZLFbAWY6SpUs434el68Wt37lTVzRu3AgtWjV3uo/scww6DBo4BFmzZkGfzz51+TyMHT1OZi0ZPXaUy/sE3g9Dl6FN4FP5LvpUH40yORIOpFVhNVcWfuFzrHVr60yXK7A8OGsETJs2TVnyckE3jU6dOsmCXa7CGTWmakyO4NWyNLgAR1iuJpt3BvOcTpgw4ZXK3hD9PRM5NKJ4dUXsEop/V8Uu4fbxdbj2S7ktqVu6Fdbst1p4iU6ILN9mI2RBgpAFA4XwPaSsiSFi3zx40adT5w7jP0eUpXGxmMJhvnYEHkXrKEuE4E+TFZ5lWiNsg7XKHNH5Z5D5ev2DL4kBfji+GjZCjuRZ7CS50f/q72SeWFbPIiyekhSx+yJJ6BppUK4dVu2LPUj1rtgR3jV6ImzjOEQcWGRdqFyjpusnEPnwqhSslsgI8f64XO4I85UD8l9V7BI3n9TwrNhJHDumzcTTHSaDj2hQwL94XYwdP0FavFhOnIFsKQFdWyh2OW3Jjl3j+cB7jdaixECLGfd7GaGvq3RREIN8D1+r8KPASuhFvHw84e1rdetwtI39i7AKpqe3h/wMN73O4Xa2L+KXygceXnr4+FlzaTvazvZF/FL5ys/x9bf6rzvazvYlVYz4Tl4+Hi5/DsUu8fZN/Hng9jx/xNE29i/in9pbuu7Rx5juGq7CKpy0irK/SQzcXvonv6Twfkqsi53qfpIcrK2hES+cTmEd68Q46icEL2BaGVhl5FWBltd0ohMypPaDb4AvfO3/tX29BOvcxN9pReesogr26sUbITQiGPvObpHvVWns02AwPIrVQ8jiIdItQcV4aoPYJApepZvBkLsMTCfit9JRxDKbg3uWAsoSK17vvg9LRAjCD1mDryLvXpDbRZmiYMxRGvW6fCp9eQkthiz2kFT4Ozktx4p/rGTDabpBgwYpa5MOj/siXo6gZTcyyhynzTzLtBTtNghhW/6H8F0xlreI3bPgUbgW3FJllEFrptMblTVxMZ3eBP2b7yjvYqCgpgoP3zsPkbfPIOSvIeIaaI5nPrlhyltNzhixAhn5+OOPpVBNDrTmfvbZZ/Jv9jW0Cms8PxLbl3PK9WVNC8XAKd47/H5RifhZ9I99EeeBBh764boyba3CPozfj/smBu6TmM8hPAeJPQ/cnp+VGMJCI6RYY4rHxPjh8lzw/CVmH8LtE/sdXyS8jpLSVslFE7xO2Ldvn0wNwtrRKQWnbPHvJPgAAMIDSURBVJnM/VXhxr2HMivC91PWYuS09Rg5dV3sf21fL8G6Hyevxtilu+J0EswuUK9MG6zYo05zC5GljBi9a30CzwodZUaGCEXYhu+ZAw9WaBPoC1RF5K0zMjAtFsr+9PGkn28s2MG56+FTrx+M++bDeHwtQhZ+Ds/SLRBWrAXcC1utwUwbRl86ToGzTDXLQyYFBkFwuodTWcwOwpkEjqSTOirmfvSR9vXxFC8xoHiuLx/oxbmyBqnEIKQwapdqgZV71Sn+GGHsUaQOfFt+J4Vp2JYJMN84icj7l+FZ/j3r+qJ1YL5yEMzEYI/FHCED1gyKe0s06vXQ6AuE75iK4L++FNvUh3ftvjLA0V3JEMFAQ6aVY5lOV9OUOYKWXU7fsvNnQEZyymZqJA1H90dyLUkaGhovH5rgdcKWLVtkDX11SksdNXH0Sf+apMDa0q+Shfej3n1RpNH7yFO7M/LV65rs19steiE8e2nse6hHseY9HW6TnFeuWp1Runl3NG3aVPkFMdQo0URaeY9eUlxUbCyL3pU6watWH4RvniDTi+n0HvAq1UyuM7whhI7BE+bL1hzD0Yj96StqvnMBhvyOy68a8lYQitkA88qvhRjrAK8KHeAjPsezUDW5nlXQWM6Z/kmMImcpV3tfc2fTU3SHoACj2GUqKx6P2RlIfNZTV3gW+ATd+rbCRwOe42tgK3zQryWOnNyvfGps2GZBoU9x6Hzce4bnlv7Xpot7EDznEyly6ZZA9LlKSVcTujnYY7q4V25nyGZTIZEiRzlXUY/+ga85UAYd+lTrLpe5pXsDbt7+cjueU0YNs60YSc06959++inu3bsntyVsV2Iv4gn9o+mr27NnT2m5oH/e+PHjlbUaLwppdVPanKnmmCLQdpmGhsZ/B03wOoF5MdWgN8L0UTNnzpSpMZggf+zYscoa12EkKacqOO38KsCIZjXhfkq8WJmOFkgGX1EwONomuS86xOfLly+W2OCDzEOI1polm2F5tJU3Nl6lmsK71qfwvbgObr6xfV898paH8WxcP1vTxd2yope9O4MqniKOrEBUWCAi4AFDbuVaMnhB5+VnFVkCftc1a9bIPK+MrqWAouXv6NGj0f7eah5MFVqwKZxobWTaGkaxpk6dGtOnT49T/S8ppE+fHv36f4aS5QuibOViz+9VqSjKVCyCzl07yJLe9jCpPtts1X7HAaf0wfV690Ok8YxA5KPr4pxa21zn5i7zJptOrpfvbTGd2Qz9m+WUdwpKe4XvX4Cwzf9DZLW+QKQpxrdbaStux+uK1zAHFtVqVZEDYda7Z4Aas2LQWn/jxg05UGGbEIphBtGyD2HEv+r/S1cWBpckxxqvkTRUYUs3s6FDh8pcn64UgtHQ0Hj10ASvExjhzmTHKnRxYMfIUq2MMOTD69q1a8pa10iXLp18WDLVzesIp2//+OMPac1kxbHnCUWiivpwYz7ee09u4twNO8ufIjbc072BJxY/mO9fQei2mCh8faGaMF89KKfDbTEJEeye21p+1V6whO+dL7MycErcs1IX8bdNMBRRvhPJkisDPh7aCQ0bNZTHoXDlbMD7778vg9p43jizwKjxiRMn4pNPPpHrR44cKafWWaGL0eStWrWSx0uueGKwG6vb8Bpn3tnn/aL/KgsuOKKWELwPA+/hzPWjypLYRN48iaDM5WEJeSwrs9GyS/QFq8niIbZwHX1zDQVrKAtizhPdI8K3T5VBcV4V2sOjUA2EbfzdutKmrXhdmcxG7Lq4Bl37t5Ltw4AzWgkZMMjiEfTL5eCWFmBGJbNdatasKYPSKIj5W+nSwLakVZ7tpVkWXzwcNLIdeC9xoJhYf8n4SMz9l9x7VUMjJbC/Dm3fJ7TuVUETvE4IDg6OttAQWmE4dcyHFi05FMOsYpUYWDGF0520AD0XUvpCtD1eChyb/o5M60IofF803p6+qPZ2YyzbNV1ZoqCIDeZ69azQCT7NR8J0aClCVn0vl+uzFoDOKxVMl2Om3qU7w7WjMuiN2MoVGVC1czp8Gn0Bz8I14V2lGyIf/IOIo6uULayw42BQVr/x7RHu/RArV6yUIoguCazIxvPFbAu8Flnti/l1GSzFlFi0BmfPnl0KRgrhWrVqKUeNEfivOjw/Pl5+qFqsoWizuKmhIp/ckv7RPg0Hw7f1T4h6clu6N9CqbshTVrqm2LaZ+eohWHTu0KvuDGq7b/zN2l7NvoFn8YZymee7H4gdxEBjv5INQuG0ENE/LRyARXsnyP6hf//+WL16tSwDSiHL2RuWHb9w4YIMauOsEC3wFL90XeFAgnlD6bertpMmdv8dOFh89OiRjNOgtZ1poBy5oSQWtifvV1bJYu5WsmTJEvkiXMZ13EZre42XAV6H7G/VoDe+p8sV3/NvNdiM27yK16wmeBOAjcwGtvWfZENXqBBTXpZWnaCgIOVdbLitIyiaaSFSyw+nGA8fAocORT/AkwQjY+1TsPF4QmyJK13+bWGFmNmzAduMAvH8VkfwvHDQwBeTT/OB86KpV7Y1rt+/hEu3TytLrJhunZGBTzIzQ7aC8Gs3Wvrthiz9Wq43COFqYvYGBeOFXdAxI0DmfNYFyrkPW/eLFLZ+rX+ILpDAADbvmr0Qvm0yoiJC5DKyaMdkjFkyFKG6J0jlmU4uY6YFpsNj7k+6Z5QsWVJeaxwo0fLKGQa6MXDQRSs5BW9ChSteZdSOtb7SZueuH5Pv1WvOuGcO9LlKyMwMbj4B8OsoBlFuBgTP6iWtuYa3KsN4Rs3yIC7jE+vgYRdgGLr2J5mVw7f1j/DIV9G6UByfbhFeos0idk5FVPBjuZhlltccmI+Lj44KLRyFAG9rm7FoBAMF6UfNzAt0Nfnggw/Qtm1bKYRZOW3RokWyXZlzmYn4Nf593n77bem2xcGHOuNkOzOUHDggZdurQcq8BtQKelzGddxGQ+NlgYM/ugXSXYswH3Lv3tZy67w/GFid2FntlwVN8CaAmq/RPr2HbbqUhEY66nIGIDERtIpMIRMVJVOUpSinT0OX3MAXcbHrfvhBeWPD779HC2Hdjz9CN28eQB9kiuwQId7iOQeOoP8zMxPQNeQH8VkvukY42yyVT2q8U6gGlu2eqSy1YmRaqyJ1oPPyl+/dsxWC73tjYb51GsGLh8CQq7S00rI8MTGf3igElU0GD3HskOXfwHhxt7Q2MnDKFo+idWWZ4ggbV4kc6fPIvJbM0ZguVSZlKWRieIpdWnJpvT0kBjO0Eh4+fBibN2+WHRITkhcpUkTZ47+Nr1cqVBJts2KvGGwRcc1FBT2E8ew2eFZUyk2K8+/mm1oMVEbBzS8dgqZ3l8FmkaL9KH5ZYY9/G9QqbZYoMZj5Sgax+bb5JbpAiES5pj2EYHbPUhDhm633Fv3A3y3aAMYwMyJNUUjlG3ugwfZgQBpngTiDQf/c3377TT44WrZsqQndlwz2899++61sFwYeqhbYlICDU8YpsEoWoUsLX4TLuO5lz5Ot8XoRIp7nHJSrsxKcuVIHbMwgxJkpZq56FdEEbwJQsDI5cnwWXELxFJ8ll2zfvl36YtoWFeAFxaA1Vs5KUeh7Zm8ttf1u9t/T0fdmnkVHFldatZVSpzohfC0UwJUrQyeEK1Rf5ATOgy08r7RUUvDTem4biPUiUAcirOB1SYifa/eslmrz3Ysw3TgBz/Lt5HsVfcY88Gs/DlGPbyBs5zRYwp7BfFMIqEgzzPcuwqOw1ReUKctCFg+CWRzDr+1oGHJYH3L2eNf5TFp/zfcvy/cZAjIjrW8mpPPMjgA78USYRJzW3Rw5ckgxxSnzzJkzR2cBeJ1gIYp/7l7AP+K8k4h988WgpDD0mRURqbStLOnc9le4pcmGCNFmUQ+uIPLhNZgu7ZXBgvosBWR70d838vZZ0b5joM9aUO7rCPpgG8/vlNuS09cOofSbVVC7REuktgtutIViiuVpX+Yk8K8zqusCXdPmiUE8BeioUaNSJOcnYRAmgxM5ACIc6PNFuIzrHAVqamj8W3AA9uuvv8qZKcJATrUKKKtBfv/99/JZ9CqiCV4n0Mqm+psSilXboAYKV3aOtOLScstUZbS8qR1m1qxZ5XSA7RQZ/fg4bZA/f35liQs8fAgLrao//gjMVKySTHjfowcsEyda3/OhKh6uEtGRWjjtQAGwZg0sR49Gi4Fo+N5slvvrPviAeXnEk93beoxFi6D7+GPghBLYxd/D3yBGfpbTpxnWbP0MMfrDV18xL1bc4ycA/YBSKjgkqaRLlRFl8leJthjKogX5KsDNP4N8b4t72uzw6zhenK9wpAq/B7MQTqYLO6V4cs+QRxaXCJ7fD5GPb8nt3IVIjg/6AnsUqwujUoFt+saxMihraLuxKPRGCblMIy4cWKYVbVM6/7tYeWCBrIBmPPU3PCt1UraIDV1I/Fr9AH2+ikjjESkLh5gv7oKhgDUdHP18Lc/uwa/TBLinzy2XOUR8rnuGXPBkirpN43H2+jHsPbsV3eoMQNc6/ZEpTXZlQ41XDfbLnJ5lOjJC/2rO4LF/Si68Xnl8BiSqs4Uc/PBFuIzruE1CRhMNjRcFr0N/f38Zk1CtWjX5ngMz+rbzb6ZoZdEdGmBexWtWE7xOqFKliszMoMJpKIpYFb7nVBinmo8fP46zZ8/Kv9UOjummeHHYBkEw8wOtmhTTLvP4MXR9+1r9ZrNkAf75B7opU4AWLaA7cABYudIqVFULlxDFOsXPRrdiBXRHHJfFtaxaBTchnC0NG1r9d5ka6epV6A4elOJX97XVd1W3cCFw+DCQLRt0jChPnx6WjBkB+o1ytJfO6sfoKinuzpFEGpfviDM3juPaqQ1wu3kCnpXjSfwvbm7mbaV7Q2ieqjAeXy0E8kx4vvOeFLtBs3tDJwSYf5eJcE8trg8nnYFXjZ4wBN7D+kWDYBRt1rBcO2npzZw2xyvZkbwIVMt80wqizW6exIVlw+CVOT8MSjGIOCjn0aduf4SWex/hBxbBKAYqtAgHTftQCGKDHJzQ9zfB9lI+17vaR4gwGzFj0UDUE9dNGmVg5OXxclzLGknj9u3b0v2EOZFpuGgh+tSUcLNSr1dXSMy2GhrPi//6NasJXicwVQ0FrypY6YtnW9CAuTcZ1Uu/LEZjM9UY05XZQsuv7cVBHxjm8E1UYASjJJmyia4EtWtLQWvhd6IAFSMyUJDaikgKbtVVQPxticdtQCeOa7l7l8oeeOcdmqyho5gVDwDLt98Ct25ZN+TxKArKlJGuDbouXaCrUQM6IfYtHTsCxeKKDpbJ5bk7IAS57Yu5ZekfxPPyb5NRiNOShWpg8dIv4F2oJtzTZFPW2MH2E7/fzeAlfXPdhDD1fXBGtEsYgud9Bnf/9PDrMC7a91dunwBunn4IfqcdDt7Zhbbl2kOvj6mVrj38EoZ+zqXyVcKGCxvjH6AQpc2Id9Xu0GfKC7fAuwhbb3V1oNjVeaeS6521lzyOmzt25y4Jf7cQNCpotRJrvPow9zX7eVpemTqOgWQaGhqxn0X/heeSJnidUL58edkR7lECtmi5VRPE86VaclmcgmJ379690UEJKvZTVhS8zZs3V965CMWhELeqqLU8eAAdszz89Zd8TxEssyioUEyrItfDI/6LtUkT6OiL264dLPyN/D0U0PQP5T50k6Cw5vGUY0ihrbgjWCjmbX4baFUWopnQ/YMuHszCYPt6+PChtKDY5jf+N6n3VhXc99HjrhKdH6+Flb+f68S/nCYnUet/EOfAJAOe4C5Ea3z7OmBN2BN4hEWi5OObyhINV6nlnQaX3HS478DnORY21z0tuQZ3cR0/vAr3jDZ+k660mTiOSbTzyqsHUd4tHQz7klZKWOPlgvd6qlSpZFaU0aNHS/cz5knX0ND476EJXifQx4rR1fZQQNqKSIo3WoE5PUYXBlqCb926JZOaM+qX7g4UzbRqsoqWvSh2CZtACh0jewsXZlF/WFjtrXNnyNRhqtWUwpWWWyK+g8WRNZkPeiHmLT/+CEvdujL7ghQIalYKfh7FLZfxX0UY6MRnUOhKKLrVrBVC8Ov69JHuF4Tpflh5irlh7V+0ijPwKl5x+QLJcWk/soZHYu21g/J9giNZZR2DoNzddTBnLyVdGkxqyeGE9hWov/fO4xvYdmQZmlTtIwOvzA+01ESuYomKRLZTG5DLLztWHlIGfA6wvbZM147BeGkPjJ4B8Gw4FBGsprZT8YVnmyVwHarHYQ7g9D6pUKPtaDw7sRbmuxfkco1Xl/+C1UpDQ8M1NMHrAnTapqXXGYxcpJgjLEbBKHoWC2CJVk6ZsbQorcNMOk+rQqLEntjWYmPBtTRrBsuhQ7DMnQsLA8iYf5ciV9nGUqkSMGECMGaM3E7nyKWBnf2GDbBMngwLM1EwC4Pd56iWXCl+FZFroXuF8t11efMCv/4KoeilH69FiH0pgl3k337gRIU8QdjxNWhYeyAOnN6IJ0EPlDXxY7wohJMQT4/DAM+yreBZsglClnwNo9jfGervnb9lAkrnKYcC77SDJW95hP0dU6Kagk7DAco1Zzy6ClEGb7Rs+QMOntmEx/G0mXquTVf2I4RuJxnehFumfHBPl1MWAwnfM0sWB5Fw23juRx7n/tPb2CQGKO9V/hDInE8GHYZvGCfXR4U+tQ4INV4J1Fk5V2GWlBedScZVmP2DzxE38f3cEvGzuN+LOA/McsQZTv7rKpxR5eckZh/CffgdE0NSzgO3T2zWFS9vT9mPsK0MifiOPBc8f4n9Xdz+Zc4Mk5S2Smw7OUITvC7iyo3OymlM23Hu3DlZVIEVmFgti2k9mHOWCZttSZTYozVUSW0jKVEC6NsXup074XbhAhAQQDMzLC1bWtd36waULWsVsuPEg7mg45RLlixZ4HbsGNxCQmAZNMjqzkBrMaH190PxgBdYGjSIOcb770Modvmnhf5u/G7MyUvfX/r0vkIPf1r6ojK+ibxCuOZOnxsr982Vy+MbjJjO7xDiqR8Mb5SQRSRMZzbDq3x7eFXugpAV3yHcroqaI05ePYjzN0+g7bsfyfdeNXvD8vg6Io6vE6+1sIS++EIcrwTK/RJxYBF0or2yC/GaN0tBrDuwUC53BItJhCwfCb0xEJ6infS5SsN46C8Y8lWAX4tvEXF4OcLWj7JunMD9OE8MUArmLIF82QrL917VesrBUui6XxG+6XcxGPx3M45ouAZn4ezzqjuD278M8QaOiFQGxxGhRhgDRZ8lfpo5XPzGBF4kNDACIc+sM3OOtrF/EW4fFhQhP4OXu6PtbF8k+FkYwoON8l/iaDvbF8RPCH4aijCxT4iL+1jYnOI0hAVxH9d+U2SEtX8PFb8nJDDx54Hnjzjaxv4F8f+gx2EwhpuleI1MxPXHTEb/tWuW8Lsl9jdxn0RpJgfoxMl0/GT/j3DkyBHpX0vatWsno3CfB0xjw1y7dFWg3ypTeyR2hOoSFGLOGp2C05ELw+7dVkutuj+3q1hR+vgmCQffxTJihPQHRj6l8thLjCUiGM/+aAvfFiNhEGLm/I0TGLvsS/zy4Rz4KcFMFL7qTRZxbLW0CBqC70Hf7Dt45C6FZ392Q0DP+dB5+iL88DKEbxwHzyofwrtCe7mPo3M0aEpnlM3/LlpUFoMS9vDQIWz/Qim8GBTn33023NPnlNtqxIYDAmbHSNXTKnIv3DyJ0UuG4Nfuc0WbiUGfzfmOOLQUYVsnwrN0CxhPrIN/l0nS/SR4fn+k+niezNVrFvuHLBoEfe6y8G32jdxPRW17fsYviwfiu67TZJCjSsiKEfC7tA5PzN4I6LtKXgO2sGQsSwzzocWsJMzuohUZ+HeZMmWKfAYwaJjtEt/AVoXtdvr0aZl9hzl6ub0awPzvohMPbzdY8t7GQ88LuLvFIPsUg5e70+/H37Ru7To5y1hB9P/h4VZhmRB8lrFMNgsPNGrUSJ4HZ+eOFjnGa7DoEs83q0PaFm1yhN5dj9CwUKwV369ihQrIniO70xRxFJG8T1kgIW/evChWrJhMF5oQ3J4WRgaaM56EZaVdqXzq7eUtS4YHBgaiXv16Tj+H0FgW8jQcey+vR+E2qeB58S24384Iiz7GRdERtNAyDoZFH6hhaDxzdv4IrcInTpzA5cuXZVtRKDprqxeFGs/EtlIzXDn7TWwrXkvUV7169ZJV4JKKJnhfF8RoSvfpp1TmMWJYiF/L8OEAsz+kBKy69sknAK3BvChTYAriucCbX9xEYTtnwHxpD/y7xlQ9+35+X+TLWhit3v0wlngK3zMXEXvnwEOIJ9PpTfBtNxruabIiaNoH8CjRGJ7iRSJOrkfYulHwLNMK3tW6y2W2x9lydCVW75+LX7rPg7ubddZAFqxY+jX8b2xHRLgZ7l2mwz2btXoaZw3YwfJBw7/ZKfPhkyVLFtlZsKNmPmd2JISdiSrQ/4sETmwPj1LN4FWmZfR5HTn3E+TPURStqyjnWxC2dz7Ct/8Jv6ZfywIhRiF+/TpPkOt4DK93RbspmRYi711E8KLB0GfKB59mw6EziIGqTZt9M6sHCucsZb0mFFh+OmhWL6SJeoJnoWak+nqnuK98pChYsWKF7Jwpdlm0hg8cdtgcBDMVIWeB6MOupiX8r7fZy8SxY8ewYMECKfpeZVQR8CjgNHwKh+Da8QcIfhIGnbtr15GcsRTXXWQixLubzk30MzqYE2E55PfkZ7GKZJTFtc/iL3AXwpfW68QINT0/R8gZVz+HRJ8H8f3kB7uAO/ta8bsSY0GNMluQOpMf8pTKgMBdaZDJUkC6O2q4Bq/1v/76C3379pXVR5OKJnhfF9hxPLDzdeQyWpxSSpiyIMWOHdacvPXrQwydlRUvHywz+2x8a/g2GgpD3ndkx8rOmUUFflv+NUb3mA9vD6vFLnTrJBgPLJLpyKKe3YXp1EaZgoyE75kD09VD8G8f44MrfUaXfAWPIrXhU2+AslRsawxD/0nt0LlWX5QtoJS2FVjE8vBtfyLiyDKk8YmApfHP+AfZZeDjokWLcPfu3XitNmnSpJH+4UwMzkTh/0l4nYq2MZ7dirBNfyCg10Lx9I1xMTpz/SjGL/8Goz5eBG8hVsM2/i6t8T6Nv4RH/soImdsX7rnLwquC1SUobOd0RN05J9tTJfLpHYQsHAidaHNZoc3bml5u67GVWLFnNkb1WBA9QCEcpBjPbYdp/3z4PzyNm1WHYcr6g7KUMK1attBSQ2uSrQWJ/v60VjD364surf268l8cWGy9tBgbzom+ystLEYjyVkkQngcKCP7LaWVXzgm3pTjky2g0WbWhC5/DgTg/S51id/ZZahup+7Dfc76P9V/uEyXOgUtT32Ifi/hfUs4D72duy+JSru1jbRO9uwFBwYHo9M5gFMlUQVmr4Sp0C82dO7d81iWV10rwMvhszpw58m+N15vwvfNgOrsF/t2mKEtiGDarB0rmq4Qm5TsgdO0vYrvN8Gn+LQy5SyNoVm94FKwKT1oYBVHP7iBwchek6jEXbv7p5TIip8oXD4E+dxn4NPlKdHhumLflD1y6fQZfd/hD2cqO+2cRvGYMZp94hnHrjktrIWE2C5YUZkETWnd5HTMDyJkzZ+S0FWE2kX79+mHgwIHSkpgSqA+fF018nxs07X0YCtWC1zvWkpe2jFzYH4WzFEILswlPjq6Ab7PhMOQpi6jAB9IK7991EtwCMsttIx/8g+DZvZCq16JYbgiWkCey1LDFHIFU7cWAxic1ev7eBO2q9kDlovXi+V4mrP6qI0Ys2I5Dl+/JJazWxeBVtgPLcJYsWRIjR46U7cXp8U2bNuHmTWsqOg5Wvv32W1nBSOP58m9dz8+Tx2F3cffpdbjrYwZjGi8pQmmZI83IlT4/fA2plYUarsJnG2c1NcGbALaCt0OHDrLsr8ZrjnjwPRvfAt41P5Xile/Fk1BZCRy9dhQzN47F8Iz5oP/nMDybj4A+e1Ehnu4LcdvJKm79YnJ1Bk3vDo8idYQIbqEssWK+fxkhCwbCK2sB3KvYCd8u+xJDmn2L3FkKKFvEpVuHtpg9bxFjMKQ/Gq2AlStXRvbs2VGoUCEEBATISn2cKmdJ1MOHD+PPP/+Ubg+ERU8mT56MPMy4kQKMGDFC3kMvYgqY/nAM7OzaNW4xCWbGCF3zEwJ6L4bOpkiH2nbHrx7E9Pm98WW6fEjf5GsxSnhLro44+BeMJ9fHGdgETekKz7JtZLYFW2htD14oBg1RkViZIReOhDzCN62sdeQdQV80WmkpYGltZ6fMSl3smB8/fixzujKAddWqmGBG+tfNnj1bWvDpR0rf3mnTpklXBw0NV/kvCvjXB8oure0SAw06fAZ+8MEHypLE81plaaAfZGIjAzVebWK5AlAcCSKOrxGiydsqdon60FDWl8haCJ73L2HL+e3wbT9Oil1iPLsN7pnyxRK7xJC/Kkxn4qYk02d8U7o+GEKe4NaULqics3S8YpfTcBR6MxSx27VrF6xdu1b6LNH6lylTJvmA44vQekirb+fOnbFy5UqZCYRieMuWLdEW4JSA/qhuJl9kSSWEpE+u5/bKnqYgQp5EYgddYhxg3DNL+klLsaucA/kv284UgQLH1iCLwQ172KaK2CXGUxthEIMRe/R5y8N4bqvyTkEcj4Fs/h1+Q6CnL4pfWIEO+eN3E+G5ad++vRS7LEFO8cs68xS7hIKX2Pc5DKr55ZdfsHTpUpmrmrm7ORhXi9uobayhkRCa2H2V0dru3+C1svASTi1SHGi4zsGDB3H9+vWXOq+fPYzsLVOmjPT5sSdwcmdpjVUDzWzhdLZl2TfYfP0Y1qXJjNHdpitrgOCZPeSUur0lN/LRDQTP/RT+Xf+M5dagcuncNkStG4psad+WAtoiHlSW4MdwC8ikbAF8/vnn+PXXX6XP29ixY/EJg/9soL8YRS8jq//55x9laWzWrVsnRTPzPdeoUQPLly+XuaCTQ40aNdG1eX9UrVgHYWFxo5jVzsNR952YdQEB/pixYBJuPj0lLZ+20D0kePEQpPpoLtx8ApSlVizGUAQvGgJvUyj25a+CZRd34tdOk6QYiAp6INs61ftT4GaTXYFE3r8i2qwv/D+aJY5pM72oiOhpa39EfiGWywWI/ZoNFxdUkFxleONtuRlTDzJgkKK2fv36cuZIrdClWt7obkIrPYuvsG1UbC1zbMvWrVvLeyxfvnxS9GqVvjQ0NDRikxIW3tdK8NIixgcUpxMZ4GP74NGIn07tWiGb5RFS+XpZo1lfcgx6N9x6GIgcFZvIKWZbIoSIidg2Gal6L1aWxBAV/Ej63bqJ68K35XcYtPQL1CneGNWLN0Lk45sIntUL/u9PdShqg2Z8BEPhWtbsAXZ8Oe9TlM1SEE0e3URg6FPoM78lg6T8Wv8o18+fP19aCsnMmTMdRqG6InjJ/v370bRpUxno9umnn0rxnBwoeLu1HIBqFeoiNNxR2p7EyFpbYq9LncoX0xdMxo0nJ+MI3mAWjciUD941eipLrMj2WjBADCDckardKECI4cFTO6N2yeaoXqIJwlnB7tIe+HX4XdkjNoGTOsrcvJ6KW4PaH5wTg51fl3+NER0nIuPhpQi5sBswhsBdtJtf21/ltvTR3bx5s0xDGN/AIj7BS2z7Hlrj6QbBtmMVRl4DGhoaiYV9ivY8fxVxRYtpgtcFbAVvjx49pBWFPo4vyi/xv8DQPj3wRY3s8MuQWiivV8AlxMsDl89ex8onmaVLgC20+HkUq2cNfBI3mbjL5PIoIUCDhXiitc+n9U9w8/LDtuOrsebAApmX17hvAYwXdsCvkzW1lT3hB/+C6cwW+Cupr1Q2HVmO1fvmYmxPq8CmVdFwdTdCo9yRZshGPAo0yoEYrbLfffedjEQl9h2Aq4KXUFzR6kg2bNiQtDLWChS8nZt9hnfL10aYQ8GbMqROlRozF/0Pt56diSV4zfcuI2TOJ/D/aA7c/GJy2EY+viHz57r5ZYBv6x+g8/CRy3ed+hvL9szCqO5zETK7N9zfqgyvco7zNjJbQ6QQt34MULO5Fr6a8SGK5SmLVlWswRGBf3ZBQMgFPA41IM3Q9Rg/fqocTDCYcO/evbKsuKMOOyHBq6LuR7/esmXLypkJps2i1deVh4CGhkYMQRFP8CzsoZC9btFDao2XFwuikM4nM3w8nAdaa4LXBWwFr2o9oQDgVDeDfTScM0QI3o/LpEXWdKlgNL+81VtUvD0NOHzxFnab86BPnz7RwsF4QQjNdb8goOcC6AxeytaM2r9izcOaPid8mo2Qfpwqn01sixaV38c7R1bAXKgmvEo1VdbEJnr6/MOZcEuVQS6zpiFri3bVeqKS4kcavPBz+N/dJRRsFCzvfoKBi45h1KhRMjE7y1HHR2IEL+HvpnBkhoBDLDudRKIFbwUheB24NKQUcQSvIkCZn1jn5Q+f+jGWeumOsHAA3DPkgW/L72P8ehVx2H9aVzTMUw4VT26CntkZ7HyuVcyi3UPmfoZUH82CjkUrBLtPb8CCrRMxuscCGMRxo8KD5Dbut4/DN5UBt3M1R8XPJsg2YIpD+kvHhyuC1xa6W3399dfSr/fo0aPKUg2N58N/cUC15/pqrDw2BZ4s5SsjlLQB48uJBZZInUzV+H7lL1EgXVllefwMHjxYxkd0YxXZJPJaCd62bdti3rx58mFFawqr7qjVczRLSvwM/vQj9CybDlnTC8FrevkFr48QvIdsBK9K0MyPoRdCyLtyF2WJED23zyJk0edwz/42/FqOFEtiXwd/H1mGLTun42udO3y6TYEuHvFEWIjAkL9KtEVxwfZJOHvtCIZ3miTfM/dv2J45iLp1Gp6BN3H+qQUVvt+A4JBQ7N+3V16T8ZFYwctKQAx2u3TpEtasWYN69eopaxJHjOClD2+IsjTp6PXWvJeRkbFnChxZeCMfXpNtluqDadEpxcw3TyFk8VAY8pSWeXaVp1osNp5ajy0rh2HYWzXgJQRxQgROfR+eJZrAs2RjmMwR+HxKJzSt0BnvFrNayFmZzXzjhBDHV+ETfBO/zFiOz+fvczpAIYkVvKw4VLhwYZmFgwGL3E9D43nCgEpW83rVn3+MfaBb0YL943Ahcice/hMME8v60s7r5KexP2J1MouQQhHGCJfOBfeR+bUNHghjpTqqKBc+h9/Tx9tHzuSYzC7k8RX7iI3kbDT3cTXHMPHy9pLty2eHK/swL7E8D+IzI8LFeXBz7TwwxziLcYSJ/sul60h+Px08fNyQOV8Airs1Qf2S7eUzyxE8JtNuclaNxoDu3WMKDCWW10rw2haemDFjBoYPH459+/ZJIaERP6+6hZeYrhxE6MpvkYrWXcWCa7q4GyHLhsOzeAN4144RxvZ8NrYBWmQvhkotf1CWOEamwDq9Cf5dJuLuk5v4avoHGPreOOTOnF92DLE6A9NTDOnZAz9NXYT32rfHXCf5oRMjeNXPmjBhgkxrxvKSzCiQFFLSwsvvZBadvCp6bXEkeEOWWUv9qiV/ZXstHSbFqXetT+Wy+Oj77TtoXfszVCibcBnKsN2zEHXtKHzfG4P52ybizD9HMLJLTOU9e5hhgdleWC6VvtJx2tWGxApewsBF+p0zPRs/40WS0G/R+G/CQRuvOWZ4cRVeJ0I3WKuUvTToxPcCUhULhU/+MFxbE4Xwe25w9xTXszOFIzaxVk1jVTgxgHZFEYl9eA74Yjlkl+BXEV8yUjxD3cTnyOqYLnw3/i4aCFj4RopQF78fP4fbu/Q5hPsk5TxERolNrYVJXP6ccNGv54lEwVY+uLXeHcYbPspnO4aDC16rzGZD17+k8toKXsJAEXbwLFmnET+JFby8QT0M7vDwEqPf0HBxIfNBqqx0ALenVdZN7BMcIkaJyvKE8PW2ln8NDos7InckeINn9YZ7jqLwrvaRfE9hGrr2Z1kq2EdZJr+Igy+6fOJ7OOzti5GdE3aBiQp6iKAp3RDwwVSM2vIHfPUe6NHA6pPrCNYSZyEC3si0GCZEYi285P79+1KgPXr0SE6R03qYWFLSh9fDwxMjRvUX14YnBvYaEauDsxe8kc/uIujPLmLwMAnu6XMi/Pg6hG8YC48yreBTVfHhiqe9EHgfK35vikN5y2Nkm1HKQscweDBiRg8EN/0aX6z4Bv2ajUTBN4qLQ8cVfxwcV6hQQZ7TAwcOyCIgCZEUwctyxDz+s2fPcPHixejyw88LPrBZspqV3+SDUcA0axkzZpSWG43/NpzlZBnsNm3ayBkGXvcJwaqAzPnNbCIcTPMeSUiovCh04n9u0OOW9xEcvvc3grdlQvNqneDh7e70+/E3TZo0CenTp0fzFs0REux8JosWV2ZWYd/d+5Pe8vOdnTveT4zV4ACDPvrlK5RHaEjCfSqFXmhYKCb8MQHNmjdDgfwFZL7yhKCYZrtwH87yVa1WFcFBTsoYi+19xG+aPn26PB/USvFZXG3x9fOVaTFv3bwl85G7Ui6Zwjj0mRGzN49D/g56FI6qjyzmIjDB8e/ib6HlmUXD0qZNi4kTJyprEs9rLXgpBEqUKIEvv/wyUWZy+4ehs/evOolxaXATv9vb2wPPgsKw89RVlH4rO1Izu0M8lxmnQrzE9v/cfoTT/9xDjRJ55UPY0dY8o3q9VUgfPnsdoeFGlC2QA2a7zBH2Lg2ma8cQsvRLBPRaLK274YeWIXzzeHhV/Qhe5Vpbd2Jn5aDNou5dwtMF/fG1uEm71OqL0vmrKGvsUPaPXDAQh6NMmBp4B790nIhUvmmUDWKjiidO0bC+vzOSIngJq9LwoTZu3Lg4qc5cIaVcGlgb//7DO6jc+C0ULVgSy2bsgtEYoaxVBe9EmZbs999/l0UmLJFG+Db+CuEHFiNs8x/wqdk7usJdfO1FjDumI+zKPnwdZUTHSt3ENVg5wXvSvGAAxtw4Cv9i9dCjTkwpaHtYNY19BdMasjqaM5IieAn7KQausRhFly4x7jfPC8Y00N2LwSB0pWCOYH5fPmQ0/ttQ4FBAUby6CvsuzpAmR3g8L/bdXYkf5gxAYVMDfD9kjLLUOZztZfAp85q7Co0ILCXO/tVV2I/TuMHsOQm5sNnD+KMff/wR2bJlU5Y4p3fv3mjVqpVTY4otP/zwgxT+ialmtnDhQhl0m1jLa7veDYESVzG85Qy8FVBGWRo/HCiwT+XMZVKxDulfU5jvkhfeV199hatXr8plzkZphA9OWl9Uy7D6IF28eLE8zn9J7JLo35PAqeEmXh56eAtxe+TCTXQfuwSdflmIB09DYHBQ9tLNTQdfIVy5z98HzqH1t3MweNo6eIhtHZ0/vRi1+vh4CjFswYx1+9F42AxMWrsfnkLc2qN+TdViFbF3LjyL1beK3X3zEb7pN3jX/CRG7JJ42izi3DakzVEM1Uu3wur985SlDlD2t4jP2XnvAOqVaR2v2CVqgQVWRiOuXHdJgaVriTN/U+ck7/v5+vhhw7aV8u+WjTrFMw1o9SFDVBhMF/fAq8oHiDiyQgxOJsCnbr9osSvPVTztRcIv7ESAaK+qhevILBskoXvyXPaiuBYZglYV41Z4s0WtZpeYB0hSUCuusZT0i4A5mynmCR8qzBqiid3XA94XrljlbHn69Km0Br+MBIeESAtieFg4LIlIKEQ/ZlavTAxPnjxJ9Hl4+PChFL3c11X4GfTfpYEuMXAgw7ZKDLwWEns90BLM4LPEYAqNkv7FtEYHBj5TliZMSviav9aClzRv3lz6OKqRf66eUE450oma5V0JLxKmPePy1wnKIApaHx8vBIZGYNzi7aj3xTQs2nECWdOmQtpU3nGsu94eBnh7eeL6/SfoP2k1Gn09AweFSC6YI4O8AegPZAvdFzwNeimkOwsR3fXXxbj9KBCFcmYU4ih+ISbTzkU+ReTdC/Cq2Anhu2YifPsUeDcYBM94si3YYzq7BZEFqqNJuTZ48Owuzt04rqyJjSpYtxtFhxEF1H+zgnwfH5wSJ8wHTZJ7I8cHrcgU/pzp+LegdTc0NBjL1s6Fl6c3qlWsJ2vK28MzKPPZHlgMfdaCMJ7agLCNv8OnyZexioQkdK5YBIQp5pCnNOqWbIq7j67j9LWEf/vC64dRJtId6dzjDp5sOXnypHRj4DTh80Q9/tmzZ+W/rpLUQRNT97FyH628fBAzU4TG60Nir5vnNThPEWy+2/P+mjwPST13SdkvsfuQF7FPUr6b7fau7pvYz3DEay94yZgxY2Siflo3CEdgzk4u3SQ4kty1a5d8T+sPa+kXLFhQvn8d4Bny82KEpg6bDl1Aux/moe/EVbj/NBgtKhXBrM/bIJ2/D0yK3y9liq8QxqERRszZeAgNv5qB0Ut3ynP9adNK+PnDBogw8txbjy2twL5euPs4ED8u3Iq6Q6dKIZ05jT9Gf9QQ3euVQ5jY3hH8LLaPbt98eBSogvADixCxdx58mw2HZ1HXot/N9y7BEi5GlblKwl3nJiP3l+12XBSAIizcGIrlR5ahYpQPPC5ay8TGByvXkfz588t/nxfMFZs9e3ZpHaBPrzNoSXBIMvoaTw9PnDx3BKfOHUW9Gs2Q+418MBqNytoY6JnCrBKmk+tlUYmIQ0vgI9rLo1ANZQvnmM5shj57EcAnNbwNXqLNGmDFnlnK2hjU+3un+CwWA2mY6S2Yz8YuNRxliXGVoe8dLRn0daUfmSuoPr7qTIOr8DNSp04txaczfz1beA0yoI7nUMWVhwQHhu+//z4WLVokg0IyZLCm1aNrEftFDY2UEBsaGv82muAV0LrBQBn6htAxmnlRXXHEZ0ozNfqd/9Ja5yyQ5WWHQVT20eGOOju6GPj5e+Pq3ccYMm096n0xFX8L0VsoZybMHNhavNqg5FvZow2wdFXw8fPG/jP/oPu4pej480Kc/OcuapXMh5XDu2BMj4bIlSmNFMdSGAshTUvwmr1npLsDP+PBsxB0rlUKa7/rhs9aVEFqcTxHvsHcP8IchcunjgNX9iHq0Q2Yjq6CX+sfYHirknUjFzCf2ghDtsLR5WwblG2Lf+6ex9U75+V7eyiGM/qlQ42afRFyeqOy1Io5MkaYU8RwRiBLlizImTOnsjRhDAaDFDQyEjYRUGwxd6Gr02j0kfrmm29kIBOJFmvxG1UThNeOm5s71m5aKt+3aNBR3Fu07tq1mzh+iDESfpc3wOPhJXiYwpG6zc/weKuisoFrRF7YCb/iDZV3QNOKnXHvyU1cuXNOWWKF55Jtsmz3DLxX7WOkE9tFnN6krLVy88FVbDlqdcPgzA1FOv3bOC1JAZzQi9uzghrhlCTPv6Pt7F+sBMnjU1RzCi+xsPobfYbpV0cSsobbwkA1ooplfjb7Qfoq059Y4/WC18HPP/8srwHGDLh6HWlovMy81kFr9tBx/3//+5+0ip0/f14K4YTYuHGjLAPLyOp33nlHTg1yWvD27dsyirVMmTIuC5qXhaVLl8rfQIsPEz3z+3/xWU98VCp1dNAaLa9k+e7T+HbeZpy5fh9eQpx+0qQCejYqj1zZ0sMcYYLRbBaCx+rywGwKU9YfwI8LtuFJcBhyZkqNz5pVRpfapRGQygdGsb1qCab7wo0HTzFm6U78vsJqKa1QKCf6NKskLcdMmRIeYRZiN3awmgq/y64z13Fw60YMqJwB4WnywbPpN0D6xLVFyNT34VulG5AvRnQt3D4Jdx/fFN+FOXtjeBR4H1/N/BBfvPcbsqXLidDfmsHrvXFwS2+Nsn8UeA8r9sxGs8qdEB4YKYMlOahicACjYvk3Hyr2gwv1QcP1fABxQPX5559LAaVun9B+FKwcxF24cAGjR4+WgRLx+Z3Rb5OVw/r37y8zBdC3fdSo0ejx3tAkB61R7IaHh6Jmq2Lw802FvxcckZZT++/r45sa69b8ibznvkCBYoVwv9IH8HyzLCzhwTQ1KlvFT5TegIBn9+Gx9mfcazgYAelzWUtEe/ljxgYxgI2KRLe6nyMsIlh+NpevP7gIe85swtCO/0OkEMVeCz9HVNtRiPBLA093Aw6e3455235HrdLN8UzowM8/+UIGDRYoUCDO97eH558DGwYk0lpLv1j6rDmD+7GtOfDkv3S54syRK/uy/djvMHqcMGCFQZt0a0kI9nX09aa4ZTUjlkqmW8WqVavk9fbTTz/JQbBq+dX478DgMw602Ner8Lr96KOP5OCLWQL4POBLhQGNHFBx38Sg9lWukJhtbdl0aR4mrBqJXE+q4tev/ge3hL2UomGfyowoDPRyFQ4uGViakKawh9qAKQdZZMbVPNvsrxm0xoBZBjm7Cp/hdNdk+kRXYUAuY5vYD7gKK9eeOXMmUWXsjSGRaN+/ATzeuYW+1UejzBu1lDXxQ0MMZykZKJhUNMGrQIsGk/OrLgrnzp2TlrGEoBWnSpUqMpKa0a7clw8IRq9yKpA+eKzmlpQHBSPVeQHxAUvUDsD2Qat2CCm1jtZDOrmrAXyMWmX2igfXLqBPxczRackoSHv/sQKT1uyDQezTonJRKXbLF3xD2u3ChHhVoSWYAvf90X9h7YFzyBDgi441S+Kj+uXwVs5MMIltIxSrLpEZFi7cRKefF+LczQd4M0s69GxcHu2rFUemDKkRzjRnTi5Zg+ikr96+hwv7VyFXnky4/HZj6LMUBITYcQWzmx7Zwp4h/fapOP7u+/BPlUmm0tKL5RS7f+2cIsTTACmajKYIpPJJLYOjmHu3Y80+CIsyI92GcQjIXRZX3qoIg3h/7/EtLNw5QQwaciJ1RE78+PkfiZquTi5sZ5bVpvjiVLUjKI45bc9rn2TNmlVcG8APQyYlOQ+vv18AFiybioEjPsTnvUai9/tDERwSN92Nt3cADuyZhYOXv4ZnniLQpc8LY+gTcV249tALF9dh9Ue3kNEUjkWZ88JTCFzxo+Gmc0OEWHbzwRVkT58Hnh7e8lywyMQ/dy8gU5rsMrgwXIjwFrfO4b5fOuxInQle4n1wWCDuPbsB3zSeOLv1Lg4suSxFaGKwv/dcJan7Edt9+cDjgCehwTsfvIz+njp1quwjKYBtfb5r1aol0zblyZNHWaLxb6L22ykBA685q2MreI8fPy4HSyzSxDbnjIPtszCpgvdFoAneGDTBGxdN8CpQvDKtBi0Z7ABmzZol/dmcwZHw/PnzZWQ1Ow9aYjh1TJHLToOlR5s1a6Zs7ToMHKHFhVPZRO3kHHV2KbmOYsj2oc7flcnfAyObFIkWvHRPSN18GEKFWH1PCNHJfVvAV4jRiMeBcVKE0S3hyKVbKPPJ7/L9d13qYmgncXGLY4Q9DUYkP1uuseLr74Mpq/bgwzFL5L7TB7RCmwbviLveiBAhnF2BgvzstbsYslcI3rdzIssbZREZHiR+m2tixeRuQLmbp5HFwwcrM70p7s7QaH9OD72nFLZPgh4ifw52PhZpvb335BYKvlFCnMsohAmRVTL0KYrc/wdzcxaFQfxCoxBdV++eh38GL9w5G4gdUy8iyhyFd8q/I/Mzsg0Sguu3b98uLS4cZMUnWu1hu/Ie4DXJ2QvORMQntOnLyewR7PTLlSsnLXtfffU13m81MEl5eCmgWWSiY6/62HtoGzYsOoa8uQuIDjzu5wf4p8bsvyZiypHhqNqwHLpX/wxZ0r6BMHHunaETn8Nr1mfBQHhU7ozAXKUREvQAZjHQ4Gn1806FjYeX4PLtM/iwwRBYxLmbsu4nZM+QB43Ld0BQ6DNECiGc9fI+mE6sx4MmX8JLtOHpfw5h7bE5yJ42L9JG5MHwfr/IQcCgQYNkeyTUZmxTujTwIcX8x0OHCqHvQvQz25eDDmZNYF8yZMgQ6UZBi74zOFOwZMkSOUvDQgJ8SHLWimLF/t5X4QCX6er4PelPzsA8PozHjx8vc/FyEE93L7o1RLu3aPzr8HlFtyNeI/G1rTMobGio4bVqK3jp3kKLP68fdbntMyI5gpexC8OGDZPGJeai5d+8tnm904ecVSG5LKmDK03wxqAJ3rhogtcOWrcYxMaHBKd2nbF69Wrpy8tGZx5LW3hD82FSuXJlZYnr0MpK4e1I8KqoHVBKreMDk50ZOxy6dfD308L749eDrC4NNhbePv9bKTqWvXL/9+uURo+G76BU/hyy6kqE0SwEovWYtPA+DQ7H+6MXY82Bc0gf4IuPhYB9v24Z5MyaDmaxrer6QFg04qgQyO1/XIDzNx8IEZkRvRtXQPvqJYQo8oHRGOP6EB8UygfO3cB3Z2/hzfJeqFukBeqUaoEQIXopSJ1h0bnDPLkj9NU/hnehGkLcPpCWXP5Wg95DCtxfFg1E7ybD8UbGNzFsZndULloXdcu0kZ8Bdz304SHQL+iPkDqfwStHMVwTYuuXxQNQIGdxVCvUBB+37y+nDGlN45S1K7AjosVftcC7CgUyp7kpZt58Uwj4BOD1z4cZhRKFVp06ddG+0SdJEryenl64dPUc6rQpgSrla2HOH+sQEmp1KbCHeXinzZ+A64+P4+3GWfHk6UMMfc9acc0lnt5B8Mye8Pt4nlCb1kp6ttx/ehvfzfsUP3SbgeDwQIyc0xvDO01E2lQZlS0EQviGTPsAvl0miZshLc7fOI5tJ9aiTbUP4R7pKYPJsmXPhjOnzyg7JAwfbrScNmjQQPYTrkLBy3aiHy9dGxLjt82+iwPvESNGyHRjzlD7APu/CQdVnL36+OOPUb58eWWpxssAH/oUnBSGrg5+7eFsJF2dWIDJVvASPs844KU7DPMy83mgkhzBy36IblU0FHEmlPcUBd2DBw9kliPOJDAdX6VKrsda2KIJ3hg0wRsXbchuB/3zeNNRrLoCrTfsOFQ/OfVhvmnTJvl3Um5c7pc7d26ZEJ45P/mqWrVq9L/qK6XXcWDA38GBAR/QFLycCo3uUJVnIa2433WpI62veYVonbL+IGoPmYrhszbg/pNgePt4SuGqbsvUZBP7NJf7UAyPnLcZ9b+chilr9iFcCFimNKOfL88c3SGK5cmCJV93xMdCRJ+9fh+9xi9HixGzsW7/GVnYgpkeWLAiPvjMdte7ofk7jdGlei8s3TkNJ68ekC4Ift4BTl/+T2/B4O4B//xVoHdzR4aAzMiWPqcQ/G/IvwvkeBtl8r8rvtthaTX09vJFyyofIMA3jdwma+qsyJg5H7yyFUbWR9eRwS8d8mTJL0T7JxjQ4idULVlfWuDYybsSSEbU6yopUCBz4ER3BmdQaHHAQ7FLbH1HDQYPpPJPrbwCrC8/5aW+t3mlCfDC31utQZ2tGnaWg6CEfgd9s3lePq7/NcxRkRg59xPx+c4tmyTs8FLomJ3BgdglGUWbFM5VCvO2/IFp639BlWL1Yotd4hMAS5psiDj1t3ybM9Nb+KjBEKT2SS/vA9Zzv3H9hnwAuYKa8SKxgoQ+lZxG5uAmsUGKfJjSB9cVsUtsBa7t34TXAQtnUOwm5/rTSHmuXLkiXZQYA9C+fXs5k5jYFwWR/UBGbWcaOujzT/cGFjxIKegmx0A4fj5hoQMKasJlzJTEa05D43mgCV471BueI09XOnkKQwakFCpUSL7nQ4NTl/Sbo0sC3yf2YWH/4HmRcPRNX76SJUsqS2xQfoZZPMCZRaFLvXJYNbyL9N99HBSKb2ZvQqNhM/DXtuOyChqFKaHIzZYuFYa2q46133ZD4/KFZKAb3Rba/zgf245clKnNeEyeKwbGFc6dGWN6NMKyYZ1QKl82bD52CQ2+mo6+/1uJk5dvw8vLIC3Njk6tuojt8HaOiqhfti1+Wz4MZ64dVdYkTNiJ9XDLVlAovPiT7zd6pz0OXdiFmRvHolXlD8X3j1tIQV+4FkLObJF/p/HLIKfP/b2tolMNZqTV1RUoPHluEnstcXqSVgW62HDk7gx1RsEeTmc/ffYIp85a04udOnfM+jqvvNT3yuvM+eM4fPwEFq6YhkwZsqBCmapCKDpzSbFEJzDv1+IHhIQFYvSSIfK9M0yX98NQ0JrTOD6alO+MPWc3ygDDZhUdVzDzKFYXESetgtdLEc/qOec9zmvK1r81IVShm9g2YwUnktiUdfwcWvzY1on9THs4SOIUM6EIsU119jrBYgTxpupLBMltD3s4+Kpfv740itCCR7e5xL6YVcjeIMNnjzrI5eCJls+///7b5YF5QvAc8Nqk9ZCzToRug2o1QS6jkYXW5JQ+XxoaRBO8dtiKTVeEJ6Oi7a0pnB5iAn26CNCK928K2MTAToaWLGdVlvhr6NoQFhKO/Dkz4dfuDbH0644omz+HDDhr9e0cfDJhJU5cviVdGvj7QyJMUshWejsPZg1sg7EfN8YbGVNj5b6zaPLNTIyYuxk37j+Vll4SEhohrbhNKxWVondAyypS4P6xai+aj5iFSav2ITA0HO7u8Z/b6I67QkdUKVoPv68YhtuPrIVCEkKKp0I1lXeOyZY+F3y8/IVEs6BsgarK0tgY3iwHC31J716MvgbUjpw+smTLFqsgfl4dPPNDU3glt1iCj7ce2/dsQJvuNdH+47ro0LNegq/24tX6w2q4dec6GtRqhQzps0jfWWeo54l+txS9tx9fx9T1VgtQfJhvnYEl9BkM+RLORpA+ICPCI8Jk4KDe3eDwnOvzlJM5gCOf3FaWxHwn1TWJU5nPA/X7rF+/Xv5bsWLiUrLZ9jO2fycF9gMDBw6UFn9a3enn+TrCaXu6lTAImQOAxNyn7H843U1rbHLbwxGJrW7lCEfHYC5nujPQtYA+/Zz1pMBOLok5B8/jfGloaII3mbDaGtORqTCYgEn+GQDEqRs1RdCrQGI7GU5RhwjRSZpVKYY133bFD93qyvy4MzYcQrsf5uNxYKgUsTyyKTISoUIk05LbRwjYjT9+iF6NK8gKbSPmbMLnU9bC00Mvvoc8JMJNZoSFRSB7+gD8IkT15p+6S+vwpduP0OO3pZi8dr/0140P29/TseaneKdANXw3r48MOosP8+2zsIQHQS/EqiPUBx6thPTlZRaB0HiyP+g8faHPWQKmk+uUJTHfSR0kbdiwQf77vDr4lSuteWQZaZ9c3NzdxXXtI8Svj/w3oZeXl7f41xcF8hVF8/odZFowDg4SQ8Y0WTG03RgxiNqJWRtj/HntRQer4emzFYKOFnkHgkTdftXeucgQkAU3HlzFs5AnDs+5m28aGDK/JYtf2EP3H8LAmucBvw/7D1rUSEq0WVKhSwtjEjhdzmnzVy29YlJwJGaZpo+zJFxHNxNH28SHuk98wjQ+VxdXPyOxrjKOcPRZFLcnTpyQgWT0mWRqO7rtaWi86miCN5nQB8p2CoZWXQaO0AGfjvl0EfivwyCyECFkU/t6Y/B7NbBWCN8mFQrjwdNgPA4Ok+4KKjxLEULIMuPCW9nSY2yPRrLwRJFcmYSQfSg6cYsUkYT/pahmNgi6SFQomltahyf1aS6Eix8u3HxIlSC3TQi1bTrX/kz63/6ycKDMskCiO3zlX6MQOoY8ZaGLp8ysKpLmbP4dJfNWRN6shbFy7xy5zBGGQtVhurRPeRcDp8fpg8cgMVXgpDR0ZWCACS32qlhLKqFhZlQqWx3Txi7H5FF/YfKvi52+poxeivHfz0Xe3PnFwCXxOXxJxtTZ8HnrX7Dr1Hos3vGnXGYvVE3nd8BQrL71jYPrgds/DrqPvw8vwafNRiBP5vxYvX+esjYu+gJVRZvtVd7FQB93ttn+/ftlDm7iqjhxFWZDYLtxQOQswFAj5WA78jqhfzaD/tT0lGo6NxaJ4fQ/t6EIZDEGbqem8ONAhfnYOaNCNzeKUboH8b6jexzTXlI4c0ZQndWhmxAzpqxdu1b2AXSV4Xv76/tFw4Btil0acpj7m/EdGhr/BTTBm0KonRSDTCiA6XhPHzxaSlL6ofiyQiEbFhqB8kVyY1q/lpgxoHWs0sL2BAsRywdDo4pFpOgd3rEWzGJbNcODLTyHwUJU+3l7oHuj8vj7+27oWqe0LEXsDLaN2gafNB2OLOlyYNSSwQiLCIlZp7Sf+cpB6IVITYgz147g9LXDeK96TzQp3wHbjq+ROVsdYchbARZzBMy3Y0f282HIoiWEQZIpifpb6UdO3ztG6lKoJQe2U5qAdChSoAQK5y+Owm9ZX4WUV/Qym3XcNm/ugsm+/nMLgcp223hkGdbsiy1UzTdPAZFm6HMl7LIxd/MfYoBVBG9mLYR6ZdpIAR1vmxV4F1FP7yDyQexsGBzMqqkKmeKNpKQ44XlSrwX7jC8azxe1HSnwmIGAqSaZwYAzdXxdu3ZNVtPkdswuwKIsFKlMH8l7jBl1ONtHtweuV9uRaS4543fx4kVpBKFIZpCWWqGT1xFnDPgvo89TwmqbHNR7lRZ9piZzloteQ+NVQhO8L4CUfCj+G0QLFhd+hnRzEMI0wNcL9csWQCrxb3yFIng4U2QUQkPDhKhJK4RIAfk+Prh9uNGM8LAIlMiXDe8UfCNO3l/i6GtGC1sBfUO9PXzw48J+4ngxFhXz1UNCPJngkTfhFEyzNo1D3dKtZdaHPFkLyspqqsUwlrgTf+s8vGHIXgTG03H9Prt16yZTT/GhuG3bNmVp8uHvYaQ/86cSphhLNuKYJrNJDDqCrK9Q6ytEeUUvs1nHv0PDHKchSyxFc5dBz0ZfYcmu6Vh/YLGyFDCe+lu6jbh5xvUxVD/33PXjOHZlHzrU/FS+f1O0WY4MebDuoLX8rj1u3qmgz1JAHDt2eWjCyHZO+bLNUtoyz9LmDFijZbdly5bKUo0XBd0Xtm7dKkUsU7FxgEM/XOZGZr5i1ZrL6nkMAB03bpx8T4sug9uYYpCzenQB4fVBIUzRzHXcn6K4Z8+e0lJMqy6FMHNrMxsG/cN53zL249/kVX9WaWgkhCZ4XzC2D/+UEAIvguhOMBFfl8KUrgiu/EZuEhJulD67rkABHRJmjNdyHN8nqr+D5W77t7Sm2vl1sbWIADGe3Qp9jqJiQ3FbxPO9Nx1ZLkUyA+FUmlbqjJ2n1ovlobEfGMrfnG43n98hjhlbnHOatGvXrvJvRicbjUb5d0pcFyyOwMIHDHxSI6KTR/K/U3Ip/mZ5dG8wBAt3TMbuM9YBRKQYpDAbhiPUtmAqsjqlWsqUciqN3+mIbcdXI8zo2NXCULQ2TOfiDkJYeEL12WfOTuZSJsltM1oQmQOTDBgwQM4UvSr9w38FVsZkLtaiRYvKzDtsa2ZoYDtQ9FKM0gLL9H4sKsSBD4NP1QIQFLJ0VWKxHvq8MmCZAX9sS+5HUcuZPxZ/YbEFFktRc+FSEDPFJXnR7U4LdmLgQCC+bC7/Nl7eXjIXvJtO73IOXqIXGxvcE+en7OXhIz8nMfh6+wFROng5GKDHB13S3KCHj1fiBkPu4rupmWZcRZ4HfeLOg4fBS+6XGDx83MWFrpP3hasBkc6C6V1BE7wuwMpFjFhNCRjAQMsbfcX+66PpxHbcid9e+SORMHiKnRUtvUGhTzFuxTDAFA5c2Q99Ar6gLD6xfM9MtHn3I7gL0ax+36K5yiBjQFZsPLxUvrfHkLM4LGYTTDfipiCjMGUqKfrvMbE44XWRnIcep1VnzpwpH7SMtk4Rkv51UpR3ClZH51p9MXXjWOzfOhleOnd4vBm/n/yOE2vxLPQxmla0uo+oFMldGulSZcLfB/+S7+3PN7M1wByByHsXlSUxDB8+XA4imKqLlkCSlDZTt2eqM0530w+U7ie0EpL/ev/wskERp2Z2UWEbqe1k626gVr7jIJVimG2l7st/uQ+X21at5P1IKKLVAQ3/pd82H/rq4PdFtjt/B8U2vwst0Sx6ktCL0IeZPsm8bvk8c7Tdi37J9HEhJnkP6Q16WSTn8b1nCAkKwdMnzxJ8sW8LCg7C02dP5N+OtrF/RZqj8ODhfbDcOt8HPg2Ms439KyIsArfv3JYzZQ8fPpD2D0fb2b5CQ8Jw9849oRdCce/+Pfm5jrazfQUFBsvfHRoagkePrLEqjrazfT0Tr6hIcQ2I8/Ds2VOX9uFLnq+nTxAcEuzyuQsW3+3ezUfyPPCee/T4MaLE49dRu/LFtuW9x7a1vZ+SglZpzQnsnGglYxLulLGUQea4ZY5e5lF8FRjyaXd8UfMN+KcPoA+CuGrEQl41tv2yehW5uk55iERv6Op+Kgmt8zTg0rkbWPk4Ez777DNloWOeBD/EiHl98KanH7pFitFmN2tglCPmb52Ai7dO4+sOMZVe+KDgA+rElQOYvOZ7jP54oSw/bE/oym/Fd3SDT6Oh3En8HfOFmcmD1h8+PJmI3b7qEeGDKVOmTLIYAQNm4oO+gfQz5cOIU6V8JYcaNWqia/N+eLdCXfEQSVrgmSukFr9rxsJJuPn0VLQrRkKsO7IMqzf8hG6FGqJUY+tAwZ4IMYjpN7Et3qvWExWL1I5uK5Vjl/diyrqfMfqj+dJKYU/w4iHQp8sJr+o9lCUxrN6wHM2btoQ5PAqdO3eW1YbsU3dxCpsWPVZUYvCgIyg22rZtK90j6PvPafXXISPCywiLLNBqTws7A8rov0p/WxYhYtvQv5d+8cxcwQc1Lf0cpNJ3l1ZPDlSYs5iW4n379smUZswxy/LQFImzZ8+WJetZGIRGFAaG0d2IluPixYvL64j3uCvQh5hV/DhQSg70V2ZVPj6TXBETFPH8LXwxXRnvJ95X/zbyK0Tq4Fc8GH5FQvHkFFNH5oa7wU0Iy4S/H9uS7ii0trMwhjqYSQiehwdCtN69cxcFCxUUjx/n54GDGwYlMu1brty5kDFDxjgDLHt4HXIbutOwX+CMgbN9ZB8n/n/u7DmkS58OWTJncf6bxPZ6d730Nef5yJ0nN0wuxMdwW5aLDhHiumCBgi6dO52bDqbwSFx/fAE53vHF/U1eCD3vAzcv64CSv5nXIs+XOsjk+WYgKavaJqaimz2a4HUCTzJ9LVk6jyc9JaAI46hlypQpypKXm87vtUa6iLvw9/EUF6K4AHlD2Yk2a48jcHGd2jnIm1Pd3oX9oklgncHdDbcfBSJftZby4eWMW09uYcT45qiQsyQ6d7IGI9mLo3timy+mv4/BbUYhbzbr1KM9g6d0QfUSjVC7VIs4+xsv7EL4pj+Qqud8+f5h4D1cv3dJlrkNMj7B6O9/x9Zl++U6lp0cOnSovPFVXBG8ixcvlg9d+g5yMEU/QnZI9t8lMdQUgrd7myGoVrmm6Kydd2ZJJXWAAVPnTsPVh0ddErxk9i+1sNvTG4NEm+TOFDcob9H2yTh59SBGdol/EMM2rVykDuqWiVtZ0XhmC8J3TkOqj6xZOE79cxB7z25BaHgQgo1Pcfd4GGb98Ze8lznFzXazLRbB4g203scneA8cOCAFEzM+8GFLyzwtvBr/Hr///rv0p2dmBQpZ5kSmCwLLf1Ok0vWIfty0NnEZfXlZiYxtyMElXRyYrYGVyqpXry5FLZ87HNjQP5hFF5jlg4K4YcOGcoaHg10OUDljwIc5RY0zUkrw8rsePnxY9hOvMuwrOeW959YKBGe6jGePA+U5lzjp+5gfPJU451FCZLEddDb9bnxwH34e3UGeimvBJUQ/TBGXWlw3waLPkLO8zj5L9t1uCEgdgBDx3WgUcWUfwuuIBjuZ+cPF38TnC0VmYs4DB2zURrwnXNlHfj/RJunSpkNAWj8E3CyCSvkaSvcwznTwPpg3b570d6f7EJ99PNccTLJYijMjVkJogtcJnL6k2OVImPCCoyWHFyuncxh0lFhozfnkk0+k79arAC2QHMWllOCnNYRWDj4k+IDh9FhSBVl88EYvU6aMLNHsCicndcDvwfdRSwifVlXiRsiPWTpUlhvu3eQbZUlcdp/egGW7Z+CX7nPliD8WUZF4Nr41fJp8JV0cbj38B8Nnf4ynIeImD/DAe5X6YufSY/juu+/k5qyexAcoLT8qfLiyQ6KQsoUPLc4YcADF65MPWkaDu1JK2Bk8hyULVEb+fEXksZ8XPt6+2H1gM/zSu8tKf86wXDuKiHWjMD9PSRy+uBtD24xB1vRvRIv7p8GPMHBye/Rv+RMKvPF29HIV9f0+IWoXbJ+I0R8tiDXAIJaIENFmreD73hgYsuTHsUt7MWbN56LXFP83GvDngLWYNXWuDFIiDDajNY8WQaazYrEC+mnTKqFG5RPmZqX1jxZD+nnygcGofrXcqsaLR70e+LDnQITZdWidZ1uxfShU2N9TRNDC27x5c+nny/blMj5XWJCEAW8UC1xHaAnlfUiLFfs5HpfH4TOEObiZmYHPFj6nODjnfUs/YmekhOBNzkD4ZeX6szM4en2XHEDSkhg9E6jxcsGmEdKTLiFVCjRGOs9sygrIgE7OUtKNVPVrJ+xbmW2IBsikogleJ7B0Y7169eTInlCEsCOkWGMFHo72ORJJDBzBMLchhSQ7zNeRrl27SosJR3V8mDwv+ACzFzL2mC7vg/vG8ThVqzfGrxqJpuU7oX65Nspa4Oz1Yxj912D88P5MpA9IeMpxgBBZjcq9h3ffbqAsiSFk1fdwM3jBu24/PHh6B73/aA5PP3ek98yO0T0WyG340Bs/frwUl7w2mLqMJT45pcppRwpeTjsxwpuZGDZt2iSnSdUSxXwQ8yFKa3BKPND4QN27Zy/8hIBzNDWoHp+fZU9i1vEtLaUdOnaQ5UydEbr6R+gtkfBo9AUmrByJi7dOYVjH/yG1n3UAOnHN9wiPCEXf5t/K9wkxcHIH1CndEjVLNo1zzkKWfAmv1FnhXqMnVu+bj1mbxsLTV4+GJTujzbvd5TbsUzgtzHbhvhwksM0odDhlTZeo6dOnyylzWvdoNeS0JilRooS0AjIFlMa/iyv3C7dhIQY+kG1zrLPAC91R6JKk4uh4tst4vdBqlT17dnntU+jSpcIVOMDlFHfHjh1d+t4aGq8KzFBDbUCXIbqSqvDZSDeaZKVspOD9L78OHTrEJ6p8CcHrcJuEXqJTsSxevDj6fa1atSwZM2a0fPPNNxbxYLb4+/tbrl69GmsfZy8hViyFChWybN682eH6//rr3Llz0W0iOm6H27zIV/Cy4ZbQNT/Lvw+c3Wbp+GNVy44T66LXfzHtA8uCrROj3zt6RUZGyn83HVlu6T/R8XVmunbUYhzf2nLxxkl5zC+nf2hpObKMZf3Bv2Jtt2jRIkvRokWjz5Gnp6elWLFiFoPBYPHz87OIDsFSvnx5ixC/0dsIcWwZNWqUxWQyxTpWcl88nhDfL+ylnseEXpEmo+XpuGaW8It7re/FPj8vHGj5/M9OFqMpwnL59lnL+7/Wttx9fDPOvo5em4+stPSLp82iLuyx3J/QzvLHul8tn4xvYVm4dZLl43GNLQ+e3o213YULFyxicGLx9vaObhP1JQZcFr1eH2tZunTpLEI4We7cuRPrONrr5X+x/xID9VjL7t+/L68B22WuvPjsWL58uXwW8PrnMmf3QHh4uEWIAYsYZMm/HW2jvbTXq/SKjLJe81u2bInuI/l8472mbsNrfvLkydHvk/JyweHi9YbTULZTwxxJN2jQQE5d0XeLU+bMpZgYOKVPXxWmjXouiBF/imJ7vBQ4NqdzVWgd4zn+14g0w3TlANyV1Fal81dBtzoDZDDTqX8OY++ZzQgKe4pmFbvI9fGhWliqFmsgo0/3nbVWU6L1RcU9ezFsM4fjl8WfI1uG3NIfuE2Vj1ChkLXMsApHuKtWrYIYVEmXBrpnsNQnfZk4XcppT1qTGMHKIAu6x3B7+jalpLWc353HoyvLi3q5YqmKvHlSfLcoGJRiE9znsxbfw8fTB2OXfok5m35H7dItkTF1VrneGe++XV/+1r1nNsn3tm12Qxzzf08u4Z+bJ9Cn+Xdo9e6H6NHwS6RLlVHZwgpnfXhdL1myRFomaOVV3Z1ERysDTcRAWaau4tQc/atZkdHVICWNlwcGs/GZoF4n/Fd1gbC9dhJC3Y5WWrq80DeR1z+XO7sHOKPDwhh0YUrss0dD42VEdQHkM051B2J6QM58pCSaS0MC8ORzWpkPMbU0K6ce6WvHiFrCnIvssBKaimKjqSUqCR+AFSpUkL4oDG5IMZgT9MYN4O23lQVJQIgroa7ovKksUOCFxyh0T09Y6KS/dCl05csDBQpY17MDd0GsEPouc2rXaDTKi7tYsWKJzgWZUhjP70T4tslI1X1WrO/Pql6r982TqcjerzcQpd+q7NLDiGw4tATbT67Bd12nKUusD7gF2ydhx65paJD7HTRsbw3MEiPb6BRnjo7NQREjdOlHztKkDMTggIlCqWDBgvLFB+1rgXKNyYwXHj7wqdtPWWGF99Xnf3bEradX8L9eq5HaLx2Ygi6OP7UN6nnffGSFaPOl+PGDmcoayMHO3J1TkSfwPrqWbo001Vy/V1kemP6fHKDwRVcU9gEURprI/Xdw9f592aHPL59lDORhwBn7AA2N/wrMhEJXUVYgpEupCgM+mec6OS4NmoU3AdTIVfs0ILS4qTjrRHfs2CEtwcyHykA3wgAGPpxTIpFyLIRQ1Y0apbxJIuIhrfsmbmCWZeJEliKSf+t+/hm6efNguXNHbo/QUJfFLs8XLSQcOHAQwajmf0vsEvOZTTDkFgMiu+9fq2QzWaggOOqRrKhGXH1YVi/RBIGhT3GIxSYEDKD6edEAHLiwCx9W+Qj1IsR1QPEmoNgl8R2bgSk1atSQVlxeQyxBOkq0Mf1cGdH/2ohdIs6RzGd8/Tg87KziREZqe3gjjXcGzN0yXi5LSOwS9bxXK95QFqE4eN5qMVu0/U/M2DAGNYo3xqdNvoGfaEtalV2FRQs4kOPAloNiRvozAEMTu/8+7INozGC//iq9+J0JZxgZIMnsDhS7/D2Otn8RL34nPss0NJILr2OSIUMG+S/jVmxR79nkoFl4nUDBwSCiZs2ayfcUagwMUpPDcwTCdfGVb2UwAx/ErK/epk0bGWTA9B2c2mTAQooGq2zcCN2ECbAsW6YsEPAiUsWU7d/E/j25fh06BkLYTZVZtm2DLlcugC9au6dNY1g6dAMGwNK2LcRJdny8eGCuSlq+OPX7b8Eo/MBJHeHb4lvosxVSllp5+Owevp/fB29mLYRzN45jQMufkDOT6+Jy7YGFOHJxF9pV64lJa76Hv08AujcYikypsyJoXFN4NhoKjzzxF0zQcIy0yG8aj1S94pYFpkhlW/Vs9CV+WtgfubMUkOWIXWXz0RXYemwV8oj9mPmhS+2+KJNfXOvMsPFbM/g0HwnDG8mYPdH41+FMCbMpcJZEfcC+SnCAxqwRTNtEtzg+e1J62jex0ADEAL5SpawuRhoayYEZnJjphlkaaBBToasYLbzJmRXXLLxOYAQtU3KpsHOxtfDS/5Tv//zzTzkCYfQ8Uwypo3G6OzDfIrMyqGnImJmA29HS6SoWWlKZGk2IZMyx5gUVPTevAljUfL56PevvWf9etEiKVwpQy9q1zKoeV4zyPUdM3J+ZJujKQGurhwcsS5ZA9+mnsHAZN+V/aPFevRo4dw66mTPlZ1hWrYLu+++ZsDju8ROAaXlctZg+L0xXDwHu+jhil8zaOBZ5sxZGr8Zfo3S+Svh58QDcfXJTWRs/6kOUEf/X7l/Cr399jgJvFMeQtmOk2CXu+SrCfHK9/PtVfOj+m5jPbYM+l3UAy3Onnr/HQQ+w8cgStKjUFekDMqNfyx9x+p/DmLVpnFxPHJ1r22WZ0mTHP4/PyIwPX7X/3Sp2iZu7/Ey1zTReXZhyjHmsaUWicHzVXpwNY79Jl7oWLVpI6yqFr6NtX8SLuYiZWo8uahoaKQH1lDqDYAt1lG1mlKSgWXidMHDgQOmPp+7HUqK06rKzIUzbxIZg7riuXbtKocuyrhS9tnDEQr8UWnS3bNkiOyx2vC4HGV28CKGaoatbF5ZWrQDmp+vXDxbxmW4UnrRAZ8wI3e+/wyJG/7pGjWAZNAioVIlfGhZxoeiU0pWxWLkSulmzrMfMlk0eVye2tTRoIEWuhaKZ/ro8Rr16nG/gjwHos1y8OHRffAELfYb5vkQJ6zEVaMmWybXthC1zJB49elQGadDS/cKhyBHfKWTxELilzQHvGrHTyjEN2W/Lv8K3XabI8rNk/IrhuHr3nKyyFuCbVgol+9+lLouKisSCbROx5sACZE6TA6M+mhdrvemfIwhb9R1S9VrMeXi5TsM5FlMEAv9oBd8W30Gfo6iy1MqEVSNhMhvRp9lIZQlEe53HD/P7ok7pVmhROW7uRts2ZMDasj2z5DWfzj8jPm8jBpY2sHBIxOY/4P+xtXCIxqsJK+LR3YR9tkbKwPSa9CVObhEMDQ3CGRimgWVwJt3C7HH07HUV7WnrBPpP2o5e6T9Jq60K88SpFlxW6GGOXfpW2bJ69Wo5GlbdF7gdffoSFVFvNEKXVggt5nmk6J09GzpaSSkyM2WCTohSaZ1VEReFSzx5AosYoYOCmeIzLIwlWoDBg2EZNgy6a9eUDQUccZUvD12ePECnTvTvYMgyLB06xBG75MqVK9Gdoe2L55PFE3hO/hXEzWIxi1Hk7TMwFFCseDawhHC1txtJscubi3CanO/HLBkqA9l4w6nrVLjsafBjjFoyBIcv7kKvRl/LZVfunI9eTwy5xLkyeMJ45YB8r+Ea5mtHoTN4w93OIn/59llZJrjNu1Y3I7VdcmfOj48bfSUHHpuPLpfLbFHbY9numZi+YQwqFKyJIW3H4ubDq7h067Rcp2J4sxyiRLubblhnPDReTTjIftWrir1sqBlWNDRSAsY9MOsQc+6mNJrgdUKVKlXk9Pvu3bvle04f2XaYfE8oYOkfRr8TFqpQoQBmuiLbhOT066W1OVFQbL75prTiErfbt63ZEuhLGxoKC0W2bSUsimm1E/Lyir/kX8uW0NFC27QpzeHWfZhOiQ7jdI9gZgYGJfB4yjGknFDEAtGp5+PpU1jWrLFmdBCwzCotuLyAbV/0y6GF/O3kZJNIJqbzO+HmnRp6pUywKpJ2nlyHJ8EP0aKS1SKoiiI3N3d83voX+duZVswoBDPXMQuAytnrRzFiTi9EmMIxtN04VChcCyXzVsCCbdZyxRL5OToYcpaUAXMarmM8vhqG/JXEtRx7oDhz4xhULdYQmdNml+2othkpIc7/xw2/xNzNf8hMDLYEhjyRAxiK4Y8aDEbTip1k4Yp3ClXH0t3Tla2s6NwNMOQpA9OpjcoSjVeV5Aa+aMSG59N+8K+hkRTookO3HZb2pu5ydF3Z9u+JRRO8TqCgZUS8rd+uI9RykKx+xRKwtPzSFYKBaXRzYEUs1tNnhgaKPdt0Gy4j9o0mIAA6joDoUkC/3vffB4KDoy27FopQ+v0SIbotjqzJ3NbXF5bffgNq1QJGjuTVZBW4RPFDlsts4Xr1uzCHrvo3fYqFaLYo1VF47pivkqU37V9M0+SsAtrzxHh2q7TaEVUk0XK7ZOc0tK7SXej7uBYLvRA9n7f6BSHhgRi31BoMpWYBYMATc8C+LY45uM3o6Dyt9cq0wc0HV3H1rlJGWjmXhmL1pA+xRYhjDedYjGGIvHMehoLVre+V63z36Y3Sf7d5Zau7jqPOsEz+KuhS+zPMFwOP/aLdCa3C383vi2chj/GFGJyUyhczK9OgTDtcvnMOV8TLFkOROjBdtA58NTRSEtsHu/1D3tFDX0Pjv4i9JkiOuHWEJnhdoEuXLtF5eBOCAW607rKD2rNnj/RVrSWEJNPIPHnyRIpdujGwDjoFX6I6MorMwEDljegEW7aEhRZZBrAxgOzoUZZ0gkXdhu4Jo0ZZxbD4LjpHn8WL6e+/6dgmrbNiWMXeNdbnRP9NYatakGnBVUUuMzX8+KPVOly/PnR9+sDt7FnrupcUS3gwIm+cgF6ITqLeVEt2TkUq3zSoXLSufG8Prbm+3v74vPWveBR4T/qNBoc9w7T1o6RQblu1BzrX6iuEsTWBPF9p/NOjfKEaWLYrtsWQlmWd3hNmza3BJUyX9oiT5hFtkWebmSPNWLR9khygeBkSTm1XpVh9dKr5KRbtmIylu2fgf6u/Rb5sRTD0vXHIks46WFUJ8EuLCoVqYql9m73xtmgzD2uwo4ZGCsLrmTm2aS1V+yNmsQkNDY1+r6HxXyc+TZQorZQAmuB1EVf8bW/cuCEFLgsFMF0MLb205jKNBvOo2gdKJKojy5IFFqXYhYQ+sz17Qker6unTNKdK8SlThBEGqL3zDnRCsFomTLAGuTlCHFe3bx90dI8YMgTw94eF1mLi5YWojz+Wf1qaNIk+hoUp2YRgl38zu4M4BpiTlz7EQuxGOXA0f5lgZTWdT2roM+RWlgAPnt3B5mMr0aHGJ/K9oxtMteayoMHQdmNx7vpxfD6lE/65dwH9Wv6AasUbyfXcl22rtm/Dcu/h3I1jcjtbOD1vPLHO+iaFbuj/KqbTm2B4Sw1wtJ6rVXtnw987QIjZGBeihKDoZdusPTNDph77oN5AeIhBhyMaiTa7eOs0rt27pCwR7e/mLtOSmU5rbg0aKQ+DnZlujDD7D93gGNisofFfJT4hy8EfA96ZFYsz5Oqz1H77+PaPD03wphCsGsYsDCw1zITJzLmbotCntlu32MKIVt7p04Fx42TFM12OHDKHrrQGBwRA9JjAiBHQ8buULAmLELa09ka/mEpMiFjLtGmwjB1rFa4UrRS0/BwGxTH7Ai82+vgqgpcZG8Byy9yG5TTpR9yggaz0plu+HDp+z5cQ9eYwnVwPQ8Fq8m+VeVv+QMl8FfFWdmv0v6PBiO3NdePBFfnv45B7yC6Ec96s1kAqbmO/L628pfO/i+W7Y6p4EUOBajDfvQCLMdx6jhXsb2L6NdE9hsF+W7dulbMHDAhUU9/914mKCJXBYoboYhM6aWH/+/ASdKj5qbIsLrbn8VHgfVn8I8A3DSrlbIIrd85Gt6Ej0qbKiDL5K2PlvtnKEiv6IrVh/ucIWJJaxb692Fkza8tYcU8NHjxYVgj64osv8Mcff8gIZFrtNDTs4XWzePFi+ff58+exYcOGWBU6NTT+a6jPSpbIptsn31NLscAS07gyOxbdRFW4nrPlCxYskM9ER8/phNAEbwpBB2tmZ6AlmLkJn1vUqisN7Mg3lqMkpkoTD13Q4svX+PHWUsSOcOVz7Lax0DWCD/OrV60lil8yeHNYwgJhvn8ZHgWqKkutwWanhYihS0J82ApZlhz+bfkwVHu7IUZ2mIITl/dLlwYS3w1IiyEtwncfx+Ty1WcvAjcPb5ivxrg12H7OxYsXpQ943bp1Za39lmKAw2DHVq1ayYwfzAwydOhQmQnjv4z5wi64B2SCPnNM3up5WybgrWxFUSBH/IGP6nk8L8TyDws+k2nLejcZLv15C71REr8uHoQ7j6w5tu1FK2n8TgecvHoQt5VtiCFnCbFxVHS2BosQvurnMPPIsGHDUL16dXTo0EEK3V9++UUKX1rr+vTpg7Zt28rML/Txt+3IHX2+xusFs/8wp21gYCD27dsny64zeEdD478E+zqWXVcNNkxR+t133+Gvv/6S7yl0+exjFqdDhw7JgaAK95k1a5asXkujT2LRBO/rAgU4/XkZoEaLMF8UvNmzKxskHx2tyO+8Iy294qpWlr5cGM9th87LH+4Z8yhLWGRiHOqUbom0/hniFR4UNeHGUJmPd/2hxehcuy+aVeqCfEK0ftzoS7HsL6za6zjHM49JP9ES+Spg2e4Z6lL5X0PReog4tgrGS3theXZXfg7zFw8fPlwOoBgwyZEvOwCOaFmwhAGUly9fxt69e+WNT+HLyn/cJqX4NwWY/WcbT2+E/s3yyjvRId48ieNX9qFDzfjdT1TYVqOXDkWxPGUxuO2Y6GDCbnUHoOAbxfHjwv549OxetGi1JWOabHg7zzs2/tfic3RuMBSuifAt/0Poul+hg9WvndPRFLIjR47EsWPH5ICXpYT53TJmzCj9+IsWLSqn6WipHzBggBy0sKoQcfT5Gq8XJUqUkG5wvN9Pnz6N8uVjrnkNjVcdtZ9mX8e0Y3TbIczKwGxONBoSWnBp1GH5bEIhzLL6fOYxqI0DQVZcS8pM2WtVeOK9997DHLVKmcZrSfC8fjKPq/e7H8j320+sxV87pmB0jwUw6K03nCPuPL6OyWt/RHBYIHo0+AJvZi2orLFy8Px2/G/VSHSp3T9en9JbD/+Ract+eH+GFNe0FIYfWAzjup9h8fRDQK9ZOHsrVFoG/2YwoSBXrlzSL5w3OIMdOeplmjtW/2N5Zk4FcYRMKLC+/fZbNKG/tYAdTHKEFMX1tGnTpB9VonJGJ5GwsDCZvJ6/WYUBhoGTOsDvvTFwV3yueQ4ZcNaumtW/3BF0A5m9+TfsPr0BLSu/j9qlrIViiHpeLOL8j/5rKO4/vY2vO/4BXzEQsufmgysYOfcT0WbTRZtlROTdiwgRQjfg0XGYvDPB1G4SBg//Ab///rvcnhY5WuHVnNsUwfx7/fr1cpr61KlTsvDM/PnzZcfOTn7IkCHSMqzx/OH1nClTJjkAeRnhg53XB+9zWr0KFozdz7yMcIaJg7wPP/xQWaKh4RgO+Pnc4qwXZ7to1GGZb6Z9pbAdM2aMnOFgUD+h8M2WLZvchvtyxpPQVYyJBGxTwLrCa2Xh1aworx+21j/pznD7LDwKW1PCyTRku6ahTdWP4ohd2/2OXtqL7+d/Bj+vVPiq/fg4YpewDG2nWp9h+obRQvzuUJbGJlv6XNJHmC4RkqCHMO6diwBfAwK8DdixZScaNWokxa6Xl5esNkNfUFaHYh1xiiOmeqOLAwMh2TksW7YM48aNkw9xWoXYQbDMNUnu9c7p1W+GDceZI1dxfP+F5/o6cfAiZs+cF11+W4UBhm5iMKCKXQrYe09uoXklB1UDFR4G3pO5ko9f3o/Pmn8XS+wSq9il6HVDn+YjZeYNbm+OtE6x2bZ99gx5pCV4pWK9dxf7RN48JQ4CBEcZ8PEnfaPFLqspssgMRQvdGpiHmqipdvieQaz05WUubm5DfzVa89m+Krafr/F6Ubt2bezYsUNeo6+C2NXQSAwMwly0aJGcjVyxYoU0SBLbtK+q2KUFl887xkYNGjRIJgVQ3cDo2pAUI8xrZeHllCJHo6rpXMM1aHl71QKkKBp8fLxhMMS0tXQdOLIS/t2sgnDh9kk4ffUwRnSZLN+rWMWQVSyu3DsHaw8sQNW3G8pKXjFiybGY5LZMZ9W/5U9SKNnDyP/RS4bgl+7z4OHmjoiDf8F7xwTsvB6CTsvv4ta9h/I6pe+naiUkFEYMhmRnwE7D/jvQyvv1119LwcWOYMqUKbJ8dXJgp9S0cQssmbJTfP5z9MkWP4Op3Pp82QlfDB8gXTTED6QyRfCCgXAXAwzvKt1kGrIBk9qh4TvtUbNkU4ftcO7Gcfy59kdpjf2owRCkD8isrImLun+YMRTfzf1UZt/o1+J7IVDdYx37n7sXhCAehMFtfkWYWJ476D4iVn+H3nMOYtaRh7IQDQcfdCux9d3nFFzevHnlAIU5uIntcZl2ir68qnWX7ffNN9/IvzWeDy+7hZdwNodBz6+K1V+z8Gq4CmcLT5w4IQf9jEmhlZZuPLt27ZICmM89FQrenj17SjcxzpwxLoIWXj4HKYB5D7MwmKPnQHy8VoKXcPqQU0UarjN2zGhcOXMMfmK0xYtFvcAcXWgvwzr+e+/+QzRv3yXWgy14bl+4v1EC3pU74+GzuxgytQsGtPoJ+R0EPtFfd8bGsTh+aa+cOmdKK+LoO9izeMef2HRkOQa1/hV5bKzB6r6/LfsKkVFRQpCnxgf1BuD+ukmo/8EAHL8TKiv2cQRsH6zCAQcf1KrgdQS34UOH/qQUXvQFTGyHYAsFb7OmLbFh/glEMJPEc4Lp3vh9P+zfAoO+6mMVvAJa5AMnd1TcGfJg2a4ZOHB+m3QJcQTP+V87p+KdgtXRvnqvBF1U7GEBimEzP0LebIVkYJs9o/4aLH2Hs2d8E1+99xsmfvs5en5tnV7j+e7EUtt2OBK8jqAfNvslQos+t9d4PrzsgpezKkxpyYc8A1WTiqN7Pqn9gDM0wavhCrbXHw0ErG/AAH+6zo0fP17ObPz222/SNY/QyENRXLJkSaRPn166hNEVgm5hjIGg3+/AgQOlFdhVXiuXBp642bNnSysYYQNoOOfCiSNoktcL7Qr5oFV+T7Qu4BXrX9vXy7CuQ2Ef1M3jJX2FVKKCHsD84Cq8itaW7+nfyTRkqti1vRau3buI4bN74cb9y/jivXHRYpe48sBoVeVDWbzi178G4fp9mzyuYt+oqEi4uelx/PYO7Du9HqaocPyy8YIUuwxaoYtCUiOzaWmcPn26FF9MYN+rVy8ZGJCsh5w4LxER4c/3JcR0uPiXfre2GM9ugc43rRS7DwPvY82BBbKwB7FtL5Zypn/1XzunoF3VHjILQ2LELgkQn/Nl+99x5c55/G/Vt8pSK+dvnpBiN9wtULRXqMyzPWKCNRaA7gyOxG5ioD+aatn9+OOPcf/+ffm3xuvHgQMHpMWLA19XcfYcU2fnnofY1dBwFfX6Yz9P1ztVqNKN7fHjx/K5d/jw4ejrmTOVHPxxhpnP8q5du8pltAZzW2ZvuHbtmtzWVV4rCy8fJsWLF5cWFZ5Ylr3VcM6QPj3Qv3ImZEgfIHpPm/LGLyueBpw6fxObQnPIVFAk/NBSGI+tRqoPpuH8jeNCjA7GT+/PlPlWWUFNLSpx4Nw2zNo4FgVzlkTX2v3g4+UnlyeFaet/xdHLezG07VhkSWcVsQxcYxBUSNQT+Hr4o7h3A/T84FN4eHpi186dKFOmjLzh7R9Orlh41f3YEfA4ly5dkmLq+++/V7ZIHNLC26QFVs08+FwtvKIbkhbeXoPbYciwz6ItvCHz+8EtqzXAcPyKbxApBgt9mo2U61TuPL6BP9f+gJDwYHxYbxDyKpXYEot6DTAF2ffz+6Bs/qroVMt67dBneMySobgZeAlpvTPi8mqjtNjS+qDmTXWEqxZewrYrV66ctJb17t1bWjo0Up6X3cLLBzstXrReJZY1a9bg+PHj+PTTT2WQz5kzZ2QeU1qNGcjK37xT9DGMkOfgmH0K/crpI5kcNAuvRnKgaxcD0nhNshpt2rRp5XL1eUajDUUvrbxcxpRmdEulUYeimVkeXOW1svDyxPKmpMmc4lfDdULDTTCFGYWwePlfUeIVZoztc8zqWF5KyeB5WyegTqkWUuwSVez+tWMqpgqRWr1EE/Rq/HWSxS5vSsLUV29lK4JfF3+OwFBrLkEGrtFPNFuqN/Hk6RP89NPPcvkXQ4dKkUqSaolR9+NAjlNGhMKJ6cySR8qNie1rpVuJe/yokCcw3ToD7xKNcfHOORy/vC9OVoYTVw7ixwWfwcfTD4PbjE6y2CXqNZA13RuyfXaeWh+dW5kZNQa2/gXvFm6Iq+duSvEaEBAQHTGcXNSOnf68hC4St27dkn9rvD7wOmCgWlLELrO1cFqYWYj4nCOcAiacNuag986dO7JvYAYIin76/au5TzU0/g14zXNwRjHLPtVe7BJer1xPuCxDhgxyW86EUOyqz1tXeK0Erzq1w6j3bdu2ydRAGv996M4Q+fAaPIrVw/Yzm/Ak+BGaVowJ6AoOD8Rvy77G1uOrhEjtn2AGAFfgTanehL2aDJPW3R8X9IPRHIGnwY+RO3N+DO82Aeki8uLaxZvIkzuP9Ekiibl5HaHuzzLWzAhAx38KqJcBil26GngYPOP9nepy08XdMKTLCYhByZyN41CjZFNkTJ1VriOr9s3D+JXf4J2CNTCg1c+yml1KkSdLQWlJ/vvQYqw7sAiT1/4g2i4cH9YZAuNV6yDogw8+QM6c4vulAGrHTqHTtGlTGdhBy5zG64V6Hagkpi/w9PSUaZ441as+53g9MV6FWUN4rJMnT8qAWAbD0QpcrFixJIlrDY2Uwv6aV4lvuSMSs+1rJXjVE8Mov1GjRsnpXs2S4pzojtf160rC852YXdwSceGSeG8W5V8V45kt8MyUD/D2x+KtE9C8Yhfo3Q1y3dW752WE/oNndzC03ViUK5D0QBFb1O/mpnND3+bfwdvTB3+sGI4Jq0Zg24nV8NT54tll63nt/lH3aH+mxNy8jrDdnz68hJVpVKtP0kjedyL8XuHhYfjih144eEyIWZvsGY5+s/HEOvgWb4j9/xzCQ9E2zUSbEQYTTl7zA9bun48ONXonmIs3ORTJVRofN/oK87dNwL7LG3Dq2kE5hXb6yEU5nUZ/sueBOi3MXMsM2niRJEZgaTxf2Bau9gXclj6/9HfkoFL1hacljPA6Yoli9T2h2xPTGHIfDY3XhddK8NrCIhSsZMO0FxoJE93xuvg85HPTy0MPH2+rqHFlN18vDyEKrSLUGfw+vj5e8DQwfZSy0AZ1kTp9bjq/A95FamPx/gVI45tOphgjzOnK6PscGfNgSNsx0t0gpeHDiOK6f4sfcenOGZy7fwin/jkoq6mxyhanZphu5XnAKG+6SXBqk1XZko6LDZ8A3l6+2H9kJxYsn4YDR3fCw0bw2gotWqpgCYcu8D6M2Yti0ebxsnCEp8FLlgGmpfzKnXMY2PpnVClqTTr+vIQaXSWi9Ca4ubvhyJVdMqCQ7iH0yVUjiVOa+vXrSyscA+PoF/m8oc8c81tSJKn3OX/jixbbGjFs3rxZ5ml2FbXd6Oto244qTFHI5P0MilVh38OpYqZA09B4mXHUvye1z39tBS9hwn4Gr9GakhjsT7az968Tbm46+Pl54f7TECzYchRPQ8Khd+i3aUUvxISvr7cQgXfx//bOAz6qYvvjJxACCQJKUeldwAcKiiCKDVBBBQVF4aFYnoLo04cNLCAIKvaC/lVEnr0rFlSwooIKCiigPhuIgl2K9ITA/uc7uxNvLltukk2ySc7381nI3ra3zD3zmzNnzjw7Z4n9Hs+vUbWKEdJZVeW9z76Td8wnIz32sa14km2S/tevstqI2bfmPyFDI6P8X/zgYXn4jTuMaDpGzutb+HjdRLjKh7RXTGHL/fn658Xy1PTHbCA+jS4qo+ICAQWE8BSeeE8kMdyDyua5vjgrHEJ0QMeDfe/I38e3nu5v5krmrg3k9R8XSRWz3REd+8qXPyySm569zDSKqluxS9iBw1/BJ4u1G/6QlnU7SGaolny2bJ48MT0cGsLMd5Ds99wdzx2fGbeKGxqFTHrx/PPP2++MgL7gggusEFZKh2nTpuVNZlIQeJbhd+3vhPwMXGUwGwMhvZCy0IUzVOT6Skl9KNM4bXACkM3h11/DU/AXhgoteAncv++++2TUqFF5MzwFefm52W6mEPcdaDWTJqOwD6Oswh1DyDkv7SsffCEDJjwiQ296WtZs2CxVoohSK3SNcOV+T3ttnvS6fKqMefB1s23lqPcPoVu9ejV7vAkPvyFHjJoi02YtkIw4XmE7wciyOZJRr7k8sfhlOaDVwdKyflu5Y/oYm7N1RN8xcvJhJTOyeNv2HBsb3KZeZ8nevkUeenqqvU7v5BLFgcvpGkQ8xS77RasQq2ZUk2UrvpaZb0+XAzp1t5/8WR/Cx+f38SymfTNHVu/ZWt5c9IKc1utCeWPhdLl9+lXStW0PGX3KrVKn5h52++LmwL17yjVD77MxwkN7jJT58+bb5S6LRLLfc3c8ZtuCDz/80P4flMIIF36TzDVXXnml/T5hwgTZfffdCzTyWUkeJOV/6qmn7Ps6e/bsyNL4uOeOveNvN7ESvUjE8JKdgZScDrI3LF++3M7qCMkux0rFpiB2KN62LjQH6KF88803bbml/BaWCi14gcE9pBdyqVmCvvwYE1Je/fjjj/Y7MZLnnnuujY2qSFBcMzOqmAqyqnz/6xq56N4Z0m/8QzLvfz/Kge2aSr1au8j27fnzq1bPzLACdsHXK+XUG5+Ws297Tn5bu1GO2Lel9VK4l4B/eR4IXSZqePXDL+T4cQ/LuEffNNuIdG/fTEIxsurxFBm8kfbtHPkqa1f5/vfvZJ8WXWX8oyOMaP7Dxut2anVQeONihpRXTXZvZcT1MLnwhGvkmtOmyOY/c+11koqqOGnfvr0dBUuKLO/0jdHwl/2CGK5YcAzSzbz30Rv2+4Bjhki1qpnGmO3sQaSY/L5imcialTJj9QqpX2tPWfjtXHnpw4dtirhBhw+PbFn8eK+9VYO9pU/nUyS0Nd2ODOaeBsEJDxdaExSOz7NYtWpVZEkw2Ifk7XSJFwSmsEbgMjMfOYCjzfCVjLKgJIa0ZLyvpOnz5hGPB8+dZPwk5WdgGrNY8a5PmTLFTmJDWjIGrs2fH26wuYltSJmXimhZK5u450Z5xHHBNMD0oKOVGP9AA86VaXQS3lq2ZTvCcdiOemrevHm27sZuulhzdBbHJFsDjkrEMLZqwYIFVgQ7SJFHLxXLopWjcp+Hl0TeLok34jZabBTGAeFBAD/Gnq7matWq2YcRD7qiyel72mmnyaxZs2w8MK0P9i2rcC8ofC49CJCHd8QBtaVBnZqSk/u3UOH+EF6wbv0mefa9JXLTs+/Jdz+vll2MoB1+zIFyYf+DZXcEb6SlVtkU4Gpm3UojjB+Y9YncMX2urN+8VZrU21UuOelQObVnJ8mqmpG3fUZ6ZalixPTi734y286Rh95caJd33quRXDHoCDlq/73sQDd/wcbLPP+rVfL6qioyvtNGmbB+o6yplCbpZrO9GrW3YQ3EhJYmlDfKCt0zVHBBcKlbMAoFgThefotPkyZNIkujw6QsGJYBAwbYNEZH9jy6yHl4K1dOl/5ndJeVP38v707/n2nA1PAJ3jSpYir40y46WcYcU1/23mO9jN2wTrIqZ0iD2k3sRBJN9yj5yjm0baukRcoJXcN4yVq0aGFtSqIuf2wA95t4XEIU3njjDZsxIxGIZGJoCXWhocB+GPhEjRUg/RTTEzM9J1k/SL2Y6Hk7SF9HaAOp1i6++GK7jHJAGUhWNopUINXz8CICiLnFBjPoFG87YOPi1Uf0UBK6AJQbnC9U/jSASEVG5g8ygCByaRBRd7Vt29Zu70j0G7Eojjy8a9eutd5u3rOCNhiVkoPng63r0uWAfAORGRfA7JHkjadcIGIpo2iriy66yOaSR7CindBQPXv2tEKV/Sj7jD8h6wgzDiJ6KQt8p9xSTlu2bGkbcSQgQCjTM8WcC4Tu0cvOGAuSEvgp94KXG0vIAnFNTLMaK/8u3YfcfLwdiJCxY8dawxEP4qKoEIh/47i0YqZOnRpZW3gKa3iSAZ5qUi6R0orZUODKkSPk3M67SYO6RvBGJp5gUFrlKukyZ/EyufW59+Wlj8LdDMd1bSeXDTxUDu3Qwn4nLy5kVQt3tz03Z6nc9Mx7svDbsPdq+LFd5YLjD5Z/tKgv27flypbsbTbeM7NaVVm/cYs8/OYCuf7J2fLr2g2y2y6ZctGA7nJ2n65Sv14tyTHbbvMIcEeWEbxvLflB5s+ZJ8f1aSCj/vxdmu3aQE7sfqYc1bFfZKuShbyyuSuXSEbbw2xiebqRefmvueYaK1QoO7GgLLCeVEJ44hAniJFEsB8fDAPGBjFL44/fdbCe1jJGBUGN2GE2Qrq4EeVXXTFWXnpwfqEFb1Zmdfnok3dl8Iij5J8DzpYbxtwnGzdtiKwNwzkw+9y/LjlFLm+zXJbuXVvezw1J/86nyOk9RkgVs640yF25VHK+eFOyjj5P5sz9xM77jlhy0zXHA3uDIaYhjFHGoAcRrVTuPFu6tEnGTjkhrtnbvRcL7BWNITcxSevWra09w64lClFAIJMHmMoJzyACiTEOeJlpMBV1coJUIZUFr7P7xNdSdrDB3rqAMkDFz/vrlgF/IzzYludMuQHGMLDOfedvPpRNygrlkf1oZDF4zWWKKSjFIXiZIOPCi8+XKjUJf0s8mBlNnL3Z1B/rt0nN3TNtD18QYcN+63/fIlUy0yWzRhVzjyMr4lCpcppsXB2+p7vUrhponzTzO9u2bJfNf+VIzXrVzHccNZGVMeAR79gekr9+3SyZtTICnR/7UA7W/75VMmtWkapZ6YGvacv6HHOOuVKjXthWBDm/zZvMuaXVkpemz8iXBYR42yFDhlibQpnjvUO8opUod7yDTCCB3cFRSGOMSXy6dOliG3k01HBAEs8+ZswYK4pZh22k7JJSj8Y9vRlk3GJiFcrhwQcfbL2+/Abr/ZR7wVsQCFFgsAAPjhhdWifxIKaEaUURvYgDxMIpp5xiKx1aKzwgEokXBrqheOm9Bq+4oRuNljWGC4GFl4AC+cDkm8OCN+LhJf52zYYtMuW1+VbsbtySLW0a1ZNLTjxEBh3RUWpUN0Y3O8cY0/CbRlzusl9Wy23Pz5EHZn5sl/Xo2FL+07+7HNelnTE65mXL2WZezHBRrGIM8kf/+0FueOZdmfVJOHn60F77yXl9u0nXfzSzwjjbCG/uTTSqmhdi0Ter5L13psuaw5rKpqoNZESfUdK2+QFYEAntiC0ui4O0yhmybdXnsunxC2S3zn3lg23NpM+gs6yoKCkQUognxLXXO0nZoiLF+4ghoSuIBh8gmLhVbzy1pFCCl2PvUr2GXHz1WfLsjIfl8XtmSfeuPWXTZn+KNFNhhyrJXbedJa2aLpYfmtaVI+t2Mo2nwea8mRFqqw0LKan3wGIq2dwVCyVr4aMijTvKtC93yNnXT4usDA7nHKucJqIo+zrIRkNl48IrosGAEOKGiffE+8JYBGwX3hJG8mMDWOa8jWWZVPfwAr2Q69ev3yl7C04ZhAEeMMSst2zw7vJxy6jwnbB1y+gm5sO+vPPYeMRwgwYN7G8WNvNIcQhevNWjbh0uR45oL1s2Jm7cZ1RLl5VLV8sX7/wkPYfvzcsT6N1hv7enfCkN2+0q7Q5vYEVzIqrtUkU+fOJbm72l68CWkrN5W0JxXaVqZfn5q3WyZNaPcvjZ7ez3RNIrvUolK5Bn3bFE2h/ZWNodxvnln1DJD+e0PWe7zH7gf/KPHg2lyT51JNuI2ERwTV+ae8c5HnZWWxsqmOj8KqdXkm1bt8sbd34uH72x2JYjB6E1TH7E+4bIRYROmjTJCmF6MPDQAo5CHJK9evWyegonIg0v9iXsxoVYkZecRiAaBVvG/pRZerMQw/RcUHdRz1HGGZB5yCGH2N/wooI3Ap5NBhC59E10R/q7fPzgFeOm4hGlJUKrhBY2A+FovWAE8Pji4SkotPLd4JXSpHnz5tKhZSOZPPTgPMGbUaWyDJz4mPXq1qmZJSOOPVCGHrm/tG68u2wzwhUx6rQJYvfn1etl4LWPyQIjQvdusruc3+8gOemQDrK7Od7WLTmSa4yvkzLE977z6TI5ceKjsm7jFjm0Q3P5zwnd5ejOe9lY3s2bED/xqVI5XX42DYbxn800lVsNGVGjsTTZvaUw/Sz7OiHhFxROUCV7Hd9C2ZtFVi6WWqbV/d73OXLstC9kS25ImjRqaCsm7z7RYD1dNbzQdDEn2t7B7xMj5WLMEb1eTyPH4fcRMzTw7rnnHjv1KN7Mfv36ybSpD8qMhz82gjexd9IPXVyr1/wuvQbuI3vUayCvPv6Jfc5MEexnx45KMnnKcPnNCN4z9mghfXfZQ7aa7XK35+bd3xLF/OaOLesl469VkrVrhjy3aL3884lvpEHDhjLEiEjuW7xngGHGBmALCIM444wzAoU08CwQIeROpmHCpCHNmjXL98xi4WZ/w0OL7aIBTjdgopAZMnnQyOe36NWh4iD2DmjMX3XVVXLTTTfZHoCyTlkQvDQuELw4U7zQeGFAGx57ype34VpYEAc0gkePHm0FRmEoDsH7+uuvy9h7z5d+V3a0oi8RGVnpsvyT32Xhyyvk+Cv3C9vdANKG/V6etEia7ltXOh3XVLZujC8oAW/rm//3uRV8R5zTLrxPgp/KyEyXHxb/KfOfXSbHXdbJfDeCd3v8ndIzKsnGtdny7JiP5YD+zaXjseb8NiQQvOaccrO3yys3fSr79WsmLbvuIdkBr2mRuXc/fPanOb+OpmwZ+5bg/Cqb88sxDYS3bv1OXn3s3Xw6hymu8bxixxCyzACIfUG4Yl+wicTz0phm7AC9lwhYBDANMuohnIiEdDFRGD1V2EHXiNtrr73sLIE4KOklxd4R54sGozeN8KxoqOCNgIEh6J/WCK0TBGyQ5PLDhw+3D5PR8OyLEaJyopVy8sknWyPg0gwVBLquCKugJV5SMUz8DudOjJczhBjXTX+skrF99soLaSC2dtcB42Rz9jYZdHhH+b9/Hy+1G9WTHCNs/SEGDGj7dNlP0vnf4TQ7E04/SsYO6UmgrWxdtykvXtdRvUaWPPDyh3LOHc/bWNz7/3OinNq3m7HMubLZCOAgQq9alXT5fOWvcv7C9+WRs0ZK8+3psiVnU2RtKZBmBO3GP6TSomdlu1SWPxt0k4PHPkMTWeZ9+IFtGdNV4xfL4MQe63nhSSCP8HXdmmwfbz+eKbHreOuomOgKiseDDz5oB8AQBkHoBTG8hQ1pqJ5VQ555+UG57Jpz5Mr/3CDnnTFK1m/8K7L2bzjXSua+XHrD6dK2Zx25cfgkkU0bTEPINJzymkIlS1qVqpLz5WypNPsOSWvTQ77ZtbN0HzjMGNZ2Mm9esJzGPCeeGYLSxVcGAVu077772r/xvmLgg8LskTxrKoEgDW28JnhYEMdt2rSxA0QQzXRFMvUsYQ1UTm6q6rJOWRW8OGAYzIgHHiEByRC8YN+/ItQxxSV4r5w8Qnpf3MF2tScCQbli0R+yeOaP0ufifcMhA0EEr9lv5u2LpVH72rLP0U0ke1MAcVgzw3pQK6enSffT2gTap0q1yrLq8zWy8KUVctQFHSTDfA/i4d20Llteum6RdDRivMNRjROKV0ITcnN2yOuTl8q+fZpI8/3rmvNL7OElXGLxrJXWS875IcYT3b/K5vxytuTK+/+3QmY+9V4+e4OYpbFPWaUBT1gCsb44Cc866yw7+JewOYQrZZtGNVmv6NVgO7zAOGiuvfZaO56IkDxCfDgWjT08vIToESaBbsMJhG6jzsJJh8eXes+PCl4fhCMQI8kNdIM34sFDItYEr4p74alEMAK0ZvCMeGNbguBETGlAdxmVNN1bdCUQPD72kn/LOZ1q5nl4ybBw7RNvy6SnZ1sB3KNjKxnZ/2A5pkvbsIcqZ5sxxmEhy0A14ngvm/qqPPjGAruMwWnE7XZp18S0IneY7XNlR0SwERv81co/5Ly7XpD3l34vtapXk+HHdJVzjztQmjesGwlnIMOB3TwqCGW8yc/8UlVuvu7myNLShamNN798rWR2HSjp/zjKDoAibAZRxMsfBLbDi0cLuSDsv//+tisJIcuzjQcGiUEuwLtwfN/+eYPWmCyCAWhAiIEXhKkNO3D/p1Wyhunks3vIRwveldnTv5BG9Zuadks0g51mtz1v1CAZM/FSGyObCuT+/JVsWzZPMrufZspnmvVw0sUfNHsCHgfsSEEFLx559sOoIyS4N0Fh0JN3wGkivLbGb3cYqEdlREw3FQ+CuKxTVgUvHrC7777b2gzXHZxsClvvlJjgNSYnzQg6PJ+cZ27O9jwvqQreMKkieAnXYywBseFogu+//96OS0CI0nsIeG9x3NCgZnAtvUmNGjWy21PHoUGwP5QthDHb4JDj2WOHCb0jZBR7zO/RKKdXku/8FtlI/JSM67AMgTHBq0FXYBBodeOCP+igv1Nc0RrB28sDLEzLuTBGJ1kQ10WrjFmlELtumZdt27fbLAkvjjvdpgZjAoh+4x6WYXdMly9W/GpEaxUbmgCEK9TIqiq3n9tX/nvxQGlRv7Y89van0vuqaTLuoTfkl7UbhJRmCF1ery3ZudK2cT154orBMvH0o6xRIPvDMWP+K1NnfGS9yllZ1WyoRLzXkXvYsnHxVAyFoVKNupJ10nVW7ALClcaFG2CUCDzuVEh4/AsCLWKEC63mRB4/ju/ELvh/i9jbtev+lLV/rZZ1f63J93HL3P+bzbbzFrxnxW7vI06Qpo1a2vCEeJRmuY9Gev29JPOQM6hl7XtMwxUxGnQ6cp4ZFPSZUSYw7ISZFETs8vwKInbBe8+9f/P7jIimAqFSosGklA5U4ITG0fVbXGIXUu3984OItSJwbbYdaGaKu1kYXqekDtgheiLJUIN4BbyuDHx1YhcI2WSwGdtRHxKWQPgVYaEunhzBTChP586drT0k7AZRTO8zYhfbynf2xV6hvXA4xspvr4LXBw8L6GZ2f8eDligPzDtFI6Oa7733XptaCI9CWYKCimeBAhWL7UaEcmv6HLS3PHvVqTLprN42g8J/X/9Eel85Te58Ya78tmaDjbnFHuVsy7WTUpx5TBd5ZcKZdvDZ2g1bZMLjb0m/qx+yM7Lh5d3FCF+a8fzdsE4tGfPPnjLz+rNs5ge8vsPunC5DbnhSZi/61s7elmWEdbxHRKWdEpiTTKtaXSrX/HvQD2UGSHFVnNBFjbeIihLRG49YFR7LMzKqyl3TJskJZ3SXU8/rLaeO8H3cssj/g4b3khGjTrH79+s9yHqHY79PkeXm5wsqDosVhlZ7IKaMxh+DSSGIfSgMxKEBRr4gJFOw4J0mLIIPIprRz0rpQHgdtsw/W1pZxv/uBHmX8Cj+sHi1vHP/l/LWfV/YmF0y+qS4Tq9wlGTDyTkU+U3if/EEY6dpHEZDBa8P78MK8uBwndNScduS5eC1116zXU90CdNyKUtE80jnGaPI7eA/Ym83G9G6Z+0acvngHjL75mFyWs/9ZNWff8nIe1+2E0S89tGXNk8uxyQMYcuWbGnXdA+5+/wTZOZ1Z9lMDQu//UkGT3pCzrjlGTsRBd5hIAyCfQ5u31yeGTNEpl50orRtvLvMmPc/OfLyB+SS+1+RH35fK9FmcUv81EqYKOXIec+JQypOZs6caf93v1cozOlXMuLvj9W/yY8/fS8/rFouP/zk+7hlkf+ZWW3Dxr+kS6fucuiBvWTTltgx1CVpIItCjx497P+kGoPiOm8GDUJhYv+TBd2MzMRFQ54YufIwYK0sQg8NsZDUMYQmlVX8gpZ3h94SBna67/FA7G7dmCMLXlhuu+3rNK5uQx12EDpXRuyHUrzgASZul5kw6RmL1ohSwVtEiPP1try50Qw0wcNLzBuDvsorFCeE6dat22Tflg1l2sUnyZNXDJb2zfaU+Ua8nm5E7O9/bcoTpYQnbDKiNyc3V3p3bSfPjjlVbh12nOy5Ww2bn3fUA6+Z+/f31MK5xpht3pxtvblnH9dNXp14powcwPzvIbnjhblyz4yPpGpEIJc1yIdLWSHVkEsDVhw48cTI1cKC4cjZli3DTrtYHrn7Vbn/1ucSfqbe9rw8cPsLMmH0ZMmslmWeZeI4t1SHsCW66GjQMjlEcUB2BDLFEH6Cp6K04Drx6pK1oaBhEkryYCQ6wpCUmWUZbDq9Iwy+5QPEKuOJw2nkiOXpReSSDeGPFRtkr4PrS++R+0qb7vUDxZoqFZNojSgVvEWESpDKyb2ohAQwwAADxchD4lFivcRlhbyCE+My8PYiZAl1GHTk/vLiuKF2gojaNbJksxHE/pH2CNlNm7ZKzaxqcvHAQ+UVI2T7HtjO3idGHnu35icZKLdp4xYb/3vz2cfa7fdr1dCIbUTUzidVFu52/fr17WAmBokxKCiZuPJG1zghE3TzuNkGCwXPZcd2ade6gxxxcG85pGuvQJ/Duh0te7XcW7bmbN2pDHgpK68H95HYMHJkP/HEE3ZZst9tUvAgDAYPHpwwD7hSfmFcCJAtgwGuffr0sd9TgcKWeUbe8/7QiCKDEYOM6IFi0DeTDzCwKZand3tuSHapXU0a7r2bzH9umXz1/s9SfbeqNg2XogRFS0uS8L6oeEcYZe2I9RKXN6zw3bBFWjaqK5PO6iNPX/lPqVeretTZ0GArYQ5GEO/ftrE8fNkpcsuwY822O/IyNvjZaLZlXW8jjl8cP1T+3a+bnZmtrEL+ZqAiCJKjNSiuvDGqG4jJpiFWFBCsW7O3yIaN6+1MacE+62Xr1i1xxW6YMqJ4DaTKAfJE8syS8W47AcHgQjK7YD9I3aNUXHhfSQvHCHWmGE4FXHx9Ycs8gzFphNOr9d577+VlO2GEPakwCQeMxQ5TLzBZAxM9ZO5SRd68+3P5YvZPNlNCBalelSSggldJOps2Z9vY3Y4tG9gphbfHELDYKRvmYL29VaVTy4ZWNMeC7RHPmzdlS6O6tWSvRvWsV7msQrwR3htGlhInmUyIM2WqRjxFTHqgJAeeGTly8UYxoCsZOAFBXkoyd5Ayq7CzXillH/IuE7tLthziEhmlngowgQATXwChNzTOIGgmIkL/5s+fb49D2M6wYcOsfcK7SwqpTp06RbbcGaqQ7Ub0Nu5QR/pdvp807VRXPn5umWxal6NeXiUwWlJKGG93ULK7Q4uLvPMsQEuaMATCGdg3yG5kZiB/bxA4JunJGNQW7dgFOM1Sw91TRA5MmDBBFi1aZP8uLO6YeEwuuOAC+zfhNd4pHwtH8d7RstYDcv3119v/ybHtBrAVFYQEDRTyS44fPz6yVKmIEAY3e/Zsm+MdMejCG0obQm0IsSCkh4F0ZPKAvPohDmxD+igyjzDbI4MihwwZYmffoieKRiR2INaxbAzvhm3y67frpObumdK62x72Ozlwy5r9UEoPFbwBYMq7efPmRb4VDTfqNlndoSUBLfisqlWkStUM67ElxZj733347l/n/d+/zH286zIj/0dbF28//7o088nMCJ6/tDRwz37AgAHW8JN2iBAH5g6HIJWIF7Z3x8STQvc4I+yvvvpqu6xoFOxcCkpBr7W0IZ7SDSLimTFPvCPotXi3YxAcwgbwGiMIlIoLuUgJc2KCjJIYrEYPE/WSI1YZpueBdIp4nEl1SF5VCFLm/XUd+5B1glheL7HqRLI0bF6fIx889q28ftdSO4EDk0VU37VqaqUyVFIaFbwJYBDVDTfckLQYS1rvDEwhjqmssH7DRln2y2r5ftUf8o3v83Xk419emut+XPmHrPhtbV7i/1SH8kXMNzF7ZPUgVU9BG0NueyrIRx55xP7NFLF4DIsCx83KypSszOrm/13M/+bj/rcfs7yI66rzMX8Tu5rquModLyzClEkomA6TLloI+tzcdniImcKc+EWmJw8yu6NS/GzcuNE+EwaVltTHxbDyNw1gZhwkrSXi0r9tMj4clyT92B96hMjZTfmOVoZduT/llFNsvC1ln3CLwhL0PXGQjYFBavWa1ZC/ft0sNepWk07HNbUzmLnZ1hQlETq1cAI++OADWyExxV1BZj2KB6KEFjXTEZcFJl13raz4YqHUrLGLMXyRhUUAYYOxpRFBhotkzQnvIH74599+l/6nnWPn3y4LIJhOOOEE213YpUsX213unZWGe8RMX4zcjzY7G3OXI8LcdIr0IhAjVxRIr9fj8J5yy7j/xpgSODlQ9VUyZeLO+yfK9TdfI7169QqvSHGYFpryRSgKE7VcccUVMnLkSBuDCQzKYWYgPMJ4cb0gbhAad911l53JrHv37rYniZnuYokOpegEnVqYZ0Eu9ZIMJ+CZ490lleD06dNt4wePKiFKxQE9d9jiSZMm2fAEspDQWMb+xOL//u//5PLLL7cDYfkbyASzePHi4p1a2NQ7lRigVilNNq/LtgPYMrLSJXfbDrtOpxYOkypTC6cqKngTgIhgWk0XrI9Iy8rKsoNLMESFecjMIc3IWwxqWQBxikBPViWM1wKxz/TFTLzAvUw2dHPVqlVTqlXLjCxJfZjBCw8KeXnxzFJGmD2mWbNmdj3J/xG8zDPuQCBTNhHICCwaZZMnT87LJlAUGJhFyqAtm7IlIyM8VXRx8uNKYzhnzcw3TXeq4kQpjQ+88jSMgQk+yLDA4Da8v0w9Tvq5V1991doOQlb4+6GHHsoLhWB6Td4HPGYqdouXoIKX7Ajkv02WkyMIiF3ebUKceO+I78f2FleXPWKXskac/9KlS20D+bLLLos5fTEeYDzBfEgphn3CXn3yySf2fhWr4I2AoGOQGmJsRy4zfobliwreMCp446OCNwEk7KfCuuSSS+x3YiJbtWpl8wfiVSOOyQ0QCgozsNFdRYVHPtaKCAYdsUsCfzyXxUVZExB4S8aMGSNvvfWW/Y7YZcYt4t2ojGgsPP3001Zo4Vmk8URlBcTsMviNuGAo6rUzSGX16tUlFiPH71AWSkJcJxO6h2lwMPiGrnCEBKKBud0ZfITnDIFFw5ln5dIxIXCxKwgOPIkqdoufoIK3tGAQFz2K/F9SkxbRQEasuHjaWOWQXiPKMBll8ArTIOBv7BBZG0pC8MaiqIK3sRG8HQojeIcawZtAhMJOgjczcShGeoYRvGvLgOC9xwjeJ1XwlguaN29u08M4EUHi7CVLlthBJnhsmFGN1q3zwgWBCpIuzDvvvLNIM2DFhFZvMitO7/GScGwqfUblApNzTJw40f6thKFcUeYefPDBncIXEINupiIHXl8GkowePTov/3NRxVNpiq+yKvyIx2Ww0bvvvitr1qyxy7gOrscLjVzCNrAhpTmbWkWkqIKXZ8nYANco4zvvKLPReaeR5/kTthLLWxoNwpbo3cBjyixk/fr1i6wpXvjdIPHz2O06derYrC/UYQx2I/wBsYvoTabg5V0ac+95cuL4zrJ5XQDBm5Uuyz7+TRa8uEL6j90//N4lkjbGxLDfixMX2jRn+/drZjM/JCKzVoa8cddSI3grSY/he9sZ4BKN661iBO4Pn/0p855eJv0u72S+p0sogeCtjOBdky1PXzlPDjixhex3XOLzI+wjN3u7vHzDp7L/8c2l1YF7BBLkXNPCl76XFZ/+KX1HdwoL3gDnl7M5V167/kuZ9eRcFbzlAbwwTz75ZJ4wZWAJ4pbWLpA7kFirgrTGMZhM24lnOKmt+O+/F5k/X2TQoMiCQkC82LPPivgT3//wA8pKZLfdGNYraXffLSF+x3U/U6kHFCl01RG/CMSozZ07t8gTI5RHPv/8c2v4SdJODDmeQSonjDnlEs8hDSc8wPQYKKUPz4cBqYgAMmX88ssvNmQHMYTQ5ZmRmilenKRSfBRF8NKjhyefsBViWHnWxLEymQIe+ksvvdTWB/TcEQuLKGRwF2M2gghKZu8jZ/ZJJ51kQwUIdSlJ4jU0vevoifHm3i2OGF7Cfi4cf5Z0MUIPUZWI9KqV5bfv/pLlC36XAwa0CNdFAaQN+33ywnKp17SGNN+/nmzbmng8CSJ5yesrrRe5fa+Gsm1L4n0Qh3+u2CDfzvvNCuv0jMoJBTmhG4jpj576Vlp22cN6axP9VlrlNNm+bYf1JLfoXE/2bF0r8DUtX/CH/LFivTm/5uFwiwDnh7j++NkVsuC9pWWit1oFbxwQpjzE559/Pm8AER5evGnMAQ5HHXWUbYmTCioWGD4GozgwGLTkifUr9MCiaALzrbck7Z57JDR9emRBIVhpXmRzfaE5cyILIuCFxRtlrldGjJA08/shQjk4h4YNCcyNbJgYYkMxkngqEbxt27aVatWqRdYqfvAUkbmB7nJi+oj1I44crxKVt5KaIIgQu5RzBJE26kqfwgpeel3okWMacIQoXfq8izhDON5zzz1n30ky8BDmhlMEYYwIZmDiAQccEDlSbGgEETPMPoQT+VN2pSrFEcNLxpprr5souTtyJb1ygDhqUw0hIPFM4nkNDLo4d4cV84jFQBkYI/uAnfQi4D4FPj+zD/X89m0hG6oQ+PwMTNJh9zGiPPD54dU1v1eQa8remi277VpbJt852Q7cTXVU8CaALhwSwvfo0cN+R/AyMtsJVbxrjK6PNf0jMZbMLIMxxJBR6RXKw+sEbna2mBqUuSfDy3/7TYzFDf+N4DUGN/TMM6bwbjeF3RRcs4/9m339M+K4YxKj+euvIkxQgOA1QjxkztkodTFKPbzt11/j7mZkhcghh4ix/CKtW0uaMcqhoUOZgiq8XQKcp4CBWVQYeLwURVFKgsIKXmwV3noGiJIyjMlHEKV4OvmQ1YFeP7JxUB9g16knyNAxbtw4OfDAAyNHyo+zhwx6PMTY1ccee8yGJTHOAy9yWaA4BG9OTrZp6K+z90dJXXg+9F7UrVdXKqUFFPKliAreBBCvRJyu615C8BLPO3z4cPsdwcu6WB5eDCBilxlqMIB4hsl9SFc0cZp4iANhBGLIGOtKP/4oobZtRUaOlJAxsJWMocG7GrruOpG5cyVtyhQJPfmkyJ13ihxzjBWlIfKytmghaeY3d2LNGklj21WrZIcRr2mdO0ta//6ywxjqSh9/LCGMGMd5+mkREuKblre5eBG8wJ06SRq/26SJyBVXhLcLCN2DeCyDeD4URVGSQVFjeBmkhfC98cYbI0vCEOpAmjpCHOiOx6tLTwzhK6TxSgQhDO+8847NusKAVQbzVlTB6xoBStmiLDy31JfkpUwTI+YwZA5EGi18B9/psrznnnvs/3Q9M1rbTXpAhofDDz/cdlfhEQAGNPBpbcRoYNatk0o33CAh4mSM6DZWRtKMgQyRqB5P7AMPiFHWYY+tIW3GDDFW0/5d6d13UZj2751gu4ULJXThhZJGaAItaiOu06pUkR0I5EisbdrrrxNUKsIUkKbCCJnrSdtvv7DYxePbpo3dLih08apRUxQlFaHypncOW84gRAe239kt530khy3ZOAh1AwQ19QKDvPg/Fm5/Gv/0IrrZ9oojTWNZQuuFsklZeG4qeBNANxPxpg5iTvH6OvhOtzyDiog7Im0Lg428yecZoEXrHe8wEMNKNxhiOjCIZTIbjBsn0q6dpL34IqpRZMuW8GCyuXMZwh/Z2MAMW5FzCCGEY6V6qldPQszww7bt24dDJgiRuPRSSbvkEknbGplykmMQEmF+G5FLKIN07mw9xyEmd/CPRjbGnNhlvCGEL3g/iH1GNnuns1QURUklVq5caW05NsxBjK3LzesqeHrvqCcIUyPWF+cHXl1sPvUCk0hEw+1P3C8wpgOcEFYUJbmo4E0AIpVR1ww0A4wbMVoOurhIMk9oA11RzE7lnSmKwVjtjEhsYYQhuQUBzwEhDUFG7uaxfTsBxZEvhg0bJM0IR3nlFQkZsRoaMiQsfqNh1sdsexGGwJzodEc9/nhYGCNuAe8Ext0ZYOfZIIYYrzIgWp1H4osvuEFiVL/dFmFPuhq6u7wfRjGTlN87kE9RFCVVQIwyAQShCi4lJeCx9c58hv1nAiFy5wLeXmzcPvvsY/MwE85G+q5YMBHJ1KlTZfDgwXkpBZXCoQ0FJREqeBPQrVs3O+vVvHnz7HcMmHf2Hb4DsVoYPmbLQvwCo7RJR0SML6LYCV7+HzhwoP07MLzMmzdHvpivxpiG/vEPEtmKXH+9pPXpExaozmuKhxcBCnh//QPWHIhVBqmdf76kEeuLsHe/w99ORCNyEd3Ab0SMi/UAM3AO/vxTQtybe+6xX5kIgXAOvB/eD54QUu/8g/NXFEVJQXBWkOOa8Ct6o6ZNm2bDG6gLyNyDWCVXNlNDE7t73XXXWXtPdgb+pmeP0DbC2mJB3ma8wqQuU/ITTcDGE7WxutRTQQg7h5lSuqjgTQBilznyEa/xoDVPmAID0jB6GDxG2mLQiANjdiyXSJxYL68XOBB4g72pvwYPFlmwQNLGjpW0Sy+V0MyZ4fWENxhCZE146CGRCy8kv1o4rCEaZr+0yy6zcb4hMlEgWJ3nFQPiUo2QFYIQCjDLQhHjsoNYXry6b78tcthhkta7d952VBTcv2ifzMzMmAZKURQllcC2I37x+p599tnWfjH5BLMiMhAZ+4+Hlqw+1BeEuiFyLrroIuvtjQaxughlHCSalzk/iFRXPxAmiNccWOYXsKSEIw+wHzzrhNB565nSEr+UH0L5mJ65sOdAo+uZZ57JF2JTEIp67aV175JJ5XHjxo2P/K3EAOPVqFEjW2jjQVc9U8CSfByRi7AlNx2xYOTxJUsDhQYPJ2KQvwOLPvLUMsjNnIcFccugsd9/t8vSyBNct65Iq1bhvLjmnG1oQvPmNlwhjX0jYjgfCFpeIAadEUPG77RoER6MhsjmeHS1MYsKKcRIS2aOmUbMLqESxBVzX8gcYYRsGoPc2DdGGh5FUZTSgnEWZE8oaDpEws/okdrP2FxsPAOO8QCzjMklyDaDsGU7ev0QsPRmUW/EghRkTDZBWIT3fBB4DI5zs1GmOmSUQFhyX5KFqxdJA+dmLyRchB5Xv4AdP368bYzwHLwQjoKHnWfEwEDqb9cjG5QC1dFRQODSOKK+JzSS8BU8/gUKZ4xATwCNKcpgvHIV65xZRiOLhkBdoxViXZd3f+/f/E96Phx5TAFfFlEPb0CCFFCELTOyYbDossfTy8s2YsQIm48RvIUsVoGLCgLXLyIRtXhwiR8jR27t2mIsL6U0vB4vMKETeBh4QfD4TptGbp7wx7x8iFQhh/Cpp4bFLjG8RpBb8PYao23B+LqpA8neYF5i+zucl7k++xumBRoiXQ/ZHBDiiqIoZRgq/OKC1Gbt27e34W7KzhAiSG5jBCLOIyb5IF+xF54Pva8ISj+knsP5BByHxo6XWM/WuzzW30FCFNgGDz4CEVq1amXTz0VznMU6Fy80sMj05LI9BdnHvw2NhsmTJ+fLNBUP//6IZdK0OoKcQyqheXiTBCnJGKBFy55BDXgRCtOKKzbMS5JGhgcKuhPaZlnossvCE04kgZAR1JWWLpUQIpi8vJEsEYqiKKlAYfLw4qWj2xwHRYGcFDFAuDDtNGFu9ASeirPBAynKyHCTzIkcipPimHgCGA/DhE5Lliyx3+kZHT16dF5oICC4mI55zz33tIOgqYeZ6p8JnpjymTATchsz8BDxO3LkSBtj7UAsk1WDbEp4qOmRJcRk5syZdvp2lvGsuD6cWKSaI+sG4QlsR2Nl9erV9rcQkR999FHe8pdeesnm62fSKs6JcyH0gnDGGTNm2L8R6gxqZ3vSnz5k6lC8sExcQs8yML3822+/bXsBKBuES3rz1zP1/CuvvGKPRcOAsTP0NuN157gcj+vBGYfYRfxzfOYOYN3y5cvth+skXIffpWFBbDrnSqpVfoO/J0yYYMMqeNZkFYnnaU5F1MObJIjnYjYdWm94dlNK7EJ6uoSuvlpC114roYkTw59Jk0SSOP91mnmhdpDBgimHVewqilIOIDXZNddcYz8Tjd0s6oeUZXRtX3nllTuJXUCslYVpWosbQjoIE+G+M5EHIQuHHnpoZG0YGiAIMyZ4IoMG4hBBB9xj8iMjitmO9UzT7oWpovEc440lBALxCwjLuQz2NvD8EaKAkCS0gGndb775ZhtPi2gcNWqUnXCEdczCx4BGjsnv0nhBWONhdhOWsA/jffCWcs7A1NVsh3ZgUirCMRDB15o6m3MnCxTpPGkwOTg31rMtHnFm9YP58+fb6wIccNwLQk/wDnNONAIYfM/9QYyTNYn9ORYQQsLsgYBwZn/24Xfc/jQuyhoqeCsSdPvwsng/pvAmBbo2GjeWNEIgMNZlrKtDURQlGmTgQZggpBBERf1wLHLvuuno/d3CeO/8wq4iQlwuGY4QoghKPI94cfGo4pFEVHLv8Kxyv/B8MkgQzyrCzK3jfvIMSR3nTTEHeNkZiIh4xROLCAX29T4XxCtiES8vv4OnmO8LFy60Ti4GlJ177rlWGJKDH49o//797W+TgaNr165WeHI+HHfQoEF2ef369e3fCGm8qjSAOE/ENvn/EZ14rykzhEbiWHMhDYBgp8eCOHDKFp5qYoWJG3bnz/+IU3qdyQ6FpxtPLfMJIHSJ5yWjCL0NiF5Sq+It5podXB8DMtkfrzf3gFSrZQ0VvEpy8AvnZAlpRVGUUgKx0LJlS9s1TTcuXb5F/QwbNsz+T7YawGPm4PcQFnSnO8FSUcGLiHDEa3nVVVdZTygTebz55pt28BYCj9ACelQRq4CwRRSyL6LP9bQiQt39dtBVj3g86KCD7He6/BF/gPeT4wDijw/LEI54mxHhiGMnJhF/7jiUFyecOQZCExDGHMeBB5YwBXLyc10I4kceecSmv0PEcv6IT8QyIOoJi/BO2MS4IXftlBvCIziWO2fg2jmW+32+04sAXD+pQ4FrIESBxgRe5Fj7c01u/7JWRlXwKoqiKEoUvGK0JPD+Xkn/dqpBWAHiDe8u6d+A0AKEZd++fW0WDLIuIDgJawD+JiwAUeb1UOJZ9ebPBwQcnmDnMSUcwf3tuu6B43BMxB3iG5HJhFRkKnC/wTp3Duzn9uV8EIzANnxYhyeWEAWEO3B+HA8P9Mknn2yFL9kYyIrgjss2iF1vueBvwiMcrEeMch3uWrhuJ5I5BtfixCz7u+MD23FP2dddm/NgA/+z3HsOZQkVvIqiKIqipBSIQ7yeeEsRanzw0jIlP13/eGTxPBLiwEQgxLkyuJD4Wjy1fEdwAgKNGFoX6gBsR9gEA8gQchwD0Qt42BmAxneOSewvxyL0gJAAuvURoyzjePwWQhLYx/0u/xNiAGznhCPZGxCOXA/LGGjG/oRscGznjSaGmQFx3ANStJElwXmeoW3btnbAGufHID9ifkndxrXhHSZkgfMnLRvebq4X77c7J8QxnnNmRSV8Ao85v8n+DKrjuDQ8WM/+eNM5JqEciOKyJnxV8CqKoiiKklIQA0u+4/POO89+8ICSkcEPqT8Rw4SdEO7gYqMRrQg0IC0owo9wAa9II7yEqf7JWIBYdOEHTPXMADHiaRHUhArgFSXrAcKYGFjEI8IaDy6hBnhCgZhb1+WPF3rKlCl2UB3LmzVrZpdzbMTlpZdeajMnkIGC7A4MIOM6iClGUP/rX/+yvzt06FArwPH6egetMekJv0W4DYPl8HzTIOB4/M/+hIW4yU/4fe7p2LFjbegCgyMR6FzPLbfcYmN0WUZGBn6H45MlgwGECHLuNdeMZ5qsDmUNTUumKIqiVAgKk5ZMiU9xpSUD8saSSQAxyeRNiDgveE3Jc4u3lPNAVOL5BTIYIN6YBQ9R9+KLL1phihj0ghhlf0IV3nnnHevRBOcxJdUov9OmTRsrQtmeeFmOS1nCG8tv4fnFC0oaO4Q28bCIZTywrENsIjLJNoGHFNFLOALXRBwtoh1vM95cfgtPrTseg9gQz4hrr5AHjkN4BF5ZUra50A0GoOEdJq4Z8cr5cK54ibk2UpiRNYLsDQhqMk4wSNB5kBG6eLSJIeY8OH+Og+eXFKyI/7I2AYUKXkVRFKVCgIePgUKIByU5IKAQVgzESxYIzFjd5fHWObzbIGad99WL/zhkdyDLAl37QbaPhncbPKIIxSAEObYXtodo+8Q7ln8dHmWW3X777ZElBTuXgmybCqjgVRRFUSoExE4Sl8jAIPKjKkWDAU6k08JTiXgqyxDji+c1mcI91cGjTFyzP11beUUFr6IoilIhIJ6RGEy6ovH8KUUD7x5d8HTJa5iIkuqo4FUURVEqDAwWYvR8WeqKTVXo0iaulFjZaGEAZYWy1jWfDLzXXFGuXwWvoiiKUu6piKKmJNH7q6Q6mpZMURRFKfeoGCte9P4qqY4KXkVRFEVRFKVco4JXURRFURRFKdeo4FUURVEURVHKNSp4FUVRFEVRlHKNCl5FURRFURSlXKOCV1EURVEURSnXqOBVFEVRFEVRyjUqeBVFURRFUZRyjQpeRVEURVEUpVyjgldRFEVRFEUp16jgVRRFURRFUco1KngVRVEURVGUco0K3hTjr7/+koULF0a+xebLL7+UX3/9NfKtYrN9+3bZsmVL5Fv5hmstCTZu3Bj5Kzls3bpVcnNzI98URSkugtQhWn8oFREVvCnG3XffLVOnTo18i82MGTNk7NixkW87s2rVKlmwYIE1fMuXL5dQKBRZE2b16tUyefLkYhdQS5culaeeeiryrXiYMmWKnHDCCZFv+cH4u/uAkd+xY0dkTWLmzp0r27Zti3wLs2HDBvnkk08i3/5m2bJl8uOPP0a+FQ8PPPCAHHnkkZFvxQf3qU6dOpFvyeH000+Xm266yf5dEmVCUSoqQeqQRPWHA/vJts8++6x8//33kaVKLJJdr5ZUPV1RUMGbYjzxxBMycODAyLfYnHjiifLcc89JTk5OZEl+hgwZIl26dJEDDjhAWrVqJc2aNZPp06dH1ooVbSNHjrQvVDJ5+eWX8x2T65k4cWLkW/GAiI0lZG+77ba8+9C+fXtp06aNfP7555G1scEjeeihh8o333wTWRLmvffek+OPPz7y7W+uueYaueWWWyLfigc8pH4B7vj444+tUE0G8e5nYfEesyTKRDLxl2lFSWWC1CGJ6g948sknpXHjxnLyySfLmWeeaeuRUaNGRdYmJpk2CVLxPfRfY1Hr1WQfT8mPCt4U4ocffrDe2EMOOSSyJDYYn5o1a8q8efMiS/KDIbvjjjskOzvbHrN///5yyimnyLvvvmvX9+rVy3radt99d/s9WZx//vny6aefRr6JjB49Wl577bXIt5KH+zBgwAD7P/e3fv368u9//zuyNjF+zzjEWhZteUlx11132QqqLFDaZaKg+Mu0oqQqQeuQRPXH4sWLZejQobbsr1+/3n7wGuNACGpnkm2TUvE99F9jUevVZB9PyY8K3hQCMbr//vtLRkZGZInYbvLHHnvMCgS8jl4OPPBAmT17duTbzlSqVEmqVKlivbuI36OOOkrGjRtn19FF4m01fvjhh9Z7SPcVfztocT700EOyZMmSyJK/ef/99+WRRx7J68pnPwQ2xhJPKB49zhlj6YVjccy33347n0ikZfvHH3/YcAyO+7///S+yJgzHef7552332u+//x5Zmpi0tDRJT0+33op//etfNsTBS7xrTAZ4Zt988037HL/66qvI0rAXef78+fYezJw5016b3+Pi7gVGLxbct99++81WdpShtWvX2pjmOXPmRLYIw/MhJAPYh+f/yy+/2OMnqkhWrFghDz/8sLz11luRJdEhdITtPvjgg8iSnfGXCZ45z/SVV16x5//ZZ5/Z5fHKg7t3lDHK7Ouvv55XljhHvFd+bzjds4RSsG7z5s2RpfF/J1qZVpRUJVodQvl96aWX5Jlnnsl7/yFe/UE3eteuXWXSpEm2DqEuOeuss6xn2IVL/Pzzz/l6y/gd51CJZpN4Z7G1vKfYw6effjrfe8ixfvrpp8g3sfs7WxDkPeS42AGuk22xae564x0bYtUtxDnTy7dp0yZrO7z3K9o1eutV9mG5+3jrnWh2MtHxHNx36hJ6bPkNR7xzVSKYghPST2p8Lr744tAZZ5yR9/3xxx8PVatWLbTPPvuE6tSpE9pvv/1CRjzlrR87dmxowIABed+9H2OsQsZo5VtmjF7IGK7QunXrQkbchSpXrpy3juOPGDHCrjeG0C674oorQjVq1Ah17949VL169dCjjz6at/2wYcNCRkSGjJi252he5lDt2rVDRlza7+xnXl57Dj179szbb/z48XabFi1a2N8/5phjQualtuuMMbXH5Th77rlnKDMzM2REjV1nhGJot912C7Vu3TrUvHlz+/eyZcvsOv9veD+jR4+2x3Xfp0yZEmrQoEHe91jXaAwx6sneJ7ctn5dffjm0xx575FvGZ8iQIaHzzz9/p+U8rw4dOth9eI7cM2NU7TqO3aRJk9DAgQNDpgUfMpVU6KSTTsrb1xhse27169cPZWVlhUxrP3TwwQfnrXef448/3h7XVEz2GozhDpmKJVS1atV823EOb7zxhv2bezJy5MhQ3bp17TnwLIxwtOv8ZYNyw+9369bNbj98+PC8dd4P17/LLruEOnXqZMsAx3fr+L0JEybYv73Pi+dK2XPH5hoOOeSQvH1ilQd379iG6+J8L7nkkrxr4l4OHTrUbstn+fLl9rnzLFq1ahXq3LlzyFRyCX8nWpl2x9SPflLt469DjOCz7yPvJXbENPqtbWNdvPqjTZs2odtuu22n5aZBaG0MNvumm24KHX300XnrjGCzNtM02qPaJN5Z7De2sl69enY577oRp3b/Y489NnT99dfnHe+ee+7Js3dB3kPed9573nPqsI4dO+bZu3jHTlS3sG/btm1DDRs2tOfg6tVY1+hs55w5c6wN5sM22CWWx7KTiY7H57XXXrO2uFGjRnYbztcIYLsu3rnqJ/xRD28KQesML6TDVOS2ZUpLFM/g119/nc/7agr7TjGm8dh7771ty5gur2i8+uqrsnLlSutNZoACXmG8aHhyjfi28Vt4K2mdTps2TT766CN7rBdffNG2qP/8808xxsbGWuFNM0YtcuQweIKvu+46MUZIvvvuu7zWOt5NB905fKc1bkSo3H///XY5HgZa4NyDb7/9Vtq1a2fPKQi0lGld0/I3okvOOeccuzzeNSYLvA5GiNnr4Tny93333RdZG74nxiBa76LzTPIM4MYbbxRjlO137nksL+8LL7xgw1U4dzwahK8EAU8Nnh+8t3hvrr766siav6G8cM7GcFpvBM8M70K0OGieF9fJueJ9MJVKwsEWHJd4Q47NIEHuBeXQEas8APfOVBz23t177732WXJeLMdbzPN03hFiho3ItuePJ4XyhIfFEet3EpVpRUkl/HUItmbdunXWa8h7ctFFF+XZt3j1B+9By5YtI9/+xjQyrQfR6ymORiybhO2m54VzwQOLXfba/1gkeg+pF7BL9BpiLw866KB8Htx4JKpbsEcXXnihPS5jNe688067PJHdxXbT08aHQbt9+vSxy2PZyUTHoy4hnvfSSy+1No7eOSP+5fbbb49sEftclTAqeFMIhBkF2NGjRw9p0aKF/ZtR88RdYSgcxGCxT1DcyHt/t7nDtIBtjOuuu+5qu4l5MU1r0a7r27evFQ9kI5g1a5Z9mek6A0IlunXrZv+OBy80+yA8AAF+zDHH5DN4xNcywMy0Tm3mBTcymGs//PDD7d8YKLbBaAThnXfesQPXBg0aJEcffXSesIt3jcnCtM5tLBznDHQTep8hyxFXpmVvz4VYLQQocJ+JW2MbBtsR+5pMuNfuuSF4qYCoTLwgIDlfDDZQPtgnWsgCxtqVX7pLKWeECsQDw+3K0V577WUrQ2+XYqzyANwXhC73+Nhjj7WVBga+WrVqtoyxj7uXNMqGDx9u/+Ze86y91xDvdxSlrOCvQ+jiP+2002S33XazZRvBRCMRYtUfOC9IS+g9jsMtizV4NhG8s//9739tmAQ2/bDDDrNOj6KCrdxvv/1svcR1khGmdu3akbXxSVS3YO/OPfdc+/eJJ55oGw8ufCoIOHcQ0K7eKYydhCVLlli7hOAFnuOwYcPyjYco6rmWd1TwphDEOHljr6jAEUP9+vWzQonWp9f7iDcM4xQUZ9wQtNGg9e6ghYjHDW8BH9bx23gLiCHCO1BQEDd+rwGCnuM5MjMzI3+Fjas3xgsP6ODBg61RI0YpqCeWF59W9g033GDjxpwxi3eNscCYxiLWOjwHI0aMsEbV70FmHwSaw10zZYHz8N5n73bJoHr16pG/xMZ5g9/w8swwyKx39wmhGO0eUb6IEadR4Ro1iZ4RIpdKGU8ylRYVYaNGjSJr45cH771zFYjbnnVcH8+dyptzoxy4a7j11lvzXUO831GUsoK/DsHWuXfbT6z6g/0Rfv7GL+AQ4N1y71tBYd+srKzIt7DdKch4jFgQv+q1lZw/tiQo8eoW7/ly3ayL5TSKxvjx4+XUU0/Nq/sKYycB8YpDxDVYwF9/FvVcyzsqeFMICqs3CJ3uf1Jd8bLgufIKUmBbb+FPBN1H/Ea0rio/vCh4HPG+ug9d6nhKERlBXlA/GDv/fryMXuHlx7VO8QLQxcPoY1rvzlAEBeOO2MRAuEEX8a4xFjQW1qxZs9OgCbrconV3U0GQ3oxrxPA5L2M8vC3yRCEBseBeFwRnFP3liXuEJ8h7jwgBueCCCyJb/M1JJ51kB6XQbRo0RRv3kwEseKB4vpRzb4XtpzDeClfm8Aa7ayCExRvS4Ee9IkpZxF+HxLPVseoPbAd1DQ11P3gZqT94RwtqY6KB3XHnUJTj8b7Gs5Xxjl2YuiWofaCHjJ7NMWPGRJYUzk4C11DQ+hPUlv2NCt4Uom7dulZMOehyv+yyy2weRLo+vK03iCWyooExIF6SF5su4ETQWqblTe5a9yG2iZcOD9wXX3wR2TKMe6k4diwDixElhtIL3eitW7eOfIsNMZnkvz3vvPNsK3zPPfeMrCkY//znP62XF+JdYyww9nTnYbAceFUWLVpk9/VDnDOeBgwbHl48mkGgoqJLzlvp4G2Nhf++47F0XZOAV8FbEYK3247nQvnyp7+hgcAIZkIZvPfJXxaJOWNkMWWsd+/e0rlz58ia+BDDRjknng3v8plnnhlZkzwQ1Qhq8F5D0HcnXplWlFTCX4fQm0HMusMrfuLVH9gq7KRXRGL3iJN1sajYGBcjD377FO29wVHg9Uhid5o2bWr/5njec6cHzku897Bhw4b5bCXn5Z0tMt6xi1K3JLINTO7BmBGeAySyk/GOx32iviJ210H9GbROUVTwphQUXO+Aslq1almvLEbiwQcftIXbC7GmxHbGgtghXi66aIizxSAETfiPAcBQMhAIwYM4IkcgEOOIoeKl5Rwuv/xyawgBwcTAAQSxvyuFli3b47kmLhSPG4PwzjjjjMgWscHLSGsZ0cY9ieediwc5eRmogSc33jU68ARiEPmwD8aQeFGMGJ4BPB6kOkMAEnrih2eI8eVZYKy49qAcd9xx1uNAHCpp0/zn5oX7zr0kxovuPYQ5Qu/mm2+2Ax5p6PifB+EyzMrEPWCAA/eGrkAvHTp0sA2S//znP/a4dHPyrP2VGxUKXh+8vwhtGmpBIH6aSVLYnsEWDLIpbHxgPBgYRzci10qYA3HdvBtB8JdpBoYQ9+e/n4pS2vjrEGw1dQcDhbGf2BT37sarP3jf2Z53k8FfNOjp8mcfPJOAWGM5DVbCnFzsqMNvkwDBjd3l2Nh/9qdeAGL5EdnYVOwd9YuXeHULNpl3m2vF1hK+5A1LinfsotQt0a7RwX3j3hxxxBE23zFOEhwZ8exkvOPts88+dtwLdpJnzL2gTqD+CQLnEa8OqQio4E0hOnXqZF9IB61DXlK64x999FFrrGgBOti2Y8eOkW/5YYAaLzXdM7wgtPwxSi6ei+N4j+X/TmvSBdojnPDOuhyseEZJQE7wPGKIGEwX9E+sKuu4FkSk97iMssWYEEvL8a644gorxl3r138O3u8E5+NJ5VwwZgzEcOv8+3nxr+N8EXEE+se7RryyGEIGMyFk+TixylTG3F8MCPcf8Y8gjtYVT8gEHhEqFkQox4l33t5l/B5iGS8r+TCJO/Vv7yDshfPgNzCmlBn24Rh4M3k+nKt3fxoalBHWUzmQFQK854C3m8wRGGueH55Snh8Dv7zw/dprr7XHJHaMBgA9Ae443mN6/+aYeMYZVY0XmWO4XNHe7cD73b/OCfVY23NteIG4VroAqbydsPYfy//dX6aJ/aVx5A9rUZTSxl+HIFgRg3gTEUyUfd45iFd/7LvvvrbuIZc3g8EQt4hCGnuuDiH0i/cIAcvgY+wN76HrIfPbJOC9oh7j+IRF0fNF4xHOPvts6yDgnJztivceesFG4szhGNgTpmBHPDriHbsgdYu7Pmdv/Nfo3R7Rio3A2YB9o5cWex7PTsY7HjCLHr1h3DOeKfeEZwD+bf3nis3yeuQrImnmgWiAR4pAly4eRLos3MuKN4qWHiKTrg4KNIWYria6vPFAYjwKA61kJ9K8f3vh9+n+4XwwCF7oJsfj5x8UQdcRLXlEIf9z3t4BBIgrXj6Erht0BGzHy+leUP++XDPeCYQLAgtjwv/RfsPBNm47h/934l1jPPBSc6xYg0K8sC0GDqMb7777vyPKuGbEOdfA92jXCVwHBs076Isyxf3h2rz74vGk3BDXzPEpX15j6T8P7iEGHAONMI0FZYLKg228x/Dec/e88HBQhhmM4Y6JhxejTrn2Pyf/c0507/zfgXLHcu6nO26i3wFvmQa6SwsSP68oJUG0OgQo99gPUl1C0PqD9573k32dY8IP63kveB/875zXJiGYEavYIc6P9wtHjBfeO44Xy97530M/1JXYMUI1sCk4ipitDOIduyB1S7xrhGh2x08sOwmJjse5You5By5UCxKdK/Uu9a2zcxURFbwpBmlaiGNM1M1PdzqppOi+cS1qRQmKE7zewRQlDfFsGGxyYOIlovFE6ji88P7uTEVRghGkDimN+sMreEsCv+BVlIor9VMUYkMZRZ4ItsGgqdhVCgPlprTLDh5vYowZSMjfeCzwzpDNQlGUwhGkDimN+qOkbU4q2DgltVAPr6JUQOj6pHsLoVnaENpAlyvdkKlwPoqiJB/CBAgdI6SgJOC3CO/wdvErFRsVvIqiKIqiKEq5RkMaFEVRFEVRlHKNCl5FURRFURSlXKOCV1EURVEURSnXqOBVFEVRFEVRyjUqeBVFURRFUZRyTdqMhz/ULA2KoiiKoihKuSXtw1mfq+BVFEVRFEVRyi2ah1dRFEVRFEUp12gMr6IoiqIoilKuUcGrKIqiKIqilGNE/h8P0j5/qkgLywAAAABJRU5ErkJggg==;" vertex="1" parent="1">
          <mxGeometry x="6" y="833" width="700" height="491" as="geometry" />
        </mxCell>
        <mxCell id="RvNwwFKHoACzrDZrQgTG-9" style="edgeStyle=orthogonalEdgeStyle;rounded=0;orthogonalLoop=1;jettySize=auto;html=1;" edge="1" parent="1" source="RvNwwFKHoACzrDZrQgTG-2" target="RvNwwFKHoACzrDZrQgTG-5">
          <mxGeometry relative="1" as="geometry" />
        </mxCell>
        <mxCell id="RvNwwFKHoACzrDZrQgTG-11" style="edgeStyle=orthogonalEdgeStyle;rounded=0;orthogonalLoop=1;jettySize=auto;html=1;" edge="1" parent="1" source="RvNwwFKHoACzrDZrQgTG-2">
          <mxGeometry relative="1" as="geometry">
            <mxPoint x="1028" y="1203" as="targetPoint" />
          </mxGeometry>
        </mxCell>
        <mxCell id="RvNwwFKHoACzrDZrQgTG-2" value="" style="ellipse;whiteSpace=wrap;html=1;aspect=fixed;" vertex="1" parent="1">
          <mxGeometry x="988" y="1051" width="80" height="80" as="geometry" />
        </mxCell>
        <mxCell id="RvNwwFKHoACzrDZrQgTG-7" value="" style="edgeStyle=orthogonalEdgeStyle;rounded=0;orthogonalLoop=1;jettySize=auto;html=1;" edge="1" parent="1" source="RvNwwFKHoACzrDZrQgTG-3" target="RvNwwFKHoACzrDZrQgTG-2">
          <mxGeometry relative="1" as="geometry" />
        </mxCell>
        <mxCell id="RvNwwFKHoACzrDZrQgTG-3" value="ch0" style="rounded=0;whiteSpace=wrap;html=1;" vertex="1" parent="1">
          <mxGeometry x="968" y="906" width="120" height="60" as="geometry" />
        </mxCell>
        <mxCell id="RvNwwFKHoACzrDZrQgTG-6" value="" style="edgeStyle=orthogonalEdgeStyle;rounded=0;orthogonalLoop=1;jettySize=auto;html=1;" edge="1" parent="1" source="RvNwwFKHoACzrDZrQgTG-4" target="RvNwwFKHoACzrDZrQgTG-2">
          <mxGeometry relative="1" as="geometry" />
        </mxCell>
        <mxCell id="RvNwwFKHoACzrDZrQgTG-4" value="ch1" style="rounded=0;whiteSpace=wrap;html=1;" vertex="1" parent="1">
          <mxGeometry x="787" y="1061" width="120" height="60" as="geometry" />
        </mxCell>
        <mxCell id="RvNwwFKHoACzrDZrQgTG-12" style="edgeStyle=orthogonalEdgeStyle;rounded=0;orthogonalLoop=1;jettySize=auto;html=1;" edge="1" parent="1" source="RvNwwFKHoACzrDZrQgTG-5">
          <mxGeometry relative="1" as="geometry">
            <mxPoint x="1424.7777777777778" y="1090.9999999999995" as="targetPoint" />
          </mxGeometry>
        </mxCell>
        <mxCell id="RvNwwFKHoACzrDZrQgTG-5" value="" style="ellipse;whiteSpace=wrap;html=1;aspect=fixed;" vertex="1" parent="1">
          <mxGeometry x="1197" y="1051" width="80" height="80" as="geometry" />
        </mxCell>
        <mxCell id="RvNwwFKHoACzrDZrQgTG-10" style="edgeStyle=orthogonalEdgeStyle;rounded=0;orthogonalLoop=1;jettySize=auto;html=1;" edge="1" parent="1" source="RvNwwFKHoACzrDZrQgTG-8" target="RvNwwFKHoACzrDZrQgTG-5">
          <mxGeometry relative="1" as="geometry" />
        </mxCell>
        <mxCell id="RvNwwFKHoACzrDZrQgTG-8" value="" style="rounded=0;whiteSpace=wrap;html=1;" vertex="1" parent="1">
          <mxGeometry x="1177" y="906" width="120" height="60" as="geometry" />
        </mxCell>
        <mxCell id="RvNwwFKHoACzrDZrQgTG-13" value="" style="ellipse;whiteSpace=wrap;html=1;aspect=fixed;" vertex="1" parent="1">
          <mxGeometry x="1434" y="1051" width="80" height="80" as="geometry" />
        </mxCell>
        <mxCell id="RvNwwFKHoACzrDZrQgTG-15" style="edgeStyle=orthogonalEdgeStyle;rounded=0;orthogonalLoop=1;jettySize=auto;html=1;exitX=0.5;exitY=1;exitDx=0;exitDy=0;entryX=0.5;entryY=0;entryDx=0;entryDy=0;" edge="1" parent="1" source="RvNwwFKHoACzrDZrQgTG-14" target="RvNwwFKHoACzrDZrQgTG-13">
          <mxGeometry relative="1" as="geometry" />
        </mxCell>
        <mxCell id="RvNwwFKHoACzrDZrQgTG-14" value="" style="rounded=0;whiteSpace=wrap;html=1;" vertex="1" parent="1">
          <mxGeometry x="1414" y="906" width="120" height="60" as="geometry" />
        </mxCell>
        <mxCell id="RvNwwFKHoACzrDZrQgTG-16" value="max" style="text;html=1;align=center;verticalAlign=middle;resizable=0;points=[];autosize=1;strokeColor=none;fillColor=none;" vertex="1" parent="1">
          <mxGeometry x="1096" y="1072" width="41" height="26" as="geometry" />
        </mxCell>
        <mxCell id="RvNwwFKHoACzrDZrQgTG-17" value="miin" style="text;html=1;align=center;verticalAlign=middle;resizable=0;points=[];autosize=1;strokeColor=none;fillColor=none;" vertex="1" parent="1">
          <mxGeometry x="1017" y="1135" width="40" height="26" as="geometry" />
        </mxCell>
      </root>
    </mxGraphModel>
  </diagram>
</mxfile>
